<mxfile host="Electron" agent="Mozilla/5.0 (Macintosh; Intel Mac OS X 10_15_7) AppleWebKit/537.36 (KHTML, like Gecko) draw.io/24.7.8 Chrome/128.0.6613.36 Electron/32.0.1 Safari/537.36" version="24.7.8" pages="8">
  <diagram id="FTNf-030cmVLCIaSZYQV" name="overview">
    <mxGraphModel dx="1012" dy="335" grid="1" gridSize="10" guides="1" tooltips="1" connect="1" arrows="1" fold="1" page="1" pageScale="1" pageWidth="594" pageHeight="394" math="0" shadow="0">
      <root>
        <mxCell id="0" />
        <mxCell id="1" parent="0" />
        <mxCell id="dV_sc7vQkaxIxrS-e3xM-1" value="" style="html=1;verticalLabelPosition=bottom;align=center;labelBackgroundColor=#ffffff;verticalAlign=top;strokeWidth=2;strokeColor=none;shadow=0;dashed=0;shape=mxgraph.ios7.icons.wifi;pointerEvents=1;fillColor=#b1ddf0;fontSize=20;fontFamily=Fire Sans;" parent="1" vertex="1">
          <mxGeometry x="20" y="440" width="70" height="60" as="geometry" />
        </mxCell>
        <mxCell id="dV_sc7vQkaxIxrS-e3xM-2" value="" style="sketch=0;outlineConnect=0;fillColor=#b1ddf0;strokeColor=#10739e;dashed=0;verticalLabelPosition=bottom;verticalAlign=top;align=center;html=1;fontSize=20;fontStyle=0;aspect=fixed;pointerEvents=1;shape=mxgraph.aws4.traditional_server;fontFamily=Fire Sans;" parent="1" vertex="1">
          <mxGeometry x="150" y="435.33" width="40" height="69.34" as="geometry" />
        </mxCell>
        <mxCell id="dV_sc7vQkaxIxrS-e3xM-3" value="" style="html=1;verticalLabelPosition=bottom;align=center;labelBackgroundColor=#ffffff;verticalAlign=top;strokeWidth=2;strokeColor=none;shadow=0;dashed=0;shape=mxgraph.ios7.icons.cloud;fillColor=#b1ddf0;fontSize=20;fontFamily=Fire Sans;" parent="1" vertex="1">
          <mxGeometry x="245" y="445" width="70" height="50" as="geometry" />
        </mxCell>
        <mxCell id="dV_sc7vQkaxIxrS-e3xM-4" value="" style="sketch=0;points=[[0,0,0],[0.25,0,0],[0.5,0,0],[0.75,0,0],[1,0,0],[0,1,0],[0.25,1,0],[0.5,1,0],[0.75,1,0],[1,1,0],[0,0.25,0],[0,0.5,0],[0,0.75,0],[1,0.25,0],[1,0.5,0],[1,0.75,0]];outlineConnect=0;fillColor=none;strokeColor=#b0e3e7;dashed=1;verticalLabelPosition=bottom;verticalAlign=top;align=center;html=1;fontSize=20;fontStyle=0;aspect=fixed;shape=mxgraph.aws4.resourceIcon;resIcon=mxgraph.aws4.augmented_ai;strokeWidth=18.897599999999997;fontFamily=Fire Sans;dashPattern=8 8;" parent="1" vertex="1">
          <mxGeometry x="481" y="431" width="78" height="78" as="geometry" />
        </mxCell>
        <mxCell id="dV_sc7vQkaxIxrS-e3xM-6" value="Internet" style="text;html=1;align=center;verticalAlign=middle;whiteSpace=wrap;rounded=0;fontSize=20;fontFamily=Fire Sans;" parent="1" vertex="1">
          <mxGeometry x="25" y="550" width="60" height="30" as="geometry" />
        </mxCell>
        <mxCell id="dV_sc7vQkaxIxrS-e3xM-7" value="" style="ellipse;whiteSpace=wrap;html=1;aspect=fixed;fontSize=20;fontFamily=Fire Sans;fillColor=#b0e3e6;strokeColor=#0e8088;strokeWidth=3.1496;" parent="1" vertex="1">
          <mxGeometry x="45" y="520" width="20" height="20" as="geometry" />
        </mxCell>
        <mxCell id="dV_sc7vQkaxIxrS-e3xM-8" value="" style="ellipse;whiteSpace=wrap;html=1;aspect=fixed;fontSize=20;fontFamily=Fire Sans;fillColor=#b0e3e6;strokeColor=#0e8088;strokeWidth=3.1496;" parent="1" vertex="1">
          <mxGeometry x="160" y="520" width="20" height="20" as="geometry" />
        </mxCell>
        <mxCell id="dV_sc7vQkaxIxrS-e3xM-10" value="" style="endArrow=none;html=1;rounded=0;exitX=1;exitY=0.5;exitDx=0;exitDy=0;entryX=0;entryY=0.5;entryDx=0;entryDy=0;fontSize=20;fontFamily=Fire Sans;fillColor=#b1ddf0;strokeColor=#10739e;strokeWidth=3.1496;" parent="1" source="dV_sc7vQkaxIxrS-e3xM-7" target="dV_sc7vQkaxIxrS-e3xM-8" edge="1">
          <mxGeometry width="50" height="50" relative="1" as="geometry">
            <mxPoint x="270" y="460" as="sourcePoint" />
            <mxPoint x="320" y="410" as="targetPoint" />
          </mxGeometry>
        </mxCell>
        <mxCell id="dV_sc7vQkaxIxrS-e3xM-21" value="" style="ellipse;whiteSpace=wrap;html=1;aspect=fixed;fontSize=20;fontFamily=Fire Sans;fillColor=#b0e3e6;strokeColor=#0e8088;strokeWidth=3.1496;" parent="1" vertex="1">
          <mxGeometry x="270" y="520" width="20" height="20" as="geometry" />
        </mxCell>
        <mxCell id="dV_sc7vQkaxIxrS-e3xM-22" value="" style="ellipse;whiteSpace=wrap;html=1;aspect=fixed;fontSize=20;fontFamily=Fire Sans;fillColor=#b0e3e6;strokeColor=#0e8088;strokeWidth=3.1496;" parent="1" vertex="1">
          <mxGeometry x="510" y="520" width="20" height="20" as="geometry" />
        </mxCell>
        <mxCell id="dV_sc7vQkaxIxrS-e3xM-23" value="" style="endArrow=none;html=1;rounded=0;exitX=1;exitY=0.5;exitDx=0;exitDy=0;entryX=0;entryY=0.5;entryDx=0;entryDy=0;fontSize=20;fontFamily=Fire Sans;fillColor=#b1ddf0;strokeColor=#10739e;strokeWidth=3.1496;" parent="1" source="dV_sc7vQkaxIxrS-e3xM-8" target="dV_sc7vQkaxIxrS-e3xM-21" edge="1">
          <mxGeometry width="50" height="50" relative="1" as="geometry">
            <mxPoint x="515" y="488" as="sourcePoint" />
            <mxPoint x="565" y="438" as="targetPoint" />
          </mxGeometry>
        </mxCell>
        <mxCell id="dV_sc7vQkaxIxrS-e3xM-25" value="" style="endArrow=none;html=1;rounded=0;exitX=1;exitY=0.5;exitDx=0;exitDy=0;entryX=0;entryY=0.5;entryDx=0;entryDy=0;fontSize=20;fontFamily=Fire Sans;fillColor=#b1ddf0;strokeColor=#10739e;strokeWidth=3.1496;" parent="1" source="dV_sc7vQkaxIxrS-e3xM-42" target="dV_sc7vQkaxIxrS-e3xM-22" edge="1">
          <mxGeometry width="50" height="50" relative="1" as="geometry">
            <mxPoint x="190" y="540" as="sourcePoint" />
            <mxPoint x="280" y="540" as="targetPoint" />
          </mxGeometry>
        </mxCell>
        <mxCell id="dV_sc7vQkaxIxrS-e3xM-28" value="Virtualitzation" style="text;html=1;align=center;verticalAlign=middle;whiteSpace=wrap;rounded=0;fontSize=20;fontFamily=Fire Sans;" parent="1" vertex="1">
          <mxGeometry x="125" y="550" width="90" height="30" as="geometry" />
        </mxCell>
        <mxCell id="dV_sc7vQkaxIxrS-e3xM-29" value="Cloud" style="text;html=1;align=center;verticalAlign=middle;whiteSpace=wrap;rounded=0;fontSize=20;fontFamily=Fire Sans;" parent="1" vertex="1">
          <mxGeometry x="235" y="550" width="90" height="30" as="geometry" />
        </mxCell>
        <mxCell id="dV_sc7vQkaxIxrS-e3xM-30" value="Artificial Inteligence" style="text;html=1;align=center;verticalAlign=middle;whiteSpace=wrap;rounded=0;fontSize=20;fontFamily=Fire Sans;" parent="1" vertex="1">
          <mxGeometry x="475" y="550" width="90" height="30" as="geometry" />
        </mxCell>
        <mxCell id="dV_sc7vQkaxIxrS-e3xM-43" value="Edge" style="text;html=1;align=center;verticalAlign=middle;whiteSpace=wrap;rounded=0;fontSize=20;fontFamily=Fire Sans;" parent="1" vertex="1">
          <mxGeometry x="355" y="550" width="90" height="30" as="geometry" />
        </mxCell>
        <mxCell id="dV_sc7vQkaxIxrS-e3xM-45" value="" style="outlineConnect=0;dashed=0;verticalLabelPosition=bottom;verticalAlign=top;align=center;html=1;shape=mxgraph.aws3.generic;fillColor=#b1ddf0;strokeColor=#10739e;" parent="1" vertex="1">
          <mxGeometry x="368.81" y="440" width="62.38" height="64.67" as="geometry" />
        </mxCell>
        <mxCell id="dV_sc7vQkaxIxrS-e3xM-47" value="" style="endArrow=none;html=1;rounded=0;exitX=1;exitY=0.5;exitDx=0;exitDy=0;entryX=0;entryY=0.5;entryDx=0;entryDy=0;fontSize=20;fontFamily=Fire Sans;fillColor=#b1ddf0;strokeColor=#10739e;strokeWidth=3.1496;" parent="1" source="dV_sc7vQkaxIxrS-e3xM-21" target="dV_sc7vQkaxIxrS-e3xM-42" edge="1">
          <mxGeometry width="50" height="50" relative="1" as="geometry">
            <mxPoint x="290" y="530" as="sourcePoint" />
            <mxPoint x="585" y="530" as="targetPoint" />
          </mxGeometry>
        </mxCell>
        <mxCell id="dV_sc7vQkaxIxrS-e3xM-42" value="" style="ellipse;whiteSpace=wrap;html=1;aspect=fixed;fontSize=20;fontFamily=Fire Sans;fillColor=#b0e3e6;strokeColor=#0e8088;strokeWidth=3.1496;" parent="1" vertex="1">
          <mxGeometry x="390" y="520" width="20" height="20" as="geometry" />
        </mxCell>
      </root>
    </mxGraphModel>
  </diagram>
  <diagram name="datacenter" id="JqCKxH0QA5fmSJpIUeQY">
    <mxGraphModel dx="1606" dy="729" grid="1" gridSize="10" guides="1" tooltips="1" connect="1" arrows="1" fold="1" page="1" pageScale="1" pageWidth="594" pageHeight="394" math="0" shadow="0">
      <root>
        <mxCell id="0" />
        <mxCell id="1" parent="0" />
        <mxCell id="wKhPFe4_oIhbJ5wP4PMM-107" value="" style="rounded=0;whiteSpace=wrap;html=1;fillColor=none;strokeWidth=3.1496;dashed=1;fontFamily=Comic Sans MS;fontSize=20;" parent="1" vertex="1">
          <mxGeometry x="-198" y="80.75" width="150" height="80" as="geometry" />
        </mxCell>
        <mxCell id="wKhPFe4_oIhbJ5wP4PMM-111" value="" style="rounded=0;whiteSpace=wrap;html=1;fillColor=none;strokeWidth=3.1496;dashed=1;fontFamily=Comic Sans MS;fontSize=20;" parent="1" vertex="1">
          <mxGeometry x="-190" y="280" width="312.5" height="80.75" as="geometry" />
        </mxCell>
        <mxCell id="wKhPFe4_oIhbJ5wP4PMM-3" value="" style="sketch=0;outlineConnect=0;fontColor=#000000;fillColor=#fa6800;strokeColor=#C73500;dashed=0;verticalLabelPosition=bottom;verticalAlign=top;align=center;html=1;fontSize=20;fontStyle=0;aspect=fixed;pointerEvents=1;shape=mxgraph.aws4.traditional_server;fontFamily=Comic Sans MS;" parent="1" vertex="1">
          <mxGeometry x="-540" y="278" width="45" height="78" as="geometry" />
        </mxCell>
        <mxCell id="wKhPFe4_oIhbJ5wP4PMM-4" value="" style="sketch=0;outlineConnect=0;fontColor=#ffffff;fillColor=#60a917;strokeColor=#2D7600;dashed=0;verticalLabelPosition=bottom;verticalAlign=top;align=center;html=1;fontSize=20;fontStyle=0;aspect=fixed;pointerEvents=1;shape=mxgraph.aws4.traditional_server;fontFamily=Comic Sans MS;" parent="1" vertex="1">
          <mxGeometry x="-540" y="178" width="45" height="78" as="geometry" />
        </mxCell>
        <mxCell id="wKhPFe4_oIhbJ5wP4PMM-5" value="" style="sketch=0;outlineConnect=0;fontColor=#000000;fillColor=#fa6800;strokeColor=#C73500;dashed=0;verticalLabelPosition=bottom;verticalAlign=top;align=center;html=1;fontSize=20;fontStyle=0;aspect=fixed;pointerEvents=1;shape=mxgraph.aws4.traditional_server;fontFamily=Comic Sans MS;" parent="1" vertex="1">
          <mxGeometry x="-490" y="278" width="45" height="78" as="geometry" />
        </mxCell>
        <mxCell id="wKhPFe4_oIhbJ5wP4PMM-6" value="" style="sketch=0;outlineConnect=0;fontColor=#ffffff;fillColor=#60a917;strokeColor=#2D7600;dashed=0;verticalLabelPosition=bottom;verticalAlign=top;align=center;html=1;fontSize=20;fontStyle=0;aspect=fixed;pointerEvents=1;shape=mxgraph.aws4.traditional_server;fontFamily=Comic Sans MS;" parent="1" vertex="1">
          <mxGeometry x="-490" y="178" width="45" height="78" as="geometry" />
        </mxCell>
        <mxCell id="wKhPFe4_oIhbJ5wP4PMM-7" value="" style="sketch=0;outlineConnect=0;fontColor=#000000;fillColor=#fa6800;strokeColor=#C73500;dashed=0;verticalLabelPosition=bottom;verticalAlign=top;align=center;html=1;fontSize=20;fontStyle=0;aspect=fixed;pointerEvents=1;shape=mxgraph.aws4.traditional_server;fontFamily=Comic Sans MS;" parent="1" vertex="1">
          <mxGeometry x="-440" y="178" width="45" height="78" as="geometry" />
        </mxCell>
        <mxCell id="wKhPFe4_oIhbJ5wP4PMM-8" value="" style="sketch=0;outlineConnect=0;fontColor=#ffffff;fillColor=#60a917;strokeColor=#2D7600;dashed=0;verticalLabelPosition=bottom;verticalAlign=top;align=center;html=1;fontSize=20;fontStyle=0;aspect=fixed;pointerEvents=1;shape=mxgraph.aws4.traditional_server;fontFamily=Comic Sans MS;" parent="1" vertex="1">
          <mxGeometry x="-440" y="278" width="45" height="78" as="geometry" />
        </mxCell>
        <mxCell id="wKhPFe4_oIhbJ5wP4PMM-9" value="" style="sketch=0;outlineConnect=0;fontColor=#000000;fillColor=#fa6800;strokeColor=#C73500;dashed=0;verticalLabelPosition=bottom;verticalAlign=top;align=center;html=1;fontSize=20;fontStyle=0;aspect=fixed;pointerEvents=1;shape=mxgraph.aws4.traditional_server;fontFamily=Comic Sans MS;" parent="1" vertex="1">
          <mxGeometry x="-540" y="78" width="45" height="78" as="geometry" />
        </mxCell>
        <mxCell id="wKhPFe4_oIhbJ5wP4PMM-10" value="" style="sketch=0;outlineConnect=0;fontColor=#000000;fillColor=#fa6800;strokeColor=#C73500;dashed=0;verticalLabelPosition=bottom;verticalAlign=top;align=center;html=1;fontSize=20;fontStyle=0;aspect=fixed;pointerEvents=1;shape=mxgraph.aws4.traditional_server;fontFamily=Comic Sans MS;" parent="1" vertex="1">
          <mxGeometry x="-490" y="78" width="45" height="78" as="geometry" />
        </mxCell>
        <mxCell id="wKhPFe4_oIhbJ5wP4PMM-11" value="" style="sketch=0;outlineConnect=0;fontColor=#ffffff;fillColor=#60a917;strokeColor=#2D7600;dashed=0;verticalLabelPosition=bottom;verticalAlign=top;align=center;html=1;fontSize=20;fontStyle=0;aspect=fixed;pointerEvents=1;shape=mxgraph.aws4.traditional_server;fontFamily=Comic Sans MS;" parent="1" vertex="1">
          <mxGeometry x="-440" y="78" width="45" height="78" as="geometry" />
        </mxCell>
        <mxCell id="wKhPFe4_oIhbJ5wP4PMM-12" value="" style="sketch=0;outlineConnect=0;fontColor=#ffffff;fillColor=#d80073;strokeColor=#A50040;dashed=0;verticalLabelPosition=bottom;verticalAlign=top;align=center;html=1;fontSize=20;fontStyle=0;aspect=fixed;pointerEvents=1;shape=mxgraph.aws4.traditional_server;fontFamily=Comic Sans MS;" parent="1" vertex="1">
          <mxGeometry x="-370" y="78" width="45" height="78" as="geometry" />
        </mxCell>
        <mxCell id="wKhPFe4_oIhbJ5wP4PMM-13" value="" style="sketch=0;outlineConnect=0;fontColor=#ffffff;fillColor=#d80073;strokeColor=#A50040;dashed=0;verticalLabelPosition=bottom;verticalAlign=top;align=center;html=1;fontSize=20;fontStyle=0;aspect=fixed;pointerEvents=1;shape=mxgraph.aws4.traditional_server;fontFamily=Comic Sans MS;" parent="1" vertex="1">
          <mxGeometry x="-320" y="78" width="45" height="78" as="geometry" />
        </mxCell>
        <mxCell id="wKhPFe4_oIhbJ5wP4PMM-14" value="" style="sketch=0;outlineConnect=0;fontColor=#232F3E;fillColor=#1ba1e2;strokeColor=#006EAF;dashed=0;verticalLabelPosition=bottom;verticalAlign=top;align=center;html=1;fontSize=20;fontStyle=0;aspect=fixed;pointerEvents=1;shape=mxgraph.aws4.traditional_server;fontFamily=Comic Sans MS;" parent="1" vertex="1">
          <mxGeometry x="-270" y="78" width="45" height="78" as="geometry" />
        </mxCell>
        <mxCell id="wKhPFe4_oIhbJ5wP4PMM-15" value="" style="sketch=0;outlineConnect=0;fontColor=#000000;fillColor=#fa6800;strokeColor=#C73500;dashed=0;verticalLabelPosition=bottom;verticalAlign=top;align=center;html=1;fontSize=20;fontStyle=0;aspect=fixed;pointerEvents=1;shape=mxgraph.aws4.traditional_server;fontFamily=Comic Sans MS;" parent="1" vertex="1">
          <mxGeometry x="-370" y="178" width="45" height="78" as="geometry" />
        </mxCell>
        <mxCell id="wKhPFe4_oIhbJ5wP4PMM-16" value="" style="sketch=0;outlineConnect=0;fontColor=#ffffff;fillColor=#60a917;strokeColor=#2D7600;dashed=0;verticalLabelPosition=bottom;verticalAlign=top;align=center;html=1;fontSize=20;fontStyle=0;aspect=fixed;pointerEvents=1;shape=mxgraph.aws4.traditional_server;fontFamily=Comic Sans MS;" parent="1" vertex="1">
          <mxGeometry x="-320" y="178" width="45" height="78" as="geometry" />
        </mxCell>
        <mxCell id="wKhPFe4_oIhbJ5wP4PMM-17" value="" style="sketch=0;outlineConnect=0;fontColor=#ffffff;fillColor=#60a917;strokeColor=#2D7600;dashed=0;verticalLabelPosition=bottom;verticalAlign=top;align=center;html=1;fontSize=20;fontStyle=0;aspect=fixed;pointerEvents=1;shape=mxgraph.aws4.traditional_server;fontFamily=Comic Sans MS;" parent="1" vertex="1">
          <mxGeometry x="-270" y="178" width="45" height="78" as="geometry" />
        </mxCell>
        <mxCell id="wKhPFe4_oIhbJ5wP4PMM-18" value="" style="sketch=0;outlineConnect=0;fontColor=#ffffff;fillColor=#d80073;strokeColor=#A50040;dashed=0;verticalLabelPosition=bottom;verticalAlign=top;align=center;html=1;fontSize=20;fontStyle=0;aspect=fixed;pointerEvents=1;shape=mxgraph.aws4.traditional_server;fontFamily=Comic Sans MS;" parent="1" vertex="1">
          <mxGeometry x="-370" y="278" width="45" height="78" as="geometry" />
        </mxCell>
        <mxCell id="wKhPFe4_oIhbJ5wP4PMM-19" value="" style="sketch=0;outlineConnect=0;fontColor=#ffffff;fillColor=#1ba1e2;strokeColor=#006EAF;dashed=0;verticalLabelPosition=bottom;verticalAlign=top;align=center;html=1;fontSize=20;fontStyle=0;aspect=fixed;pointerEvents=1;shape=mxgraph.aws4.traditional_server;fontFamily=Comic Sans MS;" parent="1" vertex="1">
          <mxGeometry x="-320" y="278" width="45" height="78" as="geometry" />
        </mxCell>
        <mxCell id="wKhPFe4_oIhbJ5wP4PMM-20" value="" style="sketch=0;outlineConnect=0;fontColor=#232F3E;fillColor=#1ba1e2;strokeColor=#006EAF;dashed=0;verticalLabelPosition=bottom;verticalAlign=top;align=center;html=1;fontSize=20;fontStyle=0;aspect=fixed;pointerEvents=1;shape=mxgraph.aws4.traditional_server;fontFamily=Comic Sans MS;" parent="1" vertex="1">
          <mxGeometry x="-270" y="278" width="45" height="78" as="geometry" />
        </mxCell>
        <mxCell id="wKhPFe4_oIhbJ5wP4PMM-21" value="" style="rounded=0;whiteSpace=wrap;html=1;fillColor=#60a917;fontColor=#ffffff;strokeColor=#2D7600;fontFamily=Comic Sans MS;fontSize=20;" parent="1" vertex="1">
          <mxGeometry x="-560" y="8" width="30" height="20" as="geometry" />
        </mxCell>
        <mxCell id="wKhPFe4_oIhbJ5wP4PMM-22" value="x86" style="text;html=1;align=center;verticalAlign=middle;whiteSpace=wrap;rounded=0;fontFamily=Comic Sans MS;fontSize=20;" parent="1" vertex="1">
          <mxGeometry x="-540" y="3" width="60" height="30" as="geometry" />
        </mxCell>
        <mxCell id="wKhPFe4_oIhbJ5wP4PMM-23" value="" style="rounded=0;whiteSpace=wrap;html=1;fillColor=#1ba1e2;fontColor=#ffffff;strokeColor=#006EAF;fontFamily=Comic Sans MS;fontSize=20;" parent="1" vertex="1">
          <mxGeometry x="-560" y="39" width="30" height="20" as="geometry" />
        </mxCell>
        <mxCell id="wKhPFe4_oIhbJ5wP4PMM-24" value="ARM" style="text;html=1;align=center;verticalAlign=middle;whiteSpace=wrap;rounded=0;fontFamily=Comic Sans MS;fontSize=20;" parent="1" vertex="1">
          <mxGeometry x="-540" y="34" width="60" height="30" as="geometry" />
        </mxCell>
        <mxCell id="wKhPFe4_oIhbJ5wP4PMM-28" value="" style="rounded=0;whiteSpace=wrap;html=1;fillColor=#d80073;fontColor=#ffffff;strokeColor=#A50040;fontFamily=Comic Sans MS;fontSize=20;" parent="1" vertex="1">
          <mxGeometry x="-475" y="8" width="30" height="20" as="geometry" />
        </mxCell>
        <mxCell id="wKhPFe4_oIhbJ5wP4PMM-29" value="RISC-V" style="text;html=1;align=center;verticalAlign=middle;whiteSpace=wrap;rounded=0;fontFamily=Comic Sans MS;fontSize=20;" parent="1" vertex="1">
          <mxGeometry x="-445" y="3" width="75" height="30" as="geometry" />
        </mxCell>
        <mxCell id="wKhPFe4_oIhbJ5wP4PMM-30" value="" style="rounded=0;whiteSpace=wrap;html=1;fillColor=#fa6800;fontColor=#000000;strokeColor=#C73500;fontFamily=Comic Sans MS;fontSize=20;" parent="1" vertex="1">
          <mxGeometry x="-475" y="38" width="30" height="20" as="geometry" />
        </mxCell>
        <mxCell id="wKhPFe4_oIhbJ5wP4PMM-31" value="GPUs" style="text;html=1;align=center;verticalAlign=middle;whiteSpace=wrap;rounded=0;fontFamily=Comic Sans MS;fontSize=20;" parent="1" vertex="1">
          <mxGeometry x="-445" y="33" width="60" height="30" as="geometry" />
        </mxCell>
        <mxCell id="wKhPFe4_oIhbJ5wP4PMM-32" value="" style="rounded=0;whiteSpace=wrap;html=1;fillColor=none;strokeWidth=3.1496;dashed=1;fontFamily=Comic Sans MS;fontSize=20;" parent="1" vertex="1">
          <mxGeometry x="-543" y="78" width="150" height="80" as="geometry" />
        </mxCell>
        <mxCell id="wKhPFe4_oIhbJ5wP4PMM-33" value="" style="rounded=0;whiteSpace=wrap;html=1;fillColor=none;strokeWidth=3.1496;dashed=1;fontFamily=Comic Sans MS;fontSize=20;" parent="1" vertex="1">
          <mxGeometry x="-372.5" y="76" width="150" height="80" as="geometry" />
        </mxCell>
        <mxCell id="wKhPFe4_oIhbJ5wP4PMM-34" value="" style="rounded=0;whiteSpace=wrap;html=1;fillColor=none;strokeWidth=3.1496;dashed=1;fontFamily=Comic Sans MS;fontSize=20;" parent="1" vertex="1">
          <mxGeometry x="-545" y="176" width="155" height="80" as="geometry" />
        </mxCell>
        <mxCell id="wKhPFe4_oIhbJ5wP4PMM-35" value="" style="rounded=0;whiteSpace=wrap;html=1;fillColor=none;strokeWidth=3.1496;dashed=1;fontFamily=Comic Sans MS;fontSize=20;" parent="1" vertex="1">
          <mxGeometry x="-545" y="277" width="150" height="80" as="geometry" />
        </mxCell>
        <mxCell id="wKhPFe4_oIhbJ5wP4PMM-36" value="" style="rounded=0;whiteSpace=wrap;html=1;fillColor=none;strokeWidth=3.1496;dashed=1;fontFamily=Comic Sans MS;fontSize=20;" parent="1" vertex="1">
          <mxGeometry x="-372.5" y="177" width="150" height="181" as="geometry" />
        </mxCell>
        <mxCell id="wKhPFe4_oIhbJ5wP4PMM-37" value="Racks" style="text;html=1;align=center;verticalAlign=middle;whiteSpace=wrap;rounded=0;rotation=0;strokeColor=default;strokeWidth=3.1496;dashed=1;fontFamily=Comic Sans MS;fontSize=19;" parent="1" vertex="1">
          <mxGeometry x="-75" y="23.25" width="80" height="27.5" as="geometry" />
        </mxCell>
        <mxCell id="wKhPFe4_oIhbJ5wP4PMM-40" value="" style="outlineConnect=0;dashed=0;verticalLabelPosition=bottom;verticalAlign=top;align=center;html=1;shape=mxgraph.aws3.customer_gateway;fillColor=#e3c800;fontColor=#000000;strokeColor=#B09500;fontFamily=Comic Sans MS;fontSize=20;" parent="1" vertex="1">
          <mxGeometry x="-400" y="148" width="40" height="40" as="geometry" />
        </mxCell>
        <mxCell id="wKhPFe4_oIhbJ5wP4PMM-41" value="" style="outlineConnect=0;dashed=0;verticalLabelPosition=bottom;verticalAlign=top;align=center;html=1;shape=mxgraph.aws3.customer_gateway;fillColor=#e3c800;fontColor=#000000;strokeColor=#B09500;fontFamily=Comic Sans MS;fontSize=20;" parent="1" vertex="1">
          <mxGeometry x="-400" y="247.5" width="40" height="40" as="geometry" />
        </mxCell>
        <mxCell id="wKhPFe4_oIhbJ5wP4PMM-42" value="" style="outlineConnect=0;dashed=0;verticalLabelPosition=bottom;verticalAlign=top;align=center;html=1;shape=mxgraph.aws3.customer_gateway;fillColor=#e3c800;fontColor=#000000;strokeColor=#B09500;fontFamily=Comic Sans MS;fontSize=20;" parent="1" vertex="1">
          <mxGeometry x="30" y="17" width="40" height="40" as="geometry" />
        </mxCell>
        <mxCell id="wKhPFe4_oIhbJ5wP4PMM-43" value="Networks Switches Aggreators" style="text;html=1;align=center;verticalAlign=middle;whiteSpace=wrap;rounded=0;fontFamily=Comic Sans MS;fontSize=13;" parent="1" vertex="1">
          <mxGeometry x="75" y="15" width="80" height="44" as="geometry" />
        </mxCell>
        <mxCell id="wKhPFe4_oIhbJ5wP4PMM-44" value="" style="rounded=0;whiteSpace=wrap;html=1;fillColor=none;strokeWidth=3.1496;fontFamily=Comic Sans MS;fontSize=20;" parent="1" vertex="1">
          <mxGeometry x="180" y="61" width="210" height="60" as="geometry" />
        </mxCell>
        <mxCell id="wKhPFe4_oIhbJ5wP4PMM-45" value="" style="pointerEvents=1;shadow=0;dashed=0;html=1;strokeColor=#3700CC;fillColor=#6a00ff;labelPosition=center;verticalLabelPosition=bottom;verticalAlign=top;align=center;outlineConnect=0;shape=mxgraph.veeam.cpu;fontColor=#ffffff;fontFamily=Comic Sans MS;fontSize=20;" parent="1" vertex="1">
          <mxGeometry x="185.2" y="71" width="44.8" height="44.8" as="geometry" />
        </mxCell>
        <mxCell id="wKhPFe4_oIhbJ5wP4PMM-46" value="" style="pointerEvents=1;shadow=0;dashed=0;html=1;strokeColor=#3700CC;fillColor=#6a00ff;labelPosition=center;verticalLabelPosition=bottom;verticalAlign=top;align=center;outlineConnect=0;shape=mxgraph.veeam.ram;fontColor=#ffffff;fontFamily=Comic Sans MS;fontSize=20;" parent="1" vertex="1">
          <mxGeometry x="240" y="78.5" width="48.4" height="25.2" as="geometry" />
        </mxCell>
        <mxCell id="wKhPFe4_oIhbJ5wP4PMM-48" value="" style="sketch=0;pointerEvents=1;shadow=0;dashed=0;html=1;strokeColor=#3700CC;fillColor=#6a00ff;labelPosition=center;verticalLabelPosition=bottom;verticalAlign=top;outlineConnect=0;align=center;shape=mxgraph.office.concepts.bandwidth;fontColor=#ffffff;fontFamily=Comic Sans MS;fontSize=20;" parent="1" vertex="1">
          <mxGeometry x="300" y="78.5" width="30" height="27.5" as="geometry" />
        </mxCell>
        <mxCell id="wKhPFe4_oIhbJ5wP4PMM-50" value="" style="sketch=0;pointerEvents=1;shadow=0;dashed=0;html=1;strokeColor=#3700CC;fillColor=#6a00ff;labelPosition=center;verticalLabelPosition=bottom;verticalAlign=top;outlineConnect=0;align=center;shape=mxgraph.office.devices.hard_disk;fontColor=#ffffff;fontFamily=Comic Sans MS;fontSize=20;" parent="1" vertex="1">
          <mxGeometry x="350" y="73.75" width="30" height="37" as="geometry" />
        </mxCell>
        <mxCell id="wKhPFe4_oIhbJ5wP4PMM-51" value="General Purpose" style="text;html=1;align=center;verticalAlign=middle;whiteSpace=wrap;rounded=0;fontFamily=Comic Sans MS;fontSize=20;" parent="1" vertex="1">
          <mxGeometry x="180" y="32" width="210" height="30" as="geometry" />
        </mxCell>
        <mxCell id="wKhPFe4_oIhbJ5wP4PMM-52" value="" style="rounded=0;whiteSpace=wrap;html=1;fillColor=none;strokeWidth=3.1496;fontFamily=Comic Sans MS;fontSize=20;" parent="1" vertex="1">
          <mxGeometry x="180" y="147" width="210" height="60" as="geometry" />
        </mxCell>
        <mxCell id="wKhPFe4_oIhbJ5wP4PMM-53" value="" style="pointerEvents=1;shadow=0;dashed=0;html=1;strokeColor=#3700CC;fillColor=#6a00ff;labelPosition=center;verticalLabelPosition=bottom;verticalAlign=top;align=center;outlineConnect=0;shape=mxgraph.veeam.cpu;fontColor=#ffffff;fontFamily=Comic Sans MS;fontSize=20;" parent="1" vertex="1">
          <mxGeometry x="195.39999999999998" y="153" width="24.8" height="20.8" as="geometry" />
        </mxCell>
        <mxCell id="wKhPFe4_oIhbJ5wP4PMM-54" value="" style="pointerEvents=1;shadow=0;dashed=0;html=1;strokeColor=#3700CC;fillColor=#6a00ff;labelPosition=center;verticalLabelPosition=bottom;verticalAlign=top;align=center;outlineConnect=0;shape=mxgraph.veeam.ram;fontColor=#ffffff;fontFamily=Comic Sans MS;fontSize=20;" parent="1" vertex="1">
          <mxGeometry x="195.2" y="180.65" width="30" height="18.7" as="geometry" />
        </mxCell>
        <mxCell id="wKhPFe4_oIhbJ5wP4PMM-55" value="" style="sketch=0;pointerEvents=1;shadow=0;dashed=0;html=1;strokeColor=#3700CC;fillColor=#6a00ff;labelPosition=center;verticalLabelPosition=bottom;verticalAlign=top;outlineConnect=0;align=center;shape=mxgraph.office.concepts.bandwidth;fontColor=#ffffff;fontFamily=Comic Sans MS;fontSize=20;" parent="1" vertex="1">
          <mxGeometry x="230" y="161" width="30" height="27.5" as="geometry" />
        </mxCell>
        <mxCell id="wKhPFe4_oIhbJ5wP4PMM-56" value="" style="sketch=0;pointerEvents=1;shadow=0;dashed=0;html=1;strokeColor=#3700CC;fillColor=#6a00ff;labelPosition=center;verticalLabelPosition=bottom;verticalAlign=top;outlineConnect=0;align=center;shape=mxgraph.office.devices.hard_disk;fontColor=#ffffff;fontFamily=Comic Sans MS;fontSize=20;" parent="1" vertex="1">
          <mxGeometry x="350" y="159.75" width="30" height="37" as="geometry" />
        </mxCell>
        <mxCell id="wKhPFe4_oIhbJ5wP4PMM-57" value="Storage Purpose" style="text;html=1;align=center;verticalAlign=middle;whiteSpace=wrap;rounded=0;fontFamily=Comic Sans MS;fontSize=20;" parent="1" vertex="1">
          <mxGeometry x="180" y="118" width="210" height="30" as="geometry" />
        </mxCell>
        <mxCell id="wKhPFe4_oIhbJ5wP4PMM-58" value="" style="rounded=0;whiteSpace=wrap;html=1;fillColor=none;strokeWidth=3.1496;fontFamily=Comic Sans MS;fontSize=20;" parent="1" vertex="1">
          <mxGeometry x="180" y="233.5" width="210" height="60" as="geometry" />
        </mxCell>
        <mxCell id="wKhPFe4_oIhbJ5wP4PMM-59" value="" style="pointerEvents=1;shadow=0;dashed=0;html=1;strokeColor=#3700CC;fillColor=#6a00ff;labelPosition=center;verticalLabelPosition=bottom;verticalAlign=top;align=center;outlineConnect=0;shape=mxgraph.veeam.cpu;fontColor=#ffffff;fontFamily=Comic Sans MS;fontSize=20;" parent="1" vertex="1">
          <mxGeometry x="190.2" y="241.10000000000002" width="44.8" height="44.8" as="geometry" />
        </mxCell>
        <mxCell id="wKhPFe4_oIhbJ5wP4PMM-60" value="" style="pointerEvents=1;shadow=0;dashed=0;html=1;strokeColor=#3700CC;fillColor=#6a00ff;labelPosition=center;verticalLabelPosition=bottom;verticalAlign=top;align=center;outlineConnect=0;shape=mxgraph.veeam.ram;fontColor=#ffffff;fontFamily=Comic Sans MS;fontSize=20;" parent="1" vertex="1">
          <mxGeometry x="317.59999999999997" y="268.5" width="24.8" height="17" as="geometry" />
        </mxCell>
        <mxCell id="wKhPFe4_oIhbJ5wP4PMM-61" value="" style="sketch=0;pointerEvents=1;shadow=0;dashed=0;html=1;strokeColor=#3700CC;fillColor=#6a00ff;labelPosition=center;verticalLabelPosition=bottom;verticalAlign=top;outlineConnect=0;align=center;shape=mxgraph.office.concepts.bandwidth;fontColor=#ffffff;fontFamily=Comic Sans MS;fontSize=20;" parent="1" vertex="1">
          <mxGeometry x="320.00000000000006" y="243.5" width="20" height="20.5" as="geometry" />
        </mxCell>
        <mxCell id="wKhPFe4_oIhbJ5wP4PMM-62" value="" style="sketch=0;pointerEvents=1;shadow=0;dashed=0;html=1;strokeColor=#3700CC;fillColor=#6a00ff;labelPosition=center;verticalLabelPosition=bottom;verticalAlign=top;outlineConnect=0;align=center;shape=mxgraph.office.devices.hard_disk;fontColor=#ffffff;fontFamily=Comic Sans MS;fontSize=20;" parent="1" vertex="1">
          <mxGeometry x="350" y="246.25" width="30" height="37" as="geometry" />
        </mxCell>
        <mxCell id="wKhPFe4_oIhbJ5wP4PMM-63" value="HPC Purpose" style="text;html=1;align=center;verticalAlign=middle;whiteSpace=wrap;rounded=0;fontFamily=Comic Sans MS;fontSize=20;" parent="1" vertex="1">
          <mxGeometry x="180" y="204.5" width="210" height="30" as="geometry" />
        </mxCell>
        <mxCell id="wKhPFe4_oIhbJ5wP4PMM-64" value="" style="sketch=0;pointerEvents=1;shadow=0;dashed=0;html=1;strokeColor=#3700CC;fillColor=#6a00ff;labelPosition=center;verticalLabelPosition=bottom;verticalAlign=top;outlineConnect=0;align=center;shape=mxgraph.office.devices.hard_disk;fontColor=#ffffff;fontFamily=Comic Sans MS;fontSize=20;" parent="1" vertex="1">
          <mxGeometry x="315" y="159.75" width="30" height="37" as="geometry" />
        </mxCell>
        <mxCell id="wKhPFe4_oIhbJ5wP4PMM-65" value="" style="sketch=0;pointerEvents=1;shadow=0;dashed=0;html=1;strokeColor=#3700CC;fillColor=#6a00ff;labelPosition=center;verticalLabelPosition=bottom;verticalAlign=top;outlineConnect=0;align=center;shape=mxgraph.office.devices.hard_disk;fontColor=#ffffff;fontFamily=Comic Sans MS;fontSize=20;" parent="1" vertex="1">
          <mxGeometry x="279.2" y="159.75" width="30" height="37" as="geometry" />
        </mxCell>
        <mxCell id="wKhPFe4_oIhbJ5wP4PMM-67" value="" style="pointerEvents=1;shadow=0;dashed=0;html=1;strokeColor=#3700CC;fillColor=#6a00ff;labelPosition=center;verticalLabelPosition=bottom;verticalAlign=top;align=center;outlineConnect=0;shape=mxgraph.veeam.cpu;fontColor=#ffffff;fontFamily=Comic Sans MS;fontSize=20;" parent="1" vertex="1">
          <mxGeometry x="250" y="242.35000000000002" width="44.8" height="44.8" as="geometry" />
        </mxCell>
        <mxCell id="wKhPFe4_oIhbJ5wP4PMM-69" value="" style="rounded=0;whiteSpace=wrap;html=1;fillColor=none;strokeWidth=3.1496;fontFamily=Comic Sans MS;fontSize=20;" parent="1" vertex="1">
          <mxGeometry x="180" y="319.5" width="210" height="60" as="geometry" />
        </mxCell>
        <mxCell id="wKhPFe4_oIhbJ5wP4PMM-71" value="" style="pointerEvents=1;shadow=0;dashed=0;html=1;strokeColor=#3700CC;fillColor=#6a00ff;labelPosition=center;verticalLabelPosition=bottom;verticalAlign=top;align=center;outlineConnect=0;shape=mxgraph.veeam.ram;fontColor=#ffffff;fontFamily=Comic Sans MS;fontSize=20;" parent="1" vertex="1">
          <mxGeometry x="317.5999999999999" y="354.5" width="24.8" height="17" as="geometry" />
        </mxCell>
        <mxCell id="wKhPFe4_oIhbJ5wP4PMM-72" value="" style="sketch=0;pointerEvents=1;shadow=0;dashed=0;html=1;strokeColor=#3700CC;fillColor=#6a00ff;labelPosition=center;verticalLabelPosition=bottom;verticalAlign=top;outlineConnect=0;align=center;shape=mxgraph.office.concepts.bandwidth;fontColor=#ffffff;fontFamily=Comic Sans MS;fontSize=20;" parent="1" vertex="1">
          <mxGeometry x="320" y="329.5" width="20" height="20.5" as="geometry" />
        </mxCell>
        <mxCell id="wKhPFe4_oIhbJ5wP4PMM-73" value="" style="sketch=0;pointerEvents=1;shadow=0;dashed=0;html=1;strokeColor=#3700CC;fillColor=#6a00ff;labelPosition=center;verticalLabelPosition=bottom;verticalAlign=top;outlineConnect=0;align=center;shape=mxgraph.office.devices.hard_disk;fontColor=#ffffff;fontFamily=Comic Sans MS;fontSize=20;" parent="1" vertex="1">
          <mxGeometry x="350" y="332.25" width="30" height="37" as="geometry" />
        </mxCell>
        <mxCell id="wKhPFe4_oIhbJ5wP4PMM-74" value="AI Purpose" style="text;html=1;align=center;verticalAlign=middle;whiteSpace=wrap;rounded=0;fontFamily=Comic Sans MS;fontSize=20;" parent="1" vertex="1">
          <mxGeometry x="180" y="290.5" width="210" height="30" as="geometry" />
        </mxCell>
        <mxCell id="wKhPFe4_oIhbJ5wP4PMM-76" value="" style="editableCssRules=.*;html=1;shape=image;verticalLabelPosition=bottom;labelBackgroundColor=#ffffff;verticalAlign=top;aspect=fixed;imageAspect=0;image=data:image/svg+xml,PHN2ZyB4bWxucz0iaHR0cDovL3d3dy53My5vcmcvMjAwMC9zdmciIHhtbG5zOnY9Imh0dHBzOi8vdmVjdGEuaW8vbmFubyIgd2lkdGg9IjIwIiBoZWlnaHQ9IjIwIiB2aWV3Qm94PSIwIDAgMjAgMjAiPiYjeGE7CTxzdHlsZSB0eXBlPSJ0ZXh0L2NzcyI+LnN0MCB7IGZpbGw6IHJnYigxMDYsIDEsIDI1NSk7IH0gPC9zdHlsZT4mI3hhOwk8cGF0aCBjbGFzcz0ic3QwIiBkPSJNMTMuMzMgMHYyLjM4aC0yLjE2VjBIOC44M3YyLjM4SDYuNjdWMEg0LjI5djIuMzhhMiAyIDAgMCAwLTEuOTEgMS45MUgwdjIuMzhoMi4zOHYyLjE0SDB2Mi4zOGgyLjM4djIuMTRIMHYyLjM4aDIuMzhhMiAyIDAgMCAwIDEuOTEgMS45MVYyMGgyLjM4di0yLjM4aDIuMTZWMjBoMi4zNHYtMi4zOGgyLjE2VjIwaDIuMzh2LTIuMzhhMiAyIDAgMCAwIDEuOTEtMS45MUgyMHYtMi4zOGgtMi4zOHYtMi4xNEgyMFY4LjgxaC0yLjM4VjYuNjdIMjBWNC4yOWgtMi4zOGEyIDIgMCAwIDAtMS45MS0xLjkxVjB6bTEuNTMgMTUuMjRINS4xNGEuMzguMzggMCAwIDEtLjM4LS4zOFY1LjE0YS4zOC4zOCAwIDAgMSAuMzgtLjM4aDkuNzJhLjM4LjM4IDAgMCAxIC4zOC4zOHY5LjcyYS4zOC4zOCAwIDAgMS0uMzguMzh6bS0yLjA3LTYuMTJsLTMuNSA0Ljg2di0zLjYzSDcuMjJsMy42MS00LjgxdjMuNTh6Ii8+JiN4YTs8L3N2Zz4=;imageBackground=default;fontFamily=Comic Sans MS;fontSize=20;" parent="1" vertex="1">
          <mxGeometry x="244.14999999999998" y="329.5" width="44.25" height="44.25" as="geometry" />
        </mxCell>
        <mxCell id="wKhPFe4_oIhbJ5wP4PMM-78" value="" style="editableCssRules=.*;html=1;shape=image;verticalLabelPosition=bottom;labelBackgroundColor=#ffffff;verticalAlign=top;aspect=fixed;imageAspect=0;image=data:image/svg+xml,PHN2ZyB4bWxucz0iaHR0cDovL3d3dy53My5vcmcvMjAwMC9zdmciIHhtbG5zOnY9Imh0dHBzOi8vdmVjdGEuaW8vbmFubyIgd2lkdGg9IjIwIiBoZWlnaHQ9IjIwIiB2aWV3Qm94PSIwIDAgMjAgMjAiPiYjeGE7CTxzdHlsZSB0eXBlPSJ0ZXh0L2NzcyI+LnN0MCB7IGZpbGw6IHJnYigxMDYsIDEsIDI1NSk7IH0gPC9zdHlsZT4mI3hhOwk8cGF0aCBjbGFzcz0ic3QwIiBkPSJNMTMuMzMgMHYyLjM4aC0yLjE2VjBIOC44M3YyLjM4SDYuNjdWMEg0LjI5djIuMzhhMiAyIDAgMCAwLTEuOTEgMS45MUgwdjIuMzhoMi4zOHYyLjE0SDB2Mi4zOGgyLjM4djIuMTRIMHYyLjM4aDIuMzhhMiAyIDAgMCAwIDEuOTEgMS45MVYyMGgyLjM4di0yLjM4aDIuMTZWMjBoMi4zNHYtMi4zOGgyLjE2VjIwaDIuMzh2LTIuMzhhMiAyIDAgMCAwIDEuOTEtMS45MUgyMHYtMi4zOGgtMi4zOHYtMi4xNEgyMFY4LjgxaC0yLjM4VjYuNjdIMjBWNC4yOWgtMi4zOGEyIDIgMCAwIDAtMS45MS0xLjkxVjB6bTEuNTMgMTUuMjRINS4xNGEuMzguMzggMCAwIDEtLjM4LS4zOFY1LjE0YS4zOC4zOCAwIDAgMSAuMzgtLjM4aDkuNzJhLjM4LjM4IDAgMCAxIC4zOC4zOHY5LjcyYS4zOC4zOCAwIDAgMS0uMzguMzh6bS0yLjA3LTYuMTJsLTMuNSA0Ljg2di0zLjYzSDcuMjJsMy42MS00LjgxdjMuNTh6Ii8+JiN4YTs8L3N2Zz4=;imageBackground=default;fontFamily=Comic Sans MS;fontSize=20;" parent="1" vertex="1">
          <mxGeometry x="195.2" y="328.63" width="44.25" height="44.25" as="geometry" />
        </mxCell>
        <mxCell id="wKhPFe4_oIhbJ5wP4PMM-81" value="Cooling, Backup, UPS,..." style="text;html=1;align=center;verticalAlign=middle;whiteSpace=wrap;rounded=0;fontFamily=Comic Sans MS;fontSize=13;" parent="1" vertex="1">
          <mxGeometry x="155" width="245" height="35" as="geometry" />
        </mxCell>
        <mxCell id="wKhPFe4_oIhbJ5wP4PMM-82" value="" style="rounded=0;whiteSpace=wrap;html=1;fillColor=#e51400;fontColor=#ffffff;strokeColor=#B20000;fontFamily=Comic Sans MS;fontSize=20;" parent="1" vertex="1">
          <mxGeometry x="-360" y="8" width="30" height="20" as="geometry" />
        </mxCell>
        <mxCell id="wKhPFe4_oIhbJ5wP4PMM-83" value="TPUs" style="text;html=1;align=center;verticalAlign=middle;whiteSpace=wrap;rounded=0;fontFamily=Comic Sans MS;fontSize=20;" parent="1" vertex="1">
          <mxGeometry x="-330" y="3" width="60" height="30" as="geometry" />
        </mxCell>
        <mxCell id="wKhPFe4_oIhbJ5wP4PMM-84" value="" style="rounded=0;whiteSpace=wrap;html=1;fillColor=#f0a30a;fontColor=#000000;strokeColor=#BD7000;fontFamily=Comic Sans MS;fontSize=20;" parent="1" vertex="1">
          <mxGeometry x="-360" y="39" width="30" height="20" as="geometry" />
        </mxCell>
        <mxCell id="wKhPFe4_oIhbJ5wP4PMM-85" value="NPUs" style="text;html=1;align=center;verticalAlign=middle;whiteSpace=wrap;rounded=0;fontFamily=Comic Sans MS;fontSize=20;" parent="1" vertex="1">
          <mxGeometry x="-330" y="34" width="60" height="30" as="geometry" />
        </mxCell>
        <mxCell id="wKhPFe4_oIhbJ5wP4PMM-87" value="" style="rounded=0;whiteSpace=wrap;html=1;fillColor=#a0522d;fontColor=#ffffff;strokeColor=#6D1F00;fontFamily=Comic Sans MS;fontSize=20;" parent="1" vertex="1">
          <mxGeometry x="-260" y="10" width="30" height="20" as="geometry" />
        </mxCell>
        <mxCell id="wKhPFe4_oIhbJ5wP4PMM-88" value="Accelerators" style="text;html=1;align=center;verticalAlign=middle;whiteSpace=wrap;rounded=0;fontFamily=Comic Sans MS;fontSize=20;" parent="1" vertex="1">
          <mxGeometry x="-230" y="5" width="130" height="30" as="geometry" />
        </mxCell>
        <mxCell id="wKhPFe4_oIhbJ5wP4PMM-89" value="" style="sketch=0;outlineConnect=0;fontColor=#000000;fillColor=#fa6800;strokeColor=#C73500;dashed=0;verticalLabelPosition=bottom;verticalAlign=top;align=center;html=1;fontSize=20;fontStyle=0;aspect=fixed;pointerEvents=1;shape=mxgraph.aws4.traditional_server;fontFamily=Comic Sans MS;" parent="1" vertex="1">
          <mxGeometry x="-195" y="280.75" width="45" height="78" as="geometry" />
        </mxCell>
        <mxCell id="wKhPFe4_oIhbJ5wP4PMM-90" value="" style="sketch=0;outlineConnect=0;fontColor=#ffffff;fillColor=#60a917;strokeColor=#2D7600;dashed=0;verticalLabelPosition=bottom;verticalAlign=top;align=center;html=1;fontSize=20;fontStyle=0;aspect=fixed;pointerEvents=1;shape=mxgraph.aws4.traditional_server;fontFamily=Comic Sans MS;" parent="1" vertex="1">
          <mxGeometry x="-195" y="180.75" width="45" height="78" as="geometry" />
        </mxCell>
        <mxCell id="wKhPFe4_oIhbJ5wP4PMM-91" value="" style="sketch=0;outlineConnect=0;fontColor=#ffffff;fillColor=#e51400;strokeColor=#B20000;dashed=0;verticalLabelPosition=bottom;verticalAlign=top;align=center;html=1;fontSize=20;fontStyle=0;aspect=fixed;pointerEvents=1;shape=mxgraph.aws4.traditional_server;fontFamily=Comic Sans MS;" parent="1" vertex="1">
          <mxGeometry x="-145" y="280.75" width="45" height="78" as="geometry" />
        </mxCell>
        <mxCell id="wKhPFe4_oIhbJ5wP4PMM-92" value="" style="sketch=0;outlineConnect=0;fontColor=#ffffff;fillColor=#60a917;strokeColor=#2D7600;dashed=0;verticalLabelPosition=bottom;verticalAlign=top;align=center;html=1;fontSize=20;fontStyle=0;aspect=fixed;pointerEvents=1;shape=mxgraph.aws4.traditional_server;fontFamily=Comic Sans MS;" parent="1" vertex="1">
          <mxGeometry x="-145" y="180.75" width="45" height="78" as="geometry" />
        </mxCell>
        <mxCell id="wKhPFe4_oIhbJ5wP4PMM-93" value="" style="sketch=0;outlineConnect=0;fontColor=#000000;fillColor=#fa6800;strokeColor=#C73500;dashed=0;verticalLabelPosition=bottom;verticalAlign=top;align=center;html=1;fontSize=20;fontStyle=0;aspect=fixed;pointerEvents=1;shape=mxgraph.aws4.traditional_server;fontFamily=Comic Sans MS;" parent="1" vertex="1">
          <mxGeometry x="-95" y="180.75" width="45" height="78" as="geometry" />
        </mxCell>
        <mxCell id="wKhPFe4_oIhbJ5wP4PMM-94" value="" style="sketch=0;outlineConnect=0;fontColor=#ffffff;fillColor=#a0522d;strokeColor=#6D1F00;dashed=0;verticalLabelPosition=bottom;verticalAlign=top;align=center;html=1;fontSize=20;fontStyle=0;aspect=fixed;pointerEvents=1;shape=mxgraph.aws4.traditional_server;fontFamily=Comic Sans MS;" parent="1" vertex="1">
          <mxGeometry x="-95" y="280.75" width="45" height="78" as="geometry" />
        </mxCell>
        <mxCell id="wKhPFe4_oIhbJ5wP4PMM-95" value="" style="sketch=0;outlineConnect=0;fontColor=#000000;fillColor=#fa6800;strokeColor=#C73500;dashed=0;verticalLabelPosition=bottom;verticalAlign=top;align=center;html=1;fontSize=20;fontStyle=0;aspect=fixed;pointerEvents=1;shape=mxgraph.aws4.traditional_server;fontFamily=Comic Sans MS;" parent="1" vertex="1">
          <mxGeometry x="-195" y="80.75" width="45" height="78" as="geometry" />
        </mxCell>
        <mxCell id="wKhPFe4_oIhbJ5wP4PMM-96" value="" style="sketch=0;outlineConnect=0;fontColor=#000000;fillColor=#fa6800;strokeColor=#C73500;dashed=0;verticalLabelPosition=bottom;verticalAlign=top;align=center;html=1;fontSize=20;fontStyle=0;aspect=fixed;pointerEvents=1;shape=mxgraph.aws4.traditional_server;fontFamily=Comic Sans MS;" parent="1" vertex="1">
          <mxGeometry x="-145" y="80.75" width="45" height="78" as="geometry" />
        </mxCell>
        <mxCell id="wKhPFe4_oIhbJ5wP4PMM-97" value="" style="sketch=0;outlineConnect=0;fontColor=#000000;fillColor=#f0a30a;strokeColor=#BD7000;dashed=0;verticalLabelPosition=bottom;verticalAlign=top;align=center;html=1;fontSize=20;fontStyle=0;aspect=fixed;pointerEvents=1;shape=mxgraph.aws4.traditional_server;fontFamily=Comic Sans MS;" parent="1" vertex="1">
          <mxGeometry x="-95" y="80.75" width="45" height="78" as="geometry" />
        </mxCell>
        <mxCell id="wKhPFe4_oIhbJ5wP4PMM-98" value="" style="sketch=0;outlineConnect=0;fontColor=#ffffff;fillColor=#d80073;strokeColor=#A50040;dashed=0;verticalLabelPosition=bottom;verticalAlign=top;align=center;html=1;fontSize=20;fontStyle=0;aspect=fixed;pointerEvents=1;shape=mxgraph.aws4.traditional_server;fontFamily=Comic Sans MS;" parent="1" vertex="1">
          <mxGeometry x="-25" y="80.75" width="45" height="78" as="geometry" />
        </mxCell>
        <mxCell id="wKhPFe4_oIhbJ5wP4PMM-99" value="" style="sketch=0;outlineConnect=0;fontColor=#ffffff;fillColor=#d80073;strokeColor=#A50040;dashed=0;verticalLabelPosition=bottom;verticalAlign=top;align=center;html=1;fontSize=20;fontStyle=0;aspect=fixed;pointerEvents=1;shape=mxgraph.aws4.traditional_server;fontFamily=Comic Sans MS;" parent="1" vertex="1">
          <mxGeometry x="25" y="80.75" width="45" height="78" as="geometry" />
        </mxCell>
        <mxCell id="wKhPFe4_oIhbJ5wP4PMM-100" value="" style="sketch=0;outlineConnect=0;fontColor=#232F3E;fillColor=#1ba1e2;strokeColor=#006EAF;dashed=0;verticalLabelPosition=bottom;verticalAlign=top;align=center;html=1;fontSize=20;fontStyle=0;aspect=fixed;pointerEvents=1;shape=mxgraph.aws4.traditional_server;fontFamily=Comic Sans MS;" parent="1" vertex="1">
          <mxGeometry x="75" y="80.75" width="45" height="78" as="geometry" />
        </mxCell>
        <mxCell id="wKhPFe4_oIhbJ5wP4PMM-101" value="" style="sketch=0;outlineConnect=0;fontColor=#000000;fillColor=#fa6800;strokeColor=#C73500;dashed=0;verticalLabelPosition=bottom;verticalAlign=top;align=center;html=1;fontSize=20;fontStyle=0;aspect=fixed;pointerEvents=1;shape=mxgraph.aws4.traditional_server;fontFamily=Comic Sans MS;" parent="1" vertex="1">
          <mxGeometry x="-25" y="180.75" width="45" height="78" as="geometry" />
        </mxCell>
        <mxCell id="wKhPFe4_oIhbJ5wP4PMM-102" value="" style="sketch=0;outlineConnect=0;fontColor=#ffffff;fillColor=#60a917;strokeColor=#2D7600;dashed=0;verticalLabelPosition=bottom;verticalAlign=top;align=center;html=1;fontSize=20;fontStyle=0;aspect=fixed;pointerEvents=1;shape=mxgraph.aws4.traditional_server;fontFamily=Comic Sans MS;" parent="1" vertex="1">
          <mxGeometry x="25" y="180.75" width="45" height="78" as="geometry" />
        </mxCell>
        <mxCell id="wKhPFe4_oIhbJ5wP4PMM-103" value="" style="sketch=0;outlineConnect=0;fontColor=#ffffff;fillColor=#60a917;strokeColor=#2D7600;dashed=0;verticalLabelPosition=bottom;verticalAlign=top;align=center;html=1;fontSize=20;fontStyle=0;aspect=fixed;pointerEvents=1;shape=mxgraph.aws4.traditional_server;fontFamily=Comic Sans MS;" parent="1" vertex="1">
          <mxGeometry x="75" y="180.75" width="45" height="78" as="geometry" />
        </mxCell>
        <mxCell id="wKhPFe4_oIhbJ5wP4PMM-104" value="" style="sketch=0;outlineConnect=0;fontColor=#ffffff;fillColor=#d80073;strokeColor=#A50040;dashed=0;verticalLabelPosition=bottom;verticalAlign=top;align=center;html=1;fontSize=20;fontStyle=0;aspect=fixed;pointerEvents=1;shape=mxgraph.aws4.traditional_server;fontFamily=Comic Sans MS;" parent="1" vertex="1">
          <mxGeometry x="-25" y="280.75" width="45" height="78" as="geometry" />
        </mxCell>
        <mxCell id="wKhPFe4_oIhbJ5wP4PMM-105" value="" style="sketch=0;outlineConnect=0;fontColor=#ffffff;fillColor=#1ba1e2;strokeColor=#006EAF;dashed=0;verticalLabelPosition=bottom;verticalAlign=top;align=center;html=1;fontSize=20;fontStyle=0;aspect=fixed;pointerEvents=1;shape=mxgraph.aws4.traditional_server;fontFamily=Comic Sans MS;" parent="1" vertex="1">
          <mxGeometry x="25" y="280.75" width="45" height="78" as="geometry" />
        </mxCell>
        <mxCell id="wKhPFe4_oIhbJ5wP4PMM-106" value="" style="sketch=0;outlineConnect=0;fontColor=#232F3E;fillColor=#1ba1e2;strokeColor=#006EAF;dashed=0;verticalLabelPosition=bottom;verticalAlign=top;align=center;html=1;fontSize=20;fontStyle=0;aspect=fixed;pointerEvents=1;shape=mxgraph.aws4.traditional_server;fontFamily=Comic Sans MS;" parent="1" vertex="1">
          <mxGeometry x="75" y="280.75" width="45" height="78" as="geometry" />
        </mxCell>
        <mxCell id="wKhPFe4_oIhbJ5wP4PMM-108" value="" style="rounded=0;whiteSpace=wrap;html=1;fillColor=none;strokeWidth=3.1496;dashed=1;fontFamily=Comic Sans MS;fontSize=20;" parent="1" vertex="1">
          <mxGeometry x="-27.5" y="78.75" width="150" height="181.25" as="geometry" />
        </mxCell>
        <mxCell id="wKhPFe4_oIhbJ5wP4PMM-109" value="" style="rounded=0;whiteSpace=wrap;html=1;fillColor=none;strokeWidth=3.1496;dashed=1;fontFamily=Comic Sans MS;fontSize=20;" parent="1" vertex="1">
          <mxGeometry x="-200" y="178.75" width="155" height="80" as="geometry" />
        </mxCell>
        <mxCell id="wKhPFe4_oIhbJ5wP4PMM-112" value="" style="outlineConnect=0;dashed=0;verticalLabelPosition=bottom;verticalAlign=top;align=center;html=1;shape=mxgraph.aws3.customer_gateway;fillColor=#e3c800;fontColor=#000000;strokeColor=#B09500;fontFamily=Comic Sans MS;fontSize=20;" parent="1" vertex="1">
          <mxGeometry x="-55" y="150.75" width="40" height="40" as="geometry" />
        </mxCell>
        <mxCell id="wKhPFe4_oIhbJ5wP4PMM-113" value="" style="outlineConnect=0;dashed=0;verticalLabelPosition=bottom;verticalAlign=top;align=center;html=1;shape=mxgraph.aws3.customer_gateway;fillColor=#e3c800;fontColor=#000000;strokeColor=#B09500;fontFamily=Comic Sans MS;fontSize=20;" parent="1" vertex="1">
          <mxGeometry x="-230" y="247.35" width="40" height="40" as="geometry" />
        </mxCell>
        <mxCell id="wKhPFe4_oIhbJ5wP4PMM-114" value="" style="outlineConnect=0;dashed=0;verticalLabelPosition=bottom;verticalAlign=top;align=center;html=1;shape=mxgraph.aws3.customer_gateway;fillColor=#e3c800;fontColor=#000000;strokeColor=#B09500;fontFamily=Comic Sans MS;fontSize=20;" parent="1" vertex="1">
          <mxGeometry x="-230" y="150.75" width="40" height="40" as="geometry" />
        </mxCell>
        <mxCell id="wKhPFe4_oIhbJ5wP4PMM-116" value="" style="outlineConnect=0;dashed=0;verticalLabelPosition=bottom;verticalAlign=top;align=center;html=1;shape=mxgraph.aws3.customer_gateway;fillColor=#e3c800;fontColor=#000000;strokeColor=#B09500;fontFamily=Comic Sans MS;fontSize=20;" parent="1" vertex="1">
          <mxGeometry x="-55" y="247.5" width="40" height="40" as="geometry" />
        </mxCell>
      </root>
    </mxGraphModel>
  </diagram>
  <diagram name="pizza" id="fw5YkExZQTPA95R4kdat">
    <mxGraphModel dx="2014" dy="446" grid="1" gridSize="10" guides="1" tooltips="1" connect="1" arrows="1" fold="1" page="1" pageScale="1" pageWidth="594" pageHeight="394" math="0" shadow="0">
      <root>
        <mxCell id="6gGDlTAi96UEFb4FjRDD-0" />
        <mxCell id="6gGDlTAi96UEFb4FjRDD-1" parent="6gGDlTAi96UEFb4FjRDD-0" />
        <mxCell id="3aXlDtlmfMutlppy5jbe-1" value="Take the pizza in the restaurant" style="rounded=0;whiteSpace=wrap;html=1;fontFamily=Comic Sans MS;fontSize=20;fillColor=#e51400;fontColor=#ffffff;strokeColor=#B20000;" vertex="1" parent="6gGDlTAi96UEFb4FjRDD-1">
          <mxGeometry x="-560" y="470" width="320" height="60" as="geometry" />
        </mxCell>
        <mxCell id="3aXlDtlmfMutlppy5jbe-2" value="Pizza delivery" style="rounded=0;whiteSpace=wrap;html=1;fontFamily=Comic Sans MS;fontSize=20;fillColor=#fa6800;fontColor=#000000;strokeColor=#C73500;" vertex="1" parent="6gGDlTAi96UEFb4FjRDD-1">
          <mxGeometry x="-210" y="470" width="215" height="60" as="geometry" />
        </mxCell>
        <mxCell id="3aXlDtlmfMutlppy5jbe-3" value="Take and Bake the Pizza" style="rounded=0;whiteSpace=wrap;html=1;fontFamily=Comic Sans MS;fontSize=20;fillColor=#f0a30a;fontColor=#000000;strokeColor=#BD7000;" vertex="1" parent="6gGDlTAi96UEFb4FjRDD-1">
          <mxGeometry x="20" y="470" width="280" height="60" as="geometry" />
        </mxCell>
        <mxCell id="3aXlDtlmfMutlppy5jbe-4" value="Make the Pizza at home" style="rounded=0;whiteSpace=wrap;html=1;fontFamily=Comic Sans MS;fontSize=20;fillColor=#e3c800;fontColor=#000000;strokeColor=#B09500;" vertex="1" parent="6gGDlTAi96UEFb4FjRDD-1">
          <mxGeometry x="310" y="470" width="240" height="60" as="geometry" />
        </mxCell>
        <mxCell id="3aXlDtlmfMutlppy5jbe-5" value="&lt;span style=&quot;color: rgb(0, 0, 0); font-family: &amp;quot;Comic Sans MS&amp;quot;; font-size: 20px; font-style: normal; font-variant-ligatures: normal; font-variant-caps: normal; font-weight: 400; letter-spacing: normal; orphans: 2; text-indent: 0px; text-transform: none; widows: 2; word-spacing: 0px; -webkit-text-stroke-width: 0px; white-space: normal; background-color: rgb(251, 251, 251); text-decoration-thickness: initial; text-decoration-style: initial; text-decoration-color: initial; float: none; display: inline !important;&quot;&gt;ON PREMISES&lt;/span&gt;" style="text;whiteSpace=wrap;html=1;align=center;" vertex="1" parent="6gGDlTAi96UEFb4FjRDD-1">
          <mxGeometry x="310" y="430" width="240" height="40" as="geometry" />
        </mxCell>
        <mxCell id="3aXlDtlmfMutlppy5jbe-7" value="&lt;span style=&quot;color: rgb(0, 0, 0); font-family: &amp;quot;Comic Sans MS&amp;quot;; font-size: 20px; font-style: normal; font-variant-ligatures: normal; font-variant-caps: normal; font-weight: 400; letter-spacing: normal; orphans: 2; text-indent: 0px; text-transform: none; widows: 2; word-spacing: 0px; -webkit-text-stroke-width: 0px; white-space: normal; background-color: rgb(251, 251, 251); text-decoration-thickness: initial; text-decoration-style: initial; text-decoration-color: initial; float: none; display: inline !important;&quot;&gt;Software as a Service&lt;/span&gt;" style="text;whiteSpace=wrap;html=1;align=center;" vertex="1" parent="6gGDlTAi96UEFb4FjRDD-1">
          <mxGeometry x="-580" y="430" width="350" height="40" as="geometry" />
        </mxCell>
        <mxCell id="3aXlDtlmfMutlppy5jbe-8" value="&lt;span style=&quot;color: rgb(0, 0, 0); font-family: &amp;quot;Comic Sans MS&amp;quot;; font-size: 20px; font-style: normal; font-variant-ligatures: normal; font-variant-caps: normal; font-weight: 400; letter-spacing: normal; orphans: 2; text-indent: 0px; text-transform: none; widows: 2; word-spacing: 0px; -webkit-text-stroke-width: 0px; white-space: normal; background-color: rgb(251, 251, 251); text-decoration-thickness: initial; text-decoration-style: initial; text-decoration-color: initial; float: none; display: inline !important;&quot;&gt;Platform as a Service&lt;/span&gt;" style="text;whiteSpace=wrap;html=1;align=center;" vertex="1" parent="6gGDlTAi96UEFb4FjRDD-1">
          <mxGeometry x="-210" y="430" width="215" height="40" as="geometry" />
        </mxCell>
        <mxCell id="3aXlDtlmfMutlppy5jbe-9" value="&lt;span style=&quot;color: rgb(0, 0, 0); font-family: &amp;quot;Comic Sans MS&amp;quot;; font-size: 20px; font-style: normal; font-variant-ligatures: normal; font-variant-caps: normal; font-weight: 400; letter-spacing: normal; orphans: 2; text-indent: 0px; text-transform: none; widows: 2; word-spacing: 0px; -webkit-text-stroke-width: 0px; white-space: normal; background-color: rgb(251, 251, 251); text-decoration-thickness: initial; text-decoration-style: initial; text-decoration-color: initial; float: none; display: inline !important;&quot;&gt;Infrastructure as a Service&lt;/span&gt;" style="text;whiteSpace=wrap;html=1;align=center;" vertex="1" parent="6gGDlTAi96UEFb4FjRDD-1">
          <mxGeometry x="20" y="430" width="280" height="40" as="geometry" />
        </mxCell>
      </root>
    </mxGraphModel>
  </diagram>
  <diagram id="iO065ou7ke2SBnNPBwyq" name="gpu_parallelism">
    <mxGraphModel dx="1012" dy="729" grid="1" gridSize="10" guides="1" tooltips="1" connect="1" arrows="1" fold="1" page="1" pageScale="1" pageWidth="594" pageHeight="394" math="0" shadow="0">
      <root>
        <mxCell id="0" />
        <mxCell id="1" parent="0" />
        <mxCell id="eHuPorcQUrtKR36Gp4NA-1" value="" style="sketch=0;outlineConnect=0;fontColor=#ffffff;fillColor=#008a00;strokeColor=#005700;dashed=0;verticalLabelPosition=bottom;verticalAlign=top;align=center;html=1;fontSize=21;fontStyle=0;aspect=fixed;pointerEvents=1;shape=mxgraph.aws4.sagemaker_model;fontFamily=Comic Sans MS;" parent="1" vertex="1">
          <mxGeometry x="70" y="80" width="70" height="70" as="geometry" />
        </mxCell>
        <mxCell id="eHuPorcQUrtKR36Gp4NA-2" value="" style="sketch=0;outlineConnect=0;fontColor=#ffffff;fillColor=#008a00;strokeColor=#005700;dashed=0;verticalLabelPosition=bottom;verticalAlign=top;align=center;html=1;fontSize=21;fontStyle=0;aspect=fixed;pointerEvents=1;shape=mxgraph.aws4.sagemaker_model;fontFamily=Comic Sans MS;" parent="1" vertex="1">
          <mxGeometry x="150" y="80" width="70" height="70" as="geometry" />
        </mxCell>
        <mxCell id="eHuPorcQUrtKR36Gp4NA-3" value="" style="sketch=0;outlineConnect=0;fontColor=#ffffff;fillColor=#008a00;strokeColor=#005700;dashed=0;verticalLabelPosition=bottom;verticalAlign=top;align=center;html=1;fontSize=21;fontStyle=0;aspect=fixed;pointerEvents=1;shape=mxgraph.aws4.sagemaker_model;fontFamily=Comic Sans MS;" parent="1" vertex="1">
          <mxGeometry x="230" y="80" width="70" height="70" as="geometry" />
        </mxCell>
        <mxCell id="eHuPorcQUrtKR36Gp4NA-14" value="" style="shape=cylinder3;whiteSpace=wrap;html=1;boundedLbl=1;backgroundOutline=1;size=15;fillColor=#60a917;fontColor=#ffffff;strokeColor=#2D7600;fontSize=21;fontFamily=Comic Sans MS;" parent="1" vertex="1">
          <mxGeometry x="80" y="175" width="50" height="44" as="geometry" />
        </mxCell>
        <mxCell id="eHuPorcQUrtKR36Gp4NA-15" value="" style="shape=cylinder3;whiteSpace=wrap;html=1;boundedLbl=1;backgroundOutline=1;size=15;fillColor=#d80073;fontColor=#ffffff;strokeColor=#A50040;fontSize=21;fontFamily=Comic Sans MS;" parent="1" vertex="1">
          <mxGeometry x="160" y="214" width="50" height="44" as="geometry" />
        </mxCell>
        <mxCell id="eHuPorcQUrtKR36Gp4NA-16" value="" style="shape=cylinder3;whiteSpace=wrap;html=1;boundedLbl=1;backgroundOutline=1;size=15;fillColor=#6a00ff;fontColor=#ffffff;strokeColor=#3700CC;fontSize=21;fontFamily=Comic Sans MS;" parent="1" vertex="1">
          <mxGeometry x="240" y="248" width="50" height="44" as="geometry" />
        </mxCell>
        <mxCell id="eHuPorcQUrtKR36Gp4NA-17" value="" style="editableCssRules=.*;html=1;shape=image;verticalLabelPosition=bottom;labelBackgroundColor=#ffffff;verticalAlign=top;aspect=fixed;imageAspect=0;image=data:image/svg+xml,PHN2ZyB4bWxucz0iaHR0cDovL3d3dy53My5vcmcvMjAwMC9zdmciIHhtbG5zOnY9Imh0dHBzOi8vdmVjdGEuaW8vbmFubyIgd2lkdGg9IjIwIiBoZWlnaHQ9IjIwIiB2aWV3Qm94PSIwIDAgMjAgMjAiPiYjeGE7CTxzdHlsZSB0eXBlPSJ0ZXh0L2NzcyI+JiN4YTsJLnN0MHtmaWxsOiM0Mjg1ZjQ7fSYjeGE7CTwvc3R5bGU+JiN4YTsJPHBhdGggY2xhc3M9InN0MCIgZD0iTTEzLjMzIDB2Mi4zOGgtMi4xNlYwSDguODN2Mi4zOEg2LjY3VjBINC4yOXYyLjM4YTIgMiAwIDAgMC0xLjkxIDEuOTFIMHYyLjM4aDIuMzh2Mi4xNEgwdjIuMzhoMi4zOHYyLjE0SDB2Mi4zOGgyLjM4YTIgMiAwIDAgMCAxLjkxIDEuOTFWMjBoMi4zOHYtMi4zOGgyLjE2VjIwaDIuMzR2LTIuMzhoMi4xNlYyMGgyLjM4di0yLjM4YTIgMiAwIDAgMCAxLjkxLTEuOTFIMjB2LTIuMzhoLTIuMzh2LTIuMTRIMjBWOC44MWgtMi4zOFY2LjY3SDIwVjQuMjloLTIuMzhhMiAyIDAgMCAwLTEuOTEtMS45MVYwem0xLjUzIDE1LjI0SDUuMTRhLjM4LjM4IDAgMCAxLS4zOC0uMzhWNS4xNGEuMzguMzggMCAwIDEgLjM4LS4zOGg5LjcyYS4zOC4zOCAwIDAgMSAuMzguMzh2OS43MmEuMzguMzggMCAwIDEtLjM4LjM4em0tMi4wNy02LjEybC0zLjUgNC44NnYtMy42M0g3LjIybDMuNjEtNC44MXYzLjU4eiIvPiYjeGE7PC9zdmc+;fontSize=21;fontFamily=Comic Sans MS;" parent="1" vertex="1">
          <mxGeometry x="75" y="310" width="60" height="60" as="geometry" />
        </mxCell>
        <mxCell id="eHuPorcQUrtKR36Gp4NA-18" value="" style="editableCssRules=.*;html=1;shape=image;verticalLabelPosition=bottom;labelBackgroundColor=#ffffff;verticalAlign=top;aspect=fixed;imageAspect=0;image=data:image/svg+xml,PHN2ZyB4bWxucz0iaHR0cDovL3d3dy53My5vcmcvMjAwMC9zdmciIHhtbG5zOnY9Imh0dHBzOi8vdmVjdGEuaW8vbmFubyIgd2lkdGg9IjIwIiBoZWlnaHQ9IjIwIiB2aWV3Qm94PSIwIDAgMjAgMjAiPiYjeGE7CTxzdHlsZSB0eXBlPSJ0ZXh0L2NzcyI+JiN4YTsJLnN0MHtmaWxsOiM0Mjg1ZjQ7fSYjeGE7CTwvc3R5bGU+JiN4YTsJPHBhdGggY2xhc3M9InN0MCIgZD0iTTEzLjMzIDB2Mi4zOGgtMi4xNlYwSDguODN2Mi4zOEg2LjY3VjBINC4yOXYyLjM4YTIgMiAwIDAgMC0xLjkxIDEuOTFIMHYyLjM4aDIuMzh2Mi4xNEgwdjIuMzhoMi4zOHYyLjE0SDB2Mi4zOGgyLjM4YTIgMiAwIDAgMCAxLjkxIDEuOTFWMjBoMi4zOHYtMi4zOGgyLjE2VjIwaDIuMzR2LTIuMzhoMi4xNlYyMGgyLjM4di0yLjM4YTIgMiAwIDAgMCAxLjkxLTEuOTFIMjB2LTIuMzhoLTIuMzh2LTIuMTRIMjBWOC44MWgtMi4zOFY2LjY3SDIwVjQuMjloLTIuMzhhMiAyIDAgMCAwLTEuOTEtMS45MVYwem0xLjUzIDE1LjI0SDUuMTRhLjM4LjM4IDAgMCAxLS4zOC0uMzhWNS4xNGEuMzguMzggMCAwIDEgLjM4LS4zOGg5LjcyYS4zOC4zOCAwIDAgMSAuMzguMzh2OS43MmEuMzguMzggMCAwIDEtLjM4LjM4em0tMi4wNy02LjEybC0zLjUgNC44NnYtMy42M0g3LjIybDMuNjEtNC44MXYzLjU4eiIvPiYjeGE7PC9zdmc+;fontSize=21;fontFamily=Comic Sans MS;" parent="1" vertex="1">
          <mxGeometry x="155" y="310" width="60" height="60" as="geometry" />
        </mxCell>
        <mxCell id="eHuPorcQUrtKR36Gp4NA-19" value="" style="editableCssRules=.*;html=1;shape=image;verticalLabelPosition=bottom;labelBackgroundColor=#ffffff;verticalAlign=top;aspect=fixed;imageAspect=0;image=data:image/svg+xml,PHN2ZyB4bWxucz0iaHR0cDovL3d3dy53My5vcmcvMjAwMC9zdmciIHhtbG5zOnY9Imh0dHBzOi8vdmVjdGEuaW8vbmFubyIgd2lkdGg9IjIwIiBoZWlnaHQ9IjIwIiB2aWV3Qm94PSIwIDAgMjAgMjAiPiYjeGE7CTxzdHlsZSB0eXBlPSJ0ZXh0L2NzcyI+JiN4YTsJLnN0MHtmaWxsOiM0Mjg1ZjQ7fSYjeGE7CTwvc3R5bGU+JiN4YTsJPHBhdGggY2xhc3M9InN0MCIgZD0iTTEzLjMzIDB2Mi4zOGgtMi4xNlYwSDguODN2Mi4zOEg2LjY3VjBINC4yOXYyLjM4YTIgMiAwIDAgMC0xLjkxIDEuOTFIMHYyLjM4aDIuMzh2Mi4xNEgwdjIuMzhoMi4zOHYyLjE0SDB2Mi4zOGgyLjM4YTIgMiAwIDAgMCAxLjkxIDEuOTFWMjBoMi4zOHYtMi4zOGgyLjE2VjIwaDIuMzR2LTIuMzhoMi4xNlYyMGgyLjM4di0yLjM4YTIgMiAwIDAgMCAxLjkxLTEuOTFIMjB2LTIuMzhoLTIuMzh2LTIuMTRIMjBWOC44MWgtMi4zOFY2LjY3SDIwVjQuMjloLTIuMzhhMiAyIDAgMCAwLTEuOTEtMS45MVYwem0xLjUzIDE1LjI0SDUuMTRhLjM4LjM4IDAgMCAxLS4zOC0uMzhWNS4xNGEuMzguMzggMCAwIDEgLjM4LS4zOGg5LjcyYS4zOC4zOCAwIDAgMSAuMzguMzh2OS43MmEuMzguMzggMCAwIDEtLjM4LjM4em0tMi4wNy02LjEybC0zLjUgNC44NnYtMy42M0g3LjIybDMuNjEtNC44MXYzLjU4eiIvPiYjeGE7PC9zdmc+;fontSize=21;fontFamily=Comic Sans MS;" parent="1" vertex="1">
          <mxGeometry x="235" y="310" width="60" height="60" as="geometry" />
        </mxCell>
        <mxCell id="eHuPorcQUrtKR36Gp4NA-20" value="Model" style="text;html=1;align=center;verticalAlign=middle;whiteSpace=wrap;rounded=0;rotation=-90;fontSize=21;fontFamily=Comic Sans MS;" parent="1" vertex="1">
          <mxGeometry x="-10" y="100" width="100" height="30" as="geometry" />
        </mxCell>
        <mxCell id="eHuPorcQUrtKR36Gp4NA-21" value="Dataset" style="text;html=1;align=center;verticalAlign=middle;whiteSpace=wrap;rounded=0;rotation=-90;fontSize=21;fontFamily=Comic Sans MS;" parent="1" vertex="1">
          <mxGeometry x="-27.5" y="215.5" width="135" height="30" as="geometry" />
        </mxCell>
        <mxCell id="eHuPorcQUrtKR36Gp4NA-22" style="edgeStyle=orthogonalEdgeStyle;rounded=0;orthogonalLoop=1;jettySize=auto;html=1;entryX=0.5;entryY=0;entryDx=0;entryDy=0;entryPerimeter=0;fontSize=21;fontFamily=Comic Sans MS;" parent="1" source="eHuPorcQUrtKR36Gp4NA-1" target="eHuPorcQUrtKR36Gp4NA-14" edge="1">
          <mxGeometry relative="1" as="geometry" />
        </mxCell>
        <mxCell id="eHuPorcQUrtKR36Gp4NA-24" style="edgeStyle=orthogonalEdgeStyle;rounded=0;orthogonalLoop=1;jettySize=auto;html=1;entryX=0.5;entryY=0;entryDx=0;entryDy=0;entryPerimeter=0;fontSize=21;fontFamily=Comic Sans MS;" parent="1" source="eHuPorcQUrtKR36Gp4NA-3" target="eHuPorcQUrtKR36Gp4NA-16" edge="1">
          <mxGeometry relative="1" as="geometry" />
        </mxCell>
        <mxCell id="eHuPorcQUrtKR36Gp4NA-25" style="edgeStyle=orthogonalEdgeStyle;rounded=0;orthogonalLoop=1;jettySize=auto;html=1;entryX=0.5;entryY=0;entryDx=0;entryDy=0;entryPerimeter=0;fontSize=21;fontFamily=Comic Sans MS;" parent="1" source="eHuPorcQUrtKR36Gp4NA-2" target="eHuPorcQUrtKR36Gp4NA-15" edge="1">
          <mxGeometry relative="1" as="geometry" />
        </mxCell>
        <mxCell id="eHuPorcQUrtKR36Gp4NA-29" value="" style="group;fontSize=21;fontFamily=Comic Sans MS;" parent="1" vertex="1" connectable="0">
          <mxGeometry x="370" y="180" width="50" height="69" as="geometry" />
        </mxCell>
        <mxCell id="eHuPorcQUrtKR36Gp4NA-28" value="" style="shape=cylinder3;whiteSpace=wrap;html=1;boundedLbl=1;backgroundOutline=1;size=15;fillColor=#6a00ff;fontColor=#ffffff;strokeColor=#3700CC;fontSize=21;fontFamily=Comic Sans MS;" parent="eHuPorcQUrtKR36Gp4NA-29" vertex="1">
          <mxGeometry y="25" width="50" height="44" as="geometry" />
        </mxCell>
        <mxCell id="eHuPorcQUrtKR36Gp4NA-27" value="" style="shape=cylinder3;whiteSpace=wrap;html=1;boundedLbl=1;backgroundOutline=1;size=15;fillColor=#d80073;fontColor=#ffffff;strokeColor=#A50040;fontSize=21;fontFamily=Comic Sans MS;" parent="eHuPorcQUrtKR36Gp4NA-29" vertex="1">
          <mxGeometry y="11.5" width="50" height="44" as="geometry" />
        </mxCell>
        <mxCell id="eHuPorcQUrtKR36Gp4NA-26" value="" style="shape=cylinder3;whiteSpace=wrap;html=1;boundedLbl=1;backgroundOutline=1;size=15;fillColor=#60a917;fontColor=#ffffff;strokeColor=#2D7600;fontSize=21;fontFamily=Comic Sans MS;" parent="eHuPorcQUrtKR36Gp4NA-29" vertex="1">
          <mxGeometry width="50" height="44" as="geometry" />
        </mxCell>
        <mxCell id="eHuPorcQUrtKR36Gp4NA-30" value="" style="group;fontSize=21;fontFamily=Comic Sans MS;" parent="1" vertex="1" connectable="0">
          <mxGeometry x="440" y="180" width="50" height="69" as="geometry" />
        </mxCell>
        <mxCell id="eHuPorcQUrtKR36Gp4NA-31" value="" style="shape=cylinder3;whiteSpace=wrap;html=1;boundedLbl=1;backgroundOutline=1;size=15;fillColor=#6a00ff;fontColor=#ffffff;strokeColor=#3700CC;fontSize=21;fontFamily=Comic Sans MS;" parent="eHuPorcQUrtKR36Gp4NA-30" vertex="1">
          <mxGeometry y="25" width="50" height="44" as="geometry" />
        </mxCell>
        <mxCell id="eHuPorcQUrtKR36Gp4NA-32" value="" style="shape=cylinder3;whiteSpace=wrap;html=1;boundedLbl=1;backgroundOutline=1;size=15;fillColor=#d80073;fontColor=#ffffff;strokeColor=#A50040;fontSize=21;fontFamily=Comic Sans MS;" parent="eHuPorcQUrtKR36Gp4NA-30" vertex="1">
          <mxGeometry y="11.5" width="50" height="44" as="geometry" />
        </mxCell>
        <mxCell id="eHuPorcQUrtKR36Gp4NA-33" value="" style="shape=cylinder3;whiteSpace=wrap;html=1;boundedLbl=1;backgroundOutline=1;size=15;fillColor=#60a917;fontColor=#ffffff;strokeColor=#2D7600;fontSize=21;fontFamily=Comic Sans MS;" parent="eHuPorcQUrtKR36Gp4NA-30" vertex="1">
          <mxGeometry width="50" height="44" as="geometry" />
        </mxCell>
        <mxCell id="eHuPorcQUrtKR36Gp4NA-34" value="" style="group;fontSize=21;fontFamily=Comic Sans MS;" parent="1" vertex="1" connectable="0">
          <mxGeometry x="510" y="180" width="50" height="69" as="geometry" />
        </mxCell>
        <mxCell id="eHuPorcQUrtKR36Gp4NA-35" value="" style="shape=cylinder3;whiteSpace=wrap;html=1;boundedLbl=1;backgroundOutline=1;size=15;fillColor=#6a00ff;fontColor=#ffffff;strokeColor=#3700CC;fontSize=21;fontFamily=Comic Sans MS;" parent="eHuPorcQUrtKR36Gp4NA-34" vertex="1">
          <mxGeometry y="25" width="50" height="44" as="geometry" />
        </mxCell>
        <mxCell id="eHuPorcQUrtKR36Gp4NA-36" value="" style="shape=cylinder3;whiteSpace=wrap;html=1;boundedLbl=1;backgroundOutline=1;size=15;fillColor=#d80073;fontColor=#ffffff;strokeColor=#A50040;fontSize=21;fontFamily=Comic Sans MS;" parent="eHuPorcQUrtKR36Gp4NA-34" vertex="1">
          <mxGeometry y="11.5" width="50" height="44" as="geometry" />
        </mxCell>
        <mxCell id="eHuPorcQUrtKR36Gp4NA-37" value="" style="shape=cylinder3;whiteSpace=wrap;html=1;boundedLbl=1;backgroundOutline=1;size=15;fillColor=#60a917;fontColor=#ffffff;strokeColor=#2D7600;fontSize=21;fontFamily=Comic Sans MS;" parent="eHuPorcQUrtKR36Gp4NA-34" vertex="1">
          <mxGeometry width="50" height="44" as="geometry" />
        </mxCell>
        <mxCell id="eHuPorcQUrtKR36Gp4NA-39" value="" style="editableCssRules=.*;html=1;shape=image;verticalLabelPosition=bottom;labelBackgroundColor=#ffffff;verticalAlign=top;aspect=fixed;imageAspect=0;image=data:image/svg+xml,PHN2ZyB4bWxucz0iaHR0cDovL3d3dy53My5vcmcvMjAwMC9zdmciIHhtbG5zOnY9Imh0dHBzOi8vdmVjdGEuaW8vbmFubyIgd2lkdGg9IjIwIiBoZWlnaHQ9IjIwIiB2aWV3Qm94PSIwIDAgMjAgMjAiPiYjeGE7CTxzdHlsZSB0eXBlPSJ0ZXh0L2NzcyI+JiN4YTsJLnN0MHtmaWxsOiM0Mjg1ZjQ7fSYjeGE7CTwvc3R5bGU+JiN4YTsJPHBhdGggY2xhc3M9InN0MCIgZD0iTTEzLjMzIDB2Mi4zOGgtMi4xNlYwSDguODN2Mi4zOEg2LjY3VjBINC4yOXYyLjM4YTIgMiAwIDAgMC0xLjkxIDEuOTFIMHYyLjM4aDIuMzh2Mi4xNEgwdjIuMzhoMi4zOHYyLjE0SDB2Mi4zOGgyLjM4YTIgMiAwIDAgMCAxLjkxIDEuOTFWMjBoMi4zOHYtMi4zOGgyLjE2VjIwaDIuMzR2LTIuMzhoMi4xNlYyMGgyLjM4di0yLjM4YTIgMiAwIDAgMCAxLjkxLTEuOTFIMjB2LTIuMzhoLTIuMzh2LTIuMTRIMjBWOC44MWgtMi4zOFY2LjY3SDIwVjQuMjloLTIuMzhhMiAyIDAgMCAwLTEuOTEtMS45MVYwem0xLjUzIDE1LjI0SDUuMTRhLjM4LjM4IDAgMCAxLS4zOC0uMzhWNS4xNGEuMzguMzggMCAwIDEgLjM4LS4zOGg5LjcyYS4zOC4zOCAwIDAgMSAuMzguMzh2OS43MmEuMzguMzggMCAwIDEtLjM4LjM4em0tMi4wNy02LjEybC0zLjUgNC44NnYtMy42M0g3LjIybDMuNjEtNC44MXYzLjU4eiIvPiYjeGE7PC9zdmc+;fontSize=21;fontFamily=Comic Sans MS;" parent="1" vertex="1">
          <mxGeometry x="355" y="310" width="60" height="60" as="geometry" />
        </mxCell>
        <mxCell id="eHuPorcQUrtKR36Gp4NA-40" value="" style="editableCssRules=.*;html=1;shape=image;verticalLabelPosition=bottom;labelBackgroundColor=#ffffff;verticalAlign=top;aspect=fixed;imageAspect=0;image=data:image/svg+xml,PHN2ZyB4bWxucz0iaHR0cDovL3d3dy53My5vcmcvMjAwMC9zdmciIHhtbG5zOnY9Imh0dHBzOi8vdmVjdGEuaW8vbmFubyIgd2lkdGg9IjIwIiBoZWlnaHQ9IjIwIiB2aWV3Qm94PSIwIDAgMjAgMjAiPiYjeGE7CTxzdHlsZSB0eXBlPSJ0ZXh0L2NzcyI+JiN4YTsJLnN0MHtmaWxsOiM0Mjg1ZjQ7fSYjeGE7CTwvc3R5bGU+JiN4YTsJPHBhdGggY2xhc3M9InN0MCIgZD0iTTEzLjMzIDB2Mi4zOGgtMi4xNlYwSDguODN2Mi4zOEg2LjY3VjBINC4yOXYyLjM4YTIgMiAwIDAgMC0xLjkxIDEuOTFIMHYyLjM4aDIuMzh2Mi4xNEgwdjIuMzhoMi4zOHYyLjE0SDB2Mi4zOGgyLjM4YTIgMiAwIDAgMCAxLjkxIDEuOTFWMjBoMi4zOHYtMi4zOGgyLjE2VjIwaDIuMzR2LTIuMzhoMi4xNlYyMGgyLjM4di0yLjM4YTIgMiAwIDAgMCAxLjkxLTEuOTFIMjB2LTIuMzhoLTIuMzh2LTIuMTRIMjBWOC44MWgtMi4zOFY2LjY3SDIwVjQuMjloLTIuMzhhMiAyIDAgMCAwLTEuOTEtMS45MVYwem0xLjUzIDE1LjI0SDUuMTRhLjM4LjM4IDAgMCAxLS4zOC0uMzhWNS4xNGEuMzguMzggMCAwIDEgLjM4LS4zOGg5LjcyYS4zOC4zOCAwIDAgMSAuMzguMzh2OS43MmEuMzguMzggMCAwIDEtLjM4LjM4em0tMi4wNy02LjEybC0zLjUgNC44NnYtMy42M0g3LjIybDMuNjEtNC44MXYzLjU4eiIvPiYjeGE7PC9zdmc+;fontSize=21;fontFamily=Comic Sans MS;" parent="1" vertex="1">
          <mxGeometry x="435" y="310" width="60" height="60" as="geometry" />
        </mxCell>
        <mxCell id="eHuPorcQUrtKR36Gp4NA-41" value="" style="editableCssRules=.*;html=1;shape=image;verticalLabelPosition=bottom;labelBackgroundColor=#ffffff;verticalAlign=top;aspect=fixed;imageAspect=0;image=data:image/svg+xml,PHN2ZyB4bWxucz0iaHR0cDovL3d3dy53My5vcmcvMjAwMC9zdmciIHhtbG5zOnY9Imh0dHBzOi8vdmVjdGEuaW8vbmFubyIgd2lkdGg9IjIwIiBoZWlnaHQ9IjIwIiB2aWV3Qm94PSIwIDAgMjAgMjAiPiYjeGE7CTxzdHlsZSB0eXBlPSJ0ZXh0L2NzcyI+JiN4YTsJLnN0MHtmaWxsOiM0Mjg1ZjQ7fSYjeGE7CTwvc3R5bGU+JiN4YTsJPHBhdGggY2xhc3M9InN0MCIgZD0iTTEzLjMzIDB2Mi4zOGgtMi4xNlYwSDguODN2Mi4zOEg2LjY3VjBINC4yOXYyLjM4YTIgMiAwIDAgMC0xLjkxIDEuOTFIMHYyLjM4aDIuMzh2Mi4xNEgwdjIuMzhoMi4zOHYyLjE0SDB2Mi4zOGgyLjM4YTIgMiAwIDAgMCAxLjkxIDEuOTFWMjBoMi4zOHYtMi4zOGgyLjE2VjIwaDIuMzR2LTIuMzhoMi4xNlYyMGgyLjM4di0yLjM4YTIgMiAwIDAgMCAxLjkxLTEuOTFIMjB2LTIuMzhoLTIuMzh2LTIuMTRIMjBWOC44MWgtMi4zOFY2LjY3SDIwVjQuMjloLTIuMzhhMiAyIDAgMCAwLTEuOTEtMS45MVYwem0xLjUzIDE1LjI0SDUuMTRhLjM4LjM4IDAgMCAxLS4zOC0uMzhWNS4xNGEuMzguMzggMCAwIDEgLjM4LS4zOGg5LjcyYS4zOC4zOCAwIDAgMSAuMzguMzh2OS43MmEuMzguMzggMCAwIDEtLjM4LjM4em0tMi4wNy02LjEybC0zLjUgNC44NnYtMy42M0g3LjIybDMuNjEtNC44MXYzLjU4eiIvPiYjeGE7PC9zdmc+;fontSize=21;fontFamily=Comic Sans MS;" parent="1" vertex="1">
          <mxGeometry x="515" y="310" width="60" height="60" as="geometry" />
        </mxCell>
        <mxCell id="eHuPorcQUrtKR36Gp4NA-44" value="" style="shape=image;verticalLabelPosition=bottom;labelBackgroundColor=default;verticalAlign=top;aspect=fixed;imageAspect=0;image=data:image/png,iVBORw0KGgoAAAANSUhEUgAAABkAAABNCAYAAABT9s+CAAAKr2lDQ1BJQ0MgUHJvZmlsZQAASImVlwdUk9kSgO//p4eEkoQISAm9CdIJICX0AArSwUZIQhIIMSSEJnYWV3AtqIhgWdFFEQXXAshaAAu2RbH3BREBZV0sYEHl/cAhuPvOe++8OWcy35nMnZl7z705EwDIuhypVAyrA5AuyZRFBvky4hMSGbh+gAE0QAU44MLhyqWsiIgwgMik/bsM3wXQmL1lM5br37//r6LB48u5AEARCCfz5Nx0hI8jOsyVyjIBQB1C/MbZmdIxvoEwTYY0iPDzMRZM8McxTh5nNGk8JjrSD2EGAHgShyMTAECagfgZWVwBkoc0tgc7CU8kQTgfYa/09MU8hE8hbIHESBEey89M/i6P4G85k5U5ORyBkif2Mi54f5FcKubk/p/H8b8lXayYrGGOKEkoC45ELAU5s+dpi0OVLEmeEz7JIt54/DgLFcExk8yV+yVOslwcxZ5kHsc/VJlHPCdsklNEgcoYUSY7epL58oCoSZYtjlTWTZH5sSaZI5vqQZEWo/QL+Wxl/jxhdNwkZ4li5yh7S4sKnYrxU/plikjlXviSIN+puoHKc0iXf7d3EVu5NlMYHaw8B85U/3wJayqnPF7ZG4/vHzAVE6OMl2b6KmtJxRHKeL44SOmXZ0Up12Yil3NqbYTyDFM5IRGTDIJBBGCAAOAAXBEbBJwAyOTnZI5txG+xNFcmEggzGSzktfEZbAnXdgbDwc7BGYCxtztxNd7dH3+TEB0/5Us+BoDDZQT+nPKlJwHQgkbKDk35zM4h18oBgLMhXIUsa8KHHvvAACJQQ34XtIE+MAYWwAbpzwV4AB+k0xAQDqJBAlgIuEAI0oEMZIN8sBIUgmKwEWwF5WA32AsOgMPgKGgAp0ALuAiughvgDngEOkEPeAUGwTAYgSAIB5EhKqQNGUCmkDXkADEhLygACoMioQQoCRJAEkgB5UOroWKoBCqH9kDV0K/QSagFugx1QA+gLqgfegt9hlEwCabBerAZPBNmwiw4FI6GF8ACOAPOgwvg9XAZXAkfguvhFvgqfAfuhF/BQyiAUkHRUYYoGxQT5YcKRyWiUlAy1DJUEaoUVYmqRTWh2lC3UJ2oAdQnNBZNRTPQNmgPdDA6Bs1FZ6CXodehy9EH0PXo8+hb6C70IPobhozRxVhj3DFsTDxGgMnGFGJKMVWYE5gLmDuYHswwFoulY82xrthgbAI2FbsEuw67E1uHbcZ2YLuxQzgcThtnjfPEheM4uExcIW477hDuLO4mrgf3Ea+CN8A74APxiXgJfhW+FH8QfwZ/E9+LHyGoE0wJ7oRwAo+QS9hA2EdoIlwn9BBGiBpEc6InMZqYSlxJLCPWEi8QHxPfqaioGKm4qcxVEamsUClTOaJySaVL5ROJQrIi+ZHmkxSk9aT9pGbSA9I7MplsRvYhJ5IzyevJ1eRz5Kfkj6pUVVtVtipPdblqhWq96k3V12oENVM1ltpCtTy1UrVjatfVBtQJ6mbqfuoc9WXqFeon1e+pD2lQNew1wjXSNdZpHNS4rNFHwVHMKAEUHqWAspdyjtJNRVGNqX5ULnU1dR/1ArWHhqWZ09i0VFox7TCtnTaoSdF00ozVzNGs0Dyt2UlH0c3obLqYvoF+lH6X/nma3jTWNP60tdNqp92c9kFrupaPFl+rSKtO647WZ22GdoB2mvYm7QbtJzpoHSuduTrZOrt0LugMTKdN95jOnV40/ej0h7qwrpVupO4S3b2613SH9PT1gvSketv1zukN6NP1ffRT9bfon9HvN6AaeBmIDLYYnDV4ydBksBhiRhnjPGPQUNcw2FBhuMew3XDEyNwoxmiVUZ3RE2OiMdM4xXiLcavxoImByWyTfJMak4emBFOmqdB0m2mb6Qczc7M4szVmDWZ95lrmbPM88xrzxxZkC2+LDItKi9uWWEumZZrlTssbVrCVs5XQqsLqujVs7WItst5p3TEDM8NthmRG5Yx7NiQblk2WTY1Nly3dNsx2lW2D7euZJjMTZ26a2Tbzm52zndhun90je4p9iP0q+yb7tw5WDlyHCofbjmTHQMfljo2Ob5ysnfhOu5zuO1OdZzuvcW51/uri6iJzqXXpdzVxTXLd4XqPSWNGMNcxL7lh3Hzdlrudcvvk7uKe6X7U/S8PG480j4MefbPMZ/Fn7ZvV7WnkyfHc49npxfBK8vrZq9Pb0JvjXen9zMfYh+dT5dPLsmSlsg6xXvva+cp8T/h+8HP3W+rX7I/yD/Iv8m8PoATEBJQHPA00ChQE1gQOBjkHLQlqDsYEhwZvCr7H1mNz2dXswRDXkKUh50NJoVGh5aHPwqzCZGFNs+HZIbM3z348x3SOZE5DOAhnh28OfxJhHpER8dtc7NyIuRVzX0TaR+ZHtkVRoxZFHYwajvaN3hD9KMYiRhHTGqsWOz+2OvZDnH9cSVxn/Mz4pfFXE3QSRAmNibjE2MSqxKF5AfO2zuuZ7zy/cP7dBeYLchZcXqizULzw9CK1RZxFx5IwSXFJB5O+cMI5lZyhZHbyjuRBrh93G/cVz4e3hdfP9+SX8HtTPFNKUvoEnoLNgn6ht7BUOCDyE5WL3qQGp+5O/ZAWnrY/bVQcJ65Lx6cnpZ+UUCRpkvOL9RfnLO6QWksLpZ0Z7hlbMwZlobIqOSRfIG/MpCFD0jWFheIHRVeWV1ZF1sfs2OxjORo5kpxruVa5a3N78wLzflmCXsJd0ppvmL8yv2spa+meZdCy5GWty42XFyzvWRG04sBK4sq0lb+vsltVsur96rjVTQV6BSsKun8I+qGmULVQVnhvjcea3T+ifxT92L7Wce32td+KeEVXiu2KS4u/rOOuu/KT/U9lP42uT1nfvsFlw66N2I2SjXc3eW86UKJRklfSvXn25votjC1FW95vXbT1cqlT6e5txG2KbZ1lYWWN2022b9z+pVxYfqfCt6Juh+6OtTs+7OTtvLnLZ1ftbr3dxbs//yz6+f6eoD31lWaVpXuxe7P2vtgXu6/tF+Yv1VU6VcVVX/dL9nceiDxwvtq1uvqg7sENNXCNoqb/0PxDNw77H26standU0evKz4CjiiOvPw16de7R0OPth5jHqs9bnp8xwnqiaJ6qD63frBB2NDZmNDYcTLkZGuTR9OJ32x/23/K8FTFac3TG84QzxScGT2bd3aoWdo80CJo6W5d1ProXPy52+fnnm+/EHrh0sXAi+faWG1nL3leOnXZ/fLJK8wrDVddrtZfc7524nfn30+0u7TXX3e93njD7UZTx6yOMze9b7bc8r918Tb79tU7c+503I25e//e/Hud93n3+x6IH7x5mPVw5NGKx5jHRU/Un5Q+1X1a+YflH3WdLp2nu/y7rj2Levaom9v96rn8+ZeeghfkF6W9Br3VfQ59p/oD+2+8nPey55X01chA4Z8af+54bfH6+F8+f10bjB/seSN7M/p23Tvtd/vfO71vHYoYejqcPjzyoeij9scDn5if2j7Hfe4dyf6C+1L21fJr07fQb49H00dHpRwZZ3wUQCEKp6QA8HY/AOQEAKjIXE6cNzFbjws08X9gnMB/4on5e1xcAKhqBiAW0UgfACpWIKMtYkmIRiAa7QNgR0elTs7B4zP7mBipIik2I5MD9OghVgr+IRPz/Hd9/9MCZda/2X8BfBYIBbXtyksAAABWZVhJZk1NACoAAAAIAAGHaQAEAAAAAQAAABoAAAAAAAOShgAHAAAAEgAAAESgAgAEAAAAAQAAABmgAwAEAAAAAQAAAE0AAAAAQVNDSUkAAABTY3JlZW5zaG90rfxxMQAAAdRpVFh0WE1MOmNvbS5hZG9iZS54bXAAAAAAADx4OnhtcG1ldGEgeG1sbnM6eD0iYWRvYmU6bnM6bWV0YS8iIHg6eG1wdGs9IlhNUCBDb3JlIDYuMC4wIj4KICAgPHJkZjpSREYgeG1sbnM6cmRmPSJodHRwOi8vd3d3LnczLm9yZy8xOTk5LzAyLzIyLXJkZi1zeW50YXgtbnMjIj4KICAgICAgPHJkZjpEZXNjcmlwdGlvbiByZGY6YWJvdXQ9IiIKICAgICAgICAgICAgeG1sbnM6ZXhpZj0iaHR0cDovL25zLmFkb2JlLmNvbS9leGlmLzEuMC8iPgogICAgICAgICA8ZXhpZjpQaXhlbFlEaW1lbnNpb24+Nzc8L2V4aWY6UGl4ZWxZRGltZW5zaW9uPgogICAgICAgICA8ZXhpZjpQaXhlbFhEaW1lbnNpb24+MjU8L2V4aWY6UGl4ZWxYRGltZW5zaW9uPgogICAgICAgICA8ZXhpZjpVc2VyQ29tbWVudD5TY3JlZW5zaG90PC9leGlmOlVzZXJDb21tZW50PgogICAgICA8L3JkZjpEZXNjcmlwdGlvbj4KICAgPC9yZGY6UkRGPgo8L3g6eG1wbWV0YT4KstIuBgAABPJJREFUWAntWT1sFEcUfre7dmNLblwcCiZUCClCokgA82fzJwqqJAREg1JQpIMkSBSWxaKEAoECdBQ0SAjEb5+kCHawjwBpAhIVSowd+ZAsISO78d8x36A3vJud2d3zra/iifPMvvfmvZl5fzNDaXJysjY7O0sdHR2UBrVaTZNLpVIaG7n4SgpZq1arVC6XUwfPz89reltbW8N8QeqIgohBPHKhIFF+MeHQun9iUtvc3t5Oa7t6vJxLS0uaFoahlwcEF19IezvjSvUpXXt+i6Csf81WpxDXYBeji6/OJmceXqDSuTIVvYXB6e0nExOCsiIVGRe+8vI6QbgNmES87SQ148Klubm52tTUFHV3d9PQRIWGxyv0U+WirYsGNh9XvxMURVGCJhELCwv6U/KFw+ufxWNvx6ny+ikd/ewQ9fX0aqbhiUdyLP35/1/62+cYzMyGD4IP5g7HNr2JK6//JggNlHvuWbuDdn26nWLYSnnb0KtRHq8VMQ9c2fUDMxQgMxg6XJilQCBmyvGiZ60UqX/03/S4ZkP/2w2HeUii5ZXIeEp41xkrA8DofZ7YSWjwIAIIubf/qiE/ENtjkE12tHVGldFXEqJdN78iOXtXcDY7gUAqgLD+HnfuakaRcWZ40h9H7nsTZDNKTPju+GQzbVv1hUkfUujS4qL5RHnlFGOQosMRL1BkViKRRffNShDJvvoNGgMOEj4+5kEreQLYYmv5c51pJZPsS2eAozRac8J/776ID5R3U2dnp5Rb10eaefBqhMbeThi8zmnIMQo4DaHvTCsg5IHfv7lNg73f17Gi/iDOsgqcKVp5z11nH1/WinwFbmDTcU2XNmlYCQ/G7F2KUI+wauaDxmW7MBJr7VSV7DQ0pCorKqyEZSthIayMv11thOjNimIMdEWySyBwiypDyKzQ9Ep8iiQ+goHyRjEGSoNKQbKP0iv5WrMSngHShV3fmYYWdgNkXYI0k/XHJEhE7kpBa7dLrsIOMNC4cMm0L8e4op/pZrsYgRYBZgP7vfQayZOmpCXb1RIlEa7XuMdLAM6GRlx4enqapIwIdUQiINxVW7JsIifV1dVVJyNCXZiZmZE8DfezKmOU5hVZ2ryFa/X7ixSPd7owE30tp6DEEVedfAa2nEgMi3AkUvdG/VgA6mlHjPAoVLyzjy7VHdCZZl9gGY82V43HjOOH5wml1QZMEhNDC3A5SK7tQna2FdjCbeXyO1MJViH3vhHhrCizxi8svr+X84DfDqo3GAW8LYzn1nUWMCuBUX9WjwQ7V2/R/IO9P/C4pttoZPKJPmqyJN57PA7AoFFo5qFZfFmYx3Mr+QJfRYQd0soxC8vT1mVhbVTxaqSNPv7hRSKPQBeP2QsOJjDhWiA9yjWwEZxZiXxDkQokvhHBktcogWDcoPCTkJZmJF9aP/G2IpldBwpJz9vXbys/bvwuwQ8FuCsW4WGJlzto61P1YN+dQ4l8hde7rO3jiJcvd8YmLBzPg+2/9CQUIBPgeXA5YE71iHxsjfQsCOSEiNcKgIxkjfD8kXw6Tr7+9RiNqgdoG2Ts+BKiPcb1HdkuCyaePdoiwET8SgjnCRolcmuYWFjbf+PLGv43KAvwSI1fFrj4ch0ksCI2vPQa10pdfHVx4hpUBC6zxrMSjmT+9rUuvtasBHtc9D0eq5S2a8lKPirxOZcT35LtegcWZ4C7oR+cDwAAAABJRU5ErkJggg==;fontSize=21;fontFamily=Comic Sans MS;" parent="1" vertex="1">
          <mxGeometry x="522.5" y="76.5" width="25" height="77" as="geometry" />
        </mxCell>
        <mxCell id="eHuPorcQUrtKR36Gp4NA-45" value="" style="shape=image;verticalLabelPosition=bottom;labelBackgroundColor=default;verticalAlign=top;aspect=fixed;imageAspect=0;image=data:image/png,iVBORw0KGgoAAAANSUhEUgAAABoAAABPCAYAAAD1CdWKAAAKr2lDQ1BJQ0MgUHJvZmlsZQAASImVlwdUk9kSgO//p4eEkoQISAm9CdIJICX0AArSwUZIQhIIMSSEJnYWV3AtqIhgWdFFEQXXAshaAAu2RbH3BREBZV0sYEHl/cAhuPvOe++8OWcy35nMnZl7z705EwDIuhypVAyrA5AuyZRFBvky4hMSGbh+gAE0QAU44MLhyqWsiIgwgMik/bsM3wXQmL1lM5br37//r6LB48u5AEARCCfz5Nx0hI8jOsyVyjIBQB1C/MbZmdIxvoEwTYY0iPDzMRZM8McxTh5nNGk8JjrSD2EGAHgShyMTAECagfgZWVwBkoc0tgc7CU8kQTgfYa/09MU8hE8hbIHESBEey89M/i6P4G85k5U5ORyBkif2Mi54f5FcKubk/p/H8b8lXayYrGGOKEkoC45ELAU5s+dpi0OVLEmeEz7JIt54/DgLFcExk8yV+yVOslwcxZ5kHsc/VJlHPCdsklNEgcoYUSY7epL58oCoSZYtjlTWTZH5sSaZI5vqQZEWo/QL+Wxl/jxhdNwkZ4li5yh7S4sKnYrxU/plikjlXviSIN+puoHKc0iXf7d3EVu5NlMYHaw8B85U/3wJayqnPF7ZG4/vHzAVE6OMl2b6KmtJxRHKeL44SOmXZ0Up12Yil3NqbYTyDFM5IRGTDIJBBGCAAOAAXBEbBJwAyOTnZI5txG+xNFcmEggzGSzktfEZbAnXdgbDwc7BGYCxtztxNd7dH3+TEB0/5Us+BoDDZQT+nPKlJwHQgkbKDk35zM4h18oBgLMhXIUsa8KHHvvAACJQQ34XtIE+MAYWwAbpzwV4AB+k0xAQDqJBAlgIuEAI0oEMZIN8sBIUgmKwEWwF5WA32AsOgMPgKGgAp0ALuAiughvgDngEOkEPeAUGwTAYgSAIB5EhKqQNGUCmkDXkADEhLygACoMioQQoCRJAEkgB5UOroWKoBCqH9kDV0K/QSagFugx1QA+gLqgfegt9hlEwCabBerAZPBNmwiw4FI6GF8ACOAPOgwvg9XAZXAkfguvhFvgqfAfuhF/BQyiAUkHRUYYoGxQT5YcKRyWiUlAy1DJUEaoUVYmqRTWh2lC3UJ2oAdQnNBZNRTPQNmgPdDA6Bs1FZ6CXodehy9EH0PXo8+hb6C70IPobhozRxVhj3DFsTDxGgMnGFGJKMVWYE5gLmDuYHswwFoulY82xrthgbAI2FbsEuw67E1uHbcZ2YLuxQzgcThtnjfPEheM4uExcIW477hDuLO4mrgf3Ea+CN8A74APxiXgJfhW+FH8QfwZ/E9+LHyGoE0wJ7oRwAo+QS9hA2EdoIlwn9BBGiBpEc6InMZqYSlxJLCPWEi8QHxPfqaioGKm4qcxVEamsUClTOaJySaVL5ROJQrIi+ZHmkxSk9aT9pGbSA9I7MplsRvYhJ5IzyevJ1eRz5Kfkj6pUVVtVtipPdblqhWq96k3V12oENVM1ltpCtTy1UrVjatfVBtQJ6mbqfuoc9WXqFeon1e+pD2lQNew1wjXSNdZpHNS4rNFHwVHMKAEUHqWAspdyjtJNRVGNqX5ULnU1dR/1ArWHhqWZ09i0VFox7TCtnTaoSdF00ozVzNGs0Dyt2UlH0c3obLqYvoF+lH6X/nma3jTWNP60tdNqp92c9kFrupaPFl+rSKtO647WZ22GdoB2mvYm7QbtJzpoHSuduTrZOrt0LugMTKdN95jOnV40/ej0h7qwrpVupO4S3b2613SH9PT1gvSketv1zukN6NP1ffRT9bfon9HvN6AaeBmIDLYYnDV4ydBksBhiRhnjPGPQUNcw2FBhuMew3XDEyNwoxmiVUZ3RE2OiMdM4xXiLcavxoImByWyTfJMak4emBFOmqdB0m2mb6Qczc7M4szVmDWZ95lrmbPM88xrzxxZkC2+LDItKi9uWWEumZZrlTssbVrCVs5XQqsLqujVs7WItst5p3TEDM8NthmRG5Yx7NiQblk2WTY1Nly3dNsx2lW2D7euZJjMTZ26a2Tbzm52zndhun90je4p9iP0q+yb7tw5WDlyHCofbjmTHQMfljo2Ob5ysnfhOu5zuO1OdZzuvcW51/uri6iJzqXXpdzVxTXLd4XqPSWNGMNcxL7lh3Hzdlrudcvvk7uKe6X7U/S8PG480j4MefbPMZ/Fn7ZvV7WnkyfHc49npxfBK8vrZq9Pb0JvjXen9zMfYh+dT5dPLsmSlsg6xXvva+cp8T/h+8HP3W+rX7I/yD/Iv8m8PoATEBJQHPA00ChQE1gQOBjkHLQlqDsYEhwZvCr7H1mNz2dXswRDXkKUh50NJoVGh5aHPwqzCZGFNs+HZIbM3z348x3SOZE5DOAhnh28OfxJhHpER8dtc7NyIuRVzX0TaR+ZHtkVRoxZFHYwajvaN3hD9KMYiRhHTGqsWOz+2OvZDnH9cSVxn/Mz4pfFXE3QSRAmNibjE2MSqxKF5AfO2zuuZ7zy/cP7dBeYLchZcXqizULzw9CK1RZxFx5IwSXFJB5O+cMI5lZyhZHbyjuRBrh93G/cVz4e3hdfP9+SX8HtTPFNKUvoEnoLNgn6ht7BUOCDyE5WL3qQGp+5O/ZAWnrY/bVQcJ65Lx6cnpZ+UUCRpkvOL9RfnLO6QWksLpZ0Z7hlbMwZlobIqOSRfIG/MpCFD0jWFheIHRVeWV1ZF1sfs2OxjORo5kpxruVa5a3N78wLzflmCXsJd0ppvmL8yv2spa+meZdCy5GWty42XFyzvWRG04sBK4sq0lb+vsltVsur96rjVTQV6BSsKun8I+qGmULVQVnhvjcea3T+ifxT92L7Wce32td+KeEVXiu2KS4u/rOOuu/KT/U9lP42uT1nfvsFlw66N2I2SjXc3eW86UKJRklfSvXn25votjC1FW95vXbT1cqlT6e5txG2KbZ1lYWWN2022b9z+pVxYfqfCt6Juh+6OtTs+7OTtvLnLZ1ftbr3dxbs//yz6+f6eoD31lWaVpXuxe7P2vtgXu6/tF+Yv1VU6VcVVX/dL9nceiDxwvtq1uvqg7sENNXCNoqb/0PxDNw77H26standU0evKz4CjiiOvPw16de7R0OPth5jHqs9bnp8xwnqiaJ6qD63frBB2NDZmNDYcTLkZGuTR9OJ32x/23/K8FTFac3TG84QzxScGT2bd3aoWdo80CJo6W5d1ProXPy52+fnnm+/EHrh0sXAi+faWG1nL3leOnXZ/fLJK8wrDVddrtZfc7524nfn30+0u7TXX3e93njD7UZTx6yOMze9b7bc8r918Tb79tU7c+503I25e//e/Hud93n3+x6IH7x5mPVw5NGKx5jHRU/Un5Q+1X1a+YflH3WdLp2nu/y7rj2Levaom9v96rn8+ZeeghfkF6W9Br3VfQ59p/oD+2+8nPey55X01chA4Z8af+54bfH6+F8+f10bjB/seSN7M/p23Tvtd/vfO71vHYoYejqcPjzyoeij9scDn5if2j7Hfe4dyf6C+1L21fJr07fQb49H00dHpRwZZ3wUQCEKp6QA8HY/AOQEAKjIXE6cNzFbjws08X9gnMB/4on5e1xcAKhqBiAW0UgfACpWIKMtYkmIRiAa7QNgR0elTs7B4zP7mBipIik2I5MD9OghVgr+IRPz/Hd9/9MCZda/2X8BfBYIBbXtyksAAABWZVhJZk1NACoAAAAIAAGHaQAEAAAAAQAAABoAAAAAAAOShgAHAAAAEgAAAESgAgAEAAAAAQAAABqgAwAEAAAAAQAAAE8AAAAAQVNDSUkAAABTY3JlZW5zaG90y7mcwQAAAdRpVFh0WE1MOmNvbS5hZG9iZS54bXAAAAAAADx4OnhtcG1ldGEgeG1sbnM6eD0iYWRvYmU6bnM6bWV0YS8iIHg6eG1wdGs9IlhNUCBDb3JlIDYuMC4wIj4KICAgPHJkZjpSREYgeG1sbnM6cmRmPSJodHRwOi8vd3d3LnczLm9yZy8xOTk5LzAyLzIyLXJkZi1zeW50YXgtbnMjIj4KICAgICAgPHJkZjpEZXNjcmlwdGlvbiByZGY6YWJvdXQ9IiIKICAgICAgICAgICAgeG1sbnM6ZXhpZj0iaHR0cDovL25zLmFkb2JlLmNvbS9leGlmLzEuMC8iPgogICAgICAgICA8ZXhpZjpQaXhlbFlEaW1lbnNpb24+Nzk8L2V4aWY6UGl4ZWxZRGltZW5zaW9uPgogICAgICAgICA8ZXhpZjpQaXhlbFhEaW1lbnNpb24+MjY8L2V4aWY6UGl4ZWxYRGltZW5zaW9uPgogICAgICAgICA8ZXhpZjpVc2VyQ29tbWVudD5TY3JlZW5zaG90PC9leGlmOlVzZXJDb21tZW50PgogICAgICA8L3JkZjpEZXNjcmlwdGlvbj4KICAgPC9yZGY6UkRGPgo8L3g6eG1wbWV0YT4KgJXiEwAABfRJREFUaAXdWUtoXFUYPjNz42pEd07STqwbt7qwtnmQByQU3Cka6FKMIC6MTSOlxJppo9DSpqW7CoK4UZpilxVNITOxaVQUVFyKmhfElehy8pje70y+M/859zF3HnGRH+495/zP8/j//5xzb6rig3Jge3tbYzo6OhyK3UzKB6m0LXpwrcNnyNva2tLz9XDrR1325l5QXLZUKhU7ly6f1BEQXFxdrgx9/nJFXX5KPzMPrlYW/ihVyuUy/CQWwIPH1QF9wElIaQMB80pd6DmjLg2cC6HUUPC62ZXr/nOjhhS1mf4pVeib0phIQ+SXzMShLK49VMNfvCJRkXXoyKiRbGGou1d9+tJNdezJvCr5CiTo9v5SHXsirw28fm9CXVy+JtlUPR0prAmHR8kPlq6ETgeUYSQuhI264Hfk4oNaZ1JYMFeQEf/RDzctZpdvMN+j3vfXcuSZAZdk2jToGUxIhSOVPQMbRjbjL3Jf5/EQKRtFHbEjkrkudSVnNFTOVWOPI5d8hsmpeGSW+J2dHdkM1ClTj08Kxk6dZGymXtpYUUvr/rPxnfLihh1Fc/FuG52iE7CDB5K9XSMwlsYi4wGxXSCDXnuonxnMiODC7TImg3rQDwW4uDGE0cCYZGrXCKEnvXj6bjv1aV2YLgI6j+SbBlISiuvBXEahpCWyhgTMUhqvdk8XOu7OVGA/Kk+uK0a859Xi+bHredPJhbF5Xd/d3dVlJpMxNLfyob8plvygrWnyObCrJoHR+bEkbBaPx/XBvLJOjrCIJ63RsqnszQ5xK8PUSCBd4qypk4S4OheaWVxukDBCutRhBawktLv+vxnywvLb3r7bpmPcliMevTOm3ZdtxCR0cgsnPhBHJMSV3Mr9E6llRMpgnaRTND116LX0NqkUBt1zn/E6Gax7e3u6c+l0rR/y2AtvK64umwFA9kLPpMLWzWDGFN7/c0kNHu3RfMLQpBEMS0HSkGF0KlTqoHXTGArLAmE4SAEvrzToBBxH7qzgkwfL2tyA0gC4W4G7aeKYLKFpQ1h8ua5SKWiue5upk4xJ63AAPEhBhKG8vZES35IhKnF7T7wsm546qSRJ/RAbCkuuSaYkKY9xBsTBwu9F9eWpT+p+Z+C3Ce6wK3//pOZ+uaXwneHs829p21PPVUt2xBgCAoynF99W37x6W9OjMkMuV72UIee51/+5n29p2Ww2a8WSxwjGiABIhkiOcXlLM/ov1wjxKKmPOI8xgDzV6EESFywCsgHSEk66NMISPNq9YaBRIxCW+xGPa+w46BI8eQkmIcm0gRfXfxrDRjfUfTdw9eGGaDkDhLlmqNeDgaMnjSHMiNtp+aHDygzY56OGHmYUCRWjigKpy+Nhj0OMEorCL7w2r7O3XHg6hpRJ4XubRKAetpXL2wRuHFF8mhDysqYuhN421IF9Z5A9hKOYETUTR1JZXB13WA8vaQQuOf3iRJxcLE3qAiPvxJFHYlwf5XFJxgiPxLy2MPliq5HeJ3tkpk4iUcfds1Fwz3VSXhvCdKGXMiswtUjmRuqIJT6Q04ZwRALISNaIFl74NINkgAcD0LkOCbG43hs40rZgxxLFALQheIrrLdMnJhQX25LyG8Qzg5DOrR1tXObIh3aoMyArT594F/S2gbWVMxny6y/d1rXm4tmWNwzcLoiHvNnKpSPIIbtGmm2HTp2rrJUzH2QR7IEdVhqBg4T96IBgvVSF4B1eq6W3jBrNFqAcPzgIi2vL6s2vz/oX3jmiAiWzwJJ/NBt+ul/TP/vttvrr3+pehZJ1EDOlZ38tgEH5f1TgDBjqG1+dUav/bVjKMQLQaQBEHLf0kWtfVhqSwpCLTKpkpCeiJMQlT/KglLKRa4RDR6H/Pc0shVGnh0ZlavAg9cjOZcr3/imAIE+dyAofj1zV64ZvDmHPwJGT6vzxdyCqvt38Xpd44V57f+yO6n78iCVnHU5w5gb05aq/a+SnTuBnZ2fV+Pi46uzsRNM6xFA28vDp56cA8G+kS+jq6qpsbm4adBSfYRCVRAGru9/i6/AZegRaI2HUdnEn2QAAAABJRU5ErkJggg==;fontSize=21;fontFamily=Comic Sans MS;" parent="1" vertex="1">
          <mxGeometry x="452" y="75.5" width="26" height="79" as="geometry" />
        </mxCell>
        <mxCell id="eHuPorcQUrtKR36Gp4NA-47" style="edgeStyle=orthogonalEdgeStyle;rounded=0;orthogonalLoop=1;jettySize=auto;html=1;fontSize=21;fontFamily=Comic Sans MS;" parent="1" source="eHuPorcQUrtKR36Gp4NA-46" target="eHuPorcQUrtKR36Gp4NA-26" edge="1">
          <mxGeometry relative="1" as="geometry" />
        </mxCell>
        <mxCell id="eHuPorcQUrtKR36Gp4NA-46" value="" style="shape=image;verticalLabelPosition=bottom;labelBackgroundColor=default;verticalAlign=top;aspect=fixed;imageAspect=0;image=data:image/png,iVBORw0KGgoAAAANSUhEUgAAAB8AAABPCAYAAAATIB7OAAAKr2lDQ1BJQ0MgUHJvZmlsZQAASImVlwdUk9kSgO//p4eEkoQISAm9CdIJICX0AArSwUZIQhIIMSSEJnYWV3AtqIhgWdFFEQXXAshaAAu2RbH3BREBZV0sYEHl/cAhuPvOe++8OWcy35nMnZl7z705EwDIuhypVAyrA5AuyZRFBvky4hMSGbh+gAE0QAU44MLhyqWsiIgwgMik/bsM3wXQmL1lM5br37//r6LB48u5AEARCCfz5Nx0hI8jOsyVyjIBQB1C/MbZmdIxvoEwTYY0iPDzMRZM8McxTh5nNGk8JjrSD2EGAHgShyMTAECagfgZWVwBkoc0tgc7CU8kQTgfYa/09MU8hE8hbIHESBEey89M/i6P4G85k5U5ORyBkif2Mi54f5FcKubk/p/H8b8lXayYrGGOKEkoC45ELAU5s+dpi0OVLEmeEz7JIt54/DgLFcExk8yV+yVOslwcxZ5kHsc/VJlHPCdsklNEgcoYUSY7epL58oCoSZYtjlTWTZH5sSaZI5vqQZEWo/QL+Wxl/jxhdNwkZ4li5yh7S4sKnYrxU/plikjlXviSIN+puoHKc0iXf7d3EVu5NlMYHaw8B85U/3wJayqnPF7ZG4/vHzAVE6OMl2b6KmtJxRHKeL44SOmXZ0Up12Yil3NqbYTyDFM5IRGTDIJBBGCAAOAAXBEbBJwAyOTnZI5txG+xNFcmEggzGSzktfEZbAnXdgbDwc7BGYCxtztxNd7dH3+TEB0/5Us+BoDDZQT+nPKlJwHQgkbKDk35zM4h18oBgLMhXIUsa8KHHvvAACJQQ34XtIE+MAYWwAbpzwV4AB+k0xAQDqJBAlgIuEAI0oEMZIN8sBIUgmKwEWwF5WA32AsOgMPgKGgAp0ALuAiughvgDngEOkEPeAUGwTAYgSAIB5EhKqQNGUCmkDXkADEhLygACoMioQQoCRJAEkgB5UOroWKoBCqH9kDV0K/QSagFugx1QA+gLqgfegt9hlEwCabBerAZPBNmwiw4FI6GF8ACOAPOgwvg9XAZXAkfguvhFvgqfAfuhF/BQyiAUkHRUYYoGxQT5YcKRyWiUlAy1DJUEaoUVYmqRTWh2lC3UJ2oAdQnNBZNRTPQNmgPdDA6Bs1FZ6CXodehy9EH0PXo8+hb6C70IPobhozRxVhj3DFsTDxGgMnGFGJKMVWYE5gLmDuYHswwFoulY82xrthgbAI2FbsEuw67E1uHbcZ2YLuxQzgcThtnjfPEheM4uExcIW477hDuLO4mrgf3Ea+CN8A74APxiXgJfhW+FH8QfwZ/E9+LHyGoE0wJ7oRwAo+QS9hA2EdoIlwn9BBGiBpEc6InMZqYSlxJLCPWEi8QHxPfqaioGKm4qcxVEamsUClTOaJySaVL5ROJQrIi+ZHmkxSk9aT9pGbSA9I7MplsRvYhJ5IzyevJ1eRz5Kfkj6pUVVtVtipPdblqhWq96k3V12oENVM1ltpCtTy1UrVjatfVBtQJ6mbqfuoc9WXqFeon1e+pD2lQNew1wjXSNdZpHNS4rNFHwVHMKAEUHqWAspdyjtJNRVGNqX5ULnU1dR/1ArWHhqWZ09i0VFox7TCtnTaoSdF00ozVzNGs0Dyt2UlH0c3obLqYvoF+lH6X/nma3jTWNP60tdNqp92c9kFrupaPFl+rSKtO647WZ22GdoB2mvYm7QbtJzpoHSuduTrZOrt0LugMTKdN95jOnV40/ej0h7qwrpVupO4S3b2613SH9PT1gvSketv1zukN6NP1ffRT9bfon9HvN6AaeBmIDLYYnDV4ydBksBhiRhnjPGPQUNcw2FBhuMew3XDEyNwoxmiVUZ3RE2OiMdM4xXiLcavxoImByWyTfJMak4emBFOmqdB0m2mb6Qczc7M4szVmDWZ95lrmbPM88xrzxxZkC2+LDItKi9uWWEumZZrlTssbVrCVs5XQqsLqujVs7WItst5p3TEDM8NthmRG5Yx7NiQblk2WTY1Nly3dNsx2lW2D7euZJjMTZ26a2Tbzm52zndhun90je4p9iP0q+yb7tw5WDlyHCofbjmTHQMfljo2Ob5ysnfhOu5zuO1OdZzuvcW51/uri6iJzqXXpdzVxTXLd4XqPSWNGMNcxL7lh3Hzdlrudcvvk7uKe6X7U/S8PG480j4MefbPMZ/Fn7ZvV7WnkyfHc49npxfBK8vrZq9Pb0JvjXen9zMfYh+dT5dPLsmSlsg6xXvva+cp8T/h+8HP3W+rX7I/yD/Iv8m8PoATEBJQHPA00ChQE1gQOBjkHLQlqDsYEhwZvCr7H1mNz2dXswRDXkKUh50NJoVGh5aHPwqzCZGFNs+HZIbM3z348x3SOZE5DOAhnh28OfxJhHpER8dtc7NyIuRVzX0TaR+ZHtkVRoxZFHYwajvaN3hD9KMYiRhHTGqsWOz+2OvZDnH9cSVxn/Mz4pfFXE3QSRAmNibjE2MSqxKF5AfO2zuuZ7zy/cP7dBeYLchZcXqizULzw9CK1RZxFx5IwSXFJB5O+cMI5lZyhZHbyjuRBrh93G/cVz4e3hdfP9+SX8HtTPFNKUvoEnoLNgn6ht7BUOCDyE5WL3qQGp+5O/ZAWnrY/bVQcJ65Lx6cnpZ+UUCRpkvOL9RfnLO6QWksLpZ0Z7hlbMwZlobIqOSRfIG/MpCFD0jWFheIHRVeWV1ZF1sfs2OxjORo5kpxruVa5a3N78wLzflmCXsJd0ppvmL8yv2spa+meZdCy5GWty42XFyzvWRG04sBK4sq0lb+vsltVsur96rjVTQV6BSsKun8I+qGmULVQVnhvjcea3T+ifxT92L7Wce32td+KeEVXiu2KS4u/rOOuu/KT/U9lP42uT1nfvsFlw66N2I2SjXc3eW86UKJRklfSvXn25votjC1FW95vXbT1cqlT6e5txG2KbZ1lYWWN2022b9z+pVxYfqfCt6Juh+6OtTs+7OTtvLnLZ1ftbr3dxbs//yz6+f6eoD31lWaVpXuxe7P2vtgXu6/tF+Yv1VU6VcVVX/dL9nceiDxwvtq1uvqg7sENNXCNoqb/0PxDNw77H26standU0evKz4CjiiOvPw16de7R0OPth5jHqs9bnp8xwnqiaJ6qD63frBB2NDZmNDYcTLkZGuTR9OJ32x/23/K8FTFac3TG84QzxScGT2bd3aoWdo80CJo6W5d1ProXPy52+fnnm+/EHrh0sXAi+faWG1nL3leOnXZ/fLJK8wrDVddrtZfc7524nfn30+0u7TXX3e93njD7UZTx6yOMze9b7bc8r918Tb79tU7c+503I25e//e/Hud93n3+x6IH7x5mPVw5NGKx5jHRU/Un5Q+1X1a+YflH3WdLp2nu/y7rj2Levaom9v96rn8+ZeeghfkF6W9Br3VfQ59p/oD+2+8nPey55X01chA4Z8af+54bfH6+F8+f10bjB/seSN7M/p23Tvtd/vfO71vHYoYejqcPjzyoeij9scDn5if2j7Hfe4dyf6C+1L21fJr07fQb49H00dHpRwZZ3wUQCEKp6QA8HY/AOQEAKjIXE6cNzFbjws08X9gnMB/4on5e1xcAKhqBiAW0UgfACpWIKMtYkmIRiAa7QNgR0elTs7B4zP7mBipIik2I5MD9OghVgr+IRPz/Hd9/9MCZda/2X8BfBYIBbXtyksAAABWZVhJZk1NACoAAAAIAAGHaQAEAAAAAQAAABoAAAAAAAOShgAHAAAAEgAAAESgAgAEAAAAAQAAAB+gAwAEAAAAAQAAAE8AAAAAQVNDSUkAAABTY3JlZW5zaG90jL3YqwAAAdRpVFh0WE1MOmNvbS5hZG9iZS54bXAAAAAAADx4OnhtcG1ldGEgeG1sbnM6eD0iYWRvYmU6bnM6bWV0YS8iIHg6eG1wdGs9IlhNUCBDb3JlIDYuMC4wIj4KICAgPHJkZjpSREYgeG1sbnM6cmRmPSJodHRwOi8vd3d3LnczLm9yZy8xOTk5LzAyLzIyLXJkZi1zeW50YXgtbnMjIj4KICAgICAgPHJkZjpEZXNjcmlwdGlvbiByZGY6YWJvdXQ9IiIKICAgICAgICAgICAgeG1sbnM6ZXhpZj0iaHR0cDovL25zLmFkb2JlLmNvbS9leGlmLzEuMC8iPgogICAgICAgICA8ZXhpZjpQaXhlbFlEaW1lbnNpb24+Nzk8L2V4aWY6UGl4ZWxZRGltZW5zaW9uPgogICAgICAgICA8ZXhpZjpQaXhlbFhEaW1lbnNpb24+MzE8L2V4aWY6UGl4ZWxYRGltZW5zaW9uPgogICAgICAgICA8ZXhpZjpVc2VyQ29tbWVudD5TY3JlZW5zaG90PC9leGlmOlVzZXJDb21tZW50PgogICAgICA8L3JkZjpEZXNjcmlwdGlvbj4KICAgPC9yZGY6UkRGPgo8L3g6eG1wbWV0YT4K/1SKFAAABS9JREFUaAXtmU1vW0UUhseJwyaVusnCQAMSK34AFNKEpkWCH0CqIvawRqAixEfVRLQLpELFDrYIqaJCrKEISFoaA4IFC1aoEtCiGCmbSIlU5YNyn0ne6+Px3Gsbj+1FOZIzc2fOPe/MmTNn3rmp3M3EBbKzs+NbJiYmgp72x0aj4Wq1WnuHaSmyN2Z0hl69d8Era2trbWuuMKhUKh2XYmtry01OTpbqFdmrjCrglv9cdSNZ88UbF93Jy8+5aqm/EncyW0AlQwFfuV135+uX3MqtunB9OXBwXLz03cUWUB7OzZ0ZnNtx8VIGTGnlxEPH3LnZM44y+cyLQOenZ9zi3GseVINJCl7k4rMzr7izM6+68KyobG9vtyWZ3d1dP7hqtfPY1tfX3a93fosGFLN9OwOerT0etdfZunxUUJ66+pJbbfzU1vvV6Stu/siMb9dkQqVq6AqrUNaHHm4OgQmkb1/43JrJ66G9vma+YiLZRnGO1qHSF7i1PZ/NmAGUSbgTkoGXgdL3Tv397HepRS0ZOEuw6NozGWj/7O21AdOeDByXhtkMgJgoIJOBx0BibcSFYiMZOAYJOtwvD6jNup0+tuiJ6Sy3i9baURYlBatDXfSI+lMPPuHeOvqyW/7jBo9e1IY9G2ycckuZxtCYzBcLlw+G1Cz6ynCWYI6Nj/uDI9YG3NMPz7m7rze8y5Wc/tOas26xs7o5p+LaYnaWu9n9/p7Ay0C90WLMaE/X4BA/RbG1dKz2mLtw8k3b1HW9I3gRQWAbQYceve+RjhfFotGUgseABUqJcEtFYkvi9/z0qpu9f59MeMUD3eVbq67wxgLdfebKaen7EsYZrq2uyJV3i6/JIhY6z6Xb9T7324RIjQgesiKvqA3OLrFxM0aGC39kpL3sJLIS6uiZLGd5OWTx6qlPHbOVoINN3tnd2+eH9HU9cxnqVB7PSCNyzdxOrt3+PvraGOsQ/mCt41nGshLq6JmMZt1MnFz48QN3/a8f8tdhsdjknep4M8aTzJwtZ4VlsGt7/MiTtjuvJwH32y/bCTFhh3BhiEnTB7HeHtrYgv5nIp8zm4ERaDFJBi7jYR5Qe6xM4vaY4W7a/gfvxkvJdao6laxl0uHGxoZtyk+vlsbsge9wMRtWT0Sz/vfPbuHLF/OuauyjLVvj8J3DuRKVmB7tOtWoF4m22sLHTWB0hxZw3NWs9PRBiDOYF0LZ3Nx0h24eCpvz59i+Fy8oTDJ8VSA72Rxtj87ceocKWS5kMp46Zwy21O1c6GKz7YDX0g1dQnTUUmdCeLKQRqHEESiJ8Tn1hQO09zX6uEYhz372fIsnuwYXUNEgoFkSS7MtOJOx75e6XcZsSQBh0BII+m1sWP2wzvsMlCUt5HDiXOzR8Icb4WkwFMk3v1/P9ZRU6ON6jK3QHkHY88wFlqJMfktlUOFNVV8ybQCjN9KZjwycHTEScG3FoYOzz7UtC3M7AZFCPIc/+EhEIAoY2wMHByT8xw5tSDK3M0NcivA9rhvp6zsc39msGxkAGY0bytwDR3N83Xi5/3GB1De5vv/N8cbX5917v3yUA6mi/6vwTGpFlGz0BbrnU81bMX/gcB/e/KTls6fp9oeQjlSb4ViiJOAil/a4tAOQFyw4/UnBBVg0CI5iy+kGAs4gCEQoVIz3aRAD2+eQDRGOcAB6HtjMtQSUkBFFuG1PlmSs0VidvQ99wuWSoYELUByQ576TDP9LnZqaku1oGSYZKQ195gKm7IvDYYBjMkwetMck1BvpzO9d8H8BSujozh2f314AAAAASUVORK5CYII=;fontSize=21;fontFamily=Comic Sans MS;" parent="1" vertex="1">
          <mxGeometry x="379.5" y="74.5" width="31" height="79" as="geometry" />
        </mxCell>
        <mxCell id="eHuPorcQUrtKR36Gp4NA-48" style="edgeStyle=orthogonalEdgeStyle;rounded=0;orthogonalLoop=1;jettySize=auto;html=1;entryX=0.5;entryY=0;entryDx=0;entryDy=0;entryPerimeter=0;fontSize=21;fontFamily=Comic Sans MS;" parent="1" source="eHuPorcQUrtKR36Gp4NA-45" target="eHuPorcQUrtKR36Gp4NA-33" edge="1">
          <mxGeometry relative="1" as="geometry" />
        </mxCell>
        <mxCell id="eHuPorcQUrtKR36Gp4NA-49" style="edgeStyle=orthogonalEdgeStyle;rounded=0;orthogonalLoop=1;jettySize=auto;html=1;entryX=0.5;entryY=0;entryDx=0;entryDy=0;entryPerimeter=0;fontSize=21;fontFamily=Comic Sans MS;" parent="1" source="eHuPorcQUrtKR36Gp4NA-44" target="eHuPorcQUrtKR36Gp4NA-37" edge="1">
          <mxGeometry relative="1" as="geometry" />
        </mxCell>
        <mxCell id="eHuPorcQUrtKR36Gp4NA-51" value="" style="shape=image;verticalLabelPosition=bottom;labelBackgroundColor=default;verticalAlign=top;aspect=fixed;imageAspect=0;image=data:image/png,iVBORw0KGgoAAAANSUhEUgAAAE4AAAAaCAYAAAAZtWr8AAAKr2lDQ1BJQ0MgUHJvZmlsZQAASImVlwdUk9kSgO//p4eEkoQISAm9CdIJICX0AArSwUZIQhIIMSSEJnYWV3AtqIhgWdFFEQXXAshaAAu2RbH3BREBZV0sYEHl/cAhuPvOe++8OWcy35nMnZl7z705EwDIuhypVAyrA5AuyZRFBvky4hMSGbh+gAE0QAU44MLhyqWsiIgwgMik/bsM3wXQmL1lM5br37//r6LB48u5AEARCCfz5Nx0hI8jOsyVyjIBQB1C/MbZmdIxvoEwTYY0iPDzMRZM8McxTh5nNGk8JjrSD2EGAHgShyMTAECagfgZWVwBkoc0tgc7CU8kQTgfYa/09MU8hE8hbIHESBEey89M/i6P4G85k5U5ORyBkif2Mi54f5FcKubk/p/H8b8lXayYrGGOKEkoC45ELAU5s+dpi0OVLEmeEz7JIt54/DgLFcExk8yV+yVOslwcxZ5kHsc/VJlHPCdsklNEgcoYUSY7epL58oCoSZYtjlTWTZH5sSaZI5vqQZEWo/QL+Wxl/jxhdNwkZ4li5yh7S4sKnYrxU/plikjlXviSIN+puoHKc0iXf7d3EVu5NlMYHaw8B85U/3wJayqnPF7ZG4/vHzAVE6OMl2b6KmtJxRHKeL44SOmXZ0Up12Yil3NqbYTyDFM5IRGTDIJBBGCAAOAAXBEbBJwAyOTnZI5txG+xNFcmEggzGSzktfEZbAnXdgbDwc7BGYCxtztxNd7dH3+TEB0/5Us+BoDDZQT+nPKlJwHQgkbKDk35zM4h18oBgLMhXIUsa8KHHvvAACJQQ34XtIE+MAYWwAbpzwV4AB+k0xAQDqJBAlgIuEAI0oEMZIN8sBIUgmKwEWwF5WA32AsOgMPgKGgAp0ALuAiughvgDngEOkEPeAUGwTAYgSAIB5EhKqQNGUCmkDXkADEhLygACoMioQQoCRJAEkgB5UOroWKoBCqH9kDV0K/QSagFugx1QA+gLqgfegt9hlEwCabBerAZPBNmwiw4FI6GF8ACOAPOgwvg9XAZXAkfguvhFvgqfAfuhF/BQyiAUkHRUYYoGxQT5YcKRyWiUlAy1DJUEaoUVYmqRTWh2lC3UJ2oAdQnNBZNRTPQNmgPdDA6Bs1FZ6CXodehy9EH0PXo8+hb6C70IPobhozRxVhj3DFsTDxGgMnGFGJKMVWYE5gLmDuYHswwFoulY82xrthgbAI2FbsEuw67E1uHbcZ2YLuxQzgcThtnjfPEheM4uExcIW477hDuLO4mrgf3Ea+CN8A74APxiXgJfhW+FH8QfwZ/E9+LHyGoE0wJ7oRwAo+QS9hA2EdoIlwn9BBGiBpEc6InMZqYSlxJLCPWEi8QHxPfqaioGKm4qcxVEamsUClTOaJySaVL5ROJQrIi+ZHmkxSk9aT9pGbSA9I7MplsRvYhJ5IzyevJ1eRz5Kfkj6pUVVtVtipPdblqhWq96k3V12oENVM1ltpCtTy1UrVjatfVBtQJ6mbqfuoc9WXqFeon1e+pD2lQNew1wjXSNdZpHNS4rNFHwVHMKAEUHqWAspdyjtJNRVGNqX5ULnU1dR/1ArWHhqWZ09i0VFox7TCtnTaoSdF00ozVzNGs0Dyt2UlH0c3obLqYvoF+lH6X/nma3jTWNP60tdNqp92c9kFrupaPFl+rSKtO647WZ22GdoB2mvYm7QbtJzpoHSuduTrZOrt0LugMTKdN95jOnV40/ej0h7qwrpVupO4S3b2613SH9PT1gvSketv1zukN6NP1ffRT9bfon9HvN6AaeBmIDLYYnDV4ydBksBhiRhnjPGPQUNcw2FBhuMew3XDEyNwoxmiVUZ3RE2OiMdM4xXiLcavxoImByWyTfJMak4emBFOmqdB0m2mb6Qczc7M4szVmDWZ95lrmbPM88xrzxxZkC2+LDItKi9uWWEumZZrlTssbVrCVs5XQqsLqujVs7WItst5p3TEDM8NthmRG5Yx7NiQblk2WTY1Nly3dNsx2lW2D7euZJjMTZ26a2Tbzm52zndhun90je4p9iP0q+yb7tw5WDlyHCofbjmTHQMfljo2Ob5ysnfhOu5zuO1OdZzuvcW51/uri6iJzqXXpdzVxTXLd4XqPSWNGMNcxL7lh3Hzdlrudcvvk7uKe6X7U/S8PG480j4MefbPMZ/Fn7ZvV7WnkyfHc49npxfBK8vrZq9Pb0JvjXen9zMfYh+dT5dPLsmSlsg6xXvva+cp8T/h+8HP3W+rX7I/yD/Iv8m8PoATEBJQHPA00ChQE1gQOBjkHLQlqDsYEhwZvCr7H1mNz2dXswRDXkKUh50NJoVGh5aHPwqzCZGFNs+HZIbM3z348x3SOZE5DOAhnh28OfxJhHpER8dtc7NyIuRVzX0TaR+ZHtkVRoxZFHYwajvaN3hD9KMYiRhHTGqsWOz+2OvZDnH9cSVxn/Mz4pfFXE3QSRAmNibjE2MSqxKF5AfO2zuuZ7zy/cP7dBeYLchZcXqizULzw9CK1RZxFx5IwSXFJB5O+cMI5lZyhZHbyjuRBrh93G/cVz4e3hdfP9+SX8HtTPFNKUvoEnoLNgn6ht7BUOCDyE5WL3qQGp+5O/ZAWnrY/bVQcJ65Lx6cnpZ+UUCRpkvOL9RfnLO6QWksLpZ0Z7hlbMwZlobIqOSRfIG/MpCFD0jWFheIHRVeWV1ZF1sfs2OxjORo5kpxruVa5a3N78wLzflmCXsJd0ppvmL8yv2spa+meZdCy5GWty42XFyzvWRG04sBK4sq0lb+vsltVsur96rjVTQV6BSsKun8I+qGmULVQVnhvjcea3T+ifxT92L7Wce32td+KeEVXiu2KS4u/rOOuu/KT/U9lP42uT1nfvsFlw66N2I2SjXc3eW86UKJRklfSvXn25votjC1FW95vXbT1cqlT6e5txG2KbZ1lYWWN2022b9z+pVxYfqfCt6Juh+6OtTs+7OTtvLnLZ1ftbr3dxbs//yz6+f6eoD31lWaVpXuxe7P2vtgXu6/tF+Yv1VU6VcVVX/dL9nceiDxwvtq1uvqg7sENNXCNoqb/0PxDNw77H26standU0evKz4CjiiOvPw16de7R0OPth5jHqs9bnp8xwnqiaJ6qD63frBB2NDZmNDYcTLkZGuTR9OJ32x/23/K8FTFac3TG84QzxScGT2bd3aoWdo80CJo6W5d1ProXPy52+fnnm+/EHrh0sXAi+faWG1nL3leOnXZ/fLJK8wrDVddrtZfc7524nfn30+0u7TXX3e93njD7UZTx6yOMze9b7bc8r918Tb79tU7c+503I25e//e/Hud93n3+x6IH7x5mPVw5NGKx5jHRU/Un5Q+1X1a+YflH3WdLp2nu/y7rj2Levaom9v96rn8+ZeeghfkF6W9Br3VfQ59p/oD+2+8nPey55X01chA4Z8af+54bfH6+F8+f10bjB/seSN7M/p23Tvtd/vfO71vHYoYejqcPjzyoeij9scDn5if2j7Hfe4dyf6C+1L21fJr07fQb49H00dHpRwZZ3wUQCEKp6QA8HY/AOQEAKjIXE6cNzFbjws08X9gnMB/4on5e1xcAKhqBiAW0UgfACpWIKMtYkmIRiAa7QNgR0elTs7B4zP7mBipIik2I5MD9OghVgr+IRPz/Hd9/9MCZda/2X8BfBYIBbXtyksAAABWZVhJZk1NACoAAAAIAAGHaQAEAAAAAQAAABoAAAAAAAOShgAHAAAAEgAAAESgAgAEAAAAAQAAAE6gAwAEAAAAAQAAABoAAAAAQVNDSUkAAABTY3JlZW5zaG90d9ZIfgAAAdRpVFh0WE1MOmNvbS5hZG9iZS54bXAAAAAAADx4OnhtcG1ldGEgeG1sbnM6eD0iYWRvYmU6bnM6bWV0YS8iIHg6eG1wdGs9IlhNUCBDb3JlIDYuMC4wIj4KICAgPHJkZjpSREYgeG1sbnM6cmRmPSJodHRwOi8vd3d3LnczLm9yZy8xOTk5LzAyLzIyLXJkZi1zeW50YXgtbnMjIj4KICAgICAgPHJkZjpEZXNjcmlwdGlvbiByZGY6YWJvdXQ9IiIKICAgICAgICAgICAgeG1sbnM6ZXhpZj0iaHR0cDovL25zLmFkb2JlLmNvbS9leGlmLzEuMC8iPgogICAgICAgICA8ZXhpZjpQaXhlbFlEaW1lbnNpb24+MjY8L2V4aWY6UGl4ZWxZRGltZW5zaW9uPgogICAgICAgICA8ZXhpZjpQaXhlbFhEaW1lbnNpb24+Nzg8L2V4aWY6UGl4ZWxYRGltZW5zaW9uPgogICAgICAgICA8ZXhpZjpVc2VyQ29tbWVudD5TY3JlZW5zaG90PC9leGlmOlVzZXJDb21tZW50PgogICAgICA8L3JkZjpEZXNjcmlwdGlvbj4KICAgPC9yZGY6UkRGPgo8L3g6eG1wbWV0YT4KAVO2egAABQxJREFUWAnNWTtsXEUUvRuvt7AsgSIXi2AhkCYVVcDyh9ggIhBdPliKRJMiUjpDCEphlqyBFJFCkLsUkWgQkYxCGeUnxbZYO782VRQh4kgskkvLQv4t74x91nfnzcx7a+9LMtLbmbn3zp17z8zc+WxueXm53tnZKaG0srJi2ElyEKrValIsFkPqxNZXqV6Q8T8vONuU+76S7w+ccfJIhL4f5i5G388kNeVnB09LZeC0oW3HviZlm5XciwSu+s8D+fDKYZddMZp2XjOnns62pOPk3i9aHljdH8sd5XK50tHRwbozX19fN/QkOQgtLi5Kd3e3Uw+Jd55W5cSNr2W8+hNJJh9+s19++WxC9rxakukIEJ1MPbdB2fNKSQDY8WujkY7mmZpGR6FQEOjwpTT+PvcZ51uWrhn13cx55/IDOADOTi4drfRHfXYoIV3nzw04OIrZYTsMEM5G8Qe5nejAufsT3hiINkOlPvk2ioUfv33AVtGotwIg+w3F9HxDc0YFH2BwtjL4jRMw2xQGdnsDIegDr71nN4nVfTqok/xYQw8h0xnnG2XslOW+UxIaUdjrGvnc+a0du36mZtxyyXn8Nbv+pSe/Omcwl3oafbmlpaV6Ph+eeKurq8aOJDkILSwsyKP/HsuP0dFgen6uyX4uqYHixgxJ0ufqt3BxK6gvn5o3+l1yTR2rCuzr6emR6WdzMhPZ5zrCjPWOyljvlxKyL4yY6jBt8ejNEzJbexgTvzUyKUNv9Bk6HY0JZUQgSDPP7sr+3e9KV1eXmfG0xwbv3L0JYwliry9FoOYTlwwbJy0tLE0bNMShO8f+oIqmPEkfhX1yNt2uo70dLrgKdkVHMMQ1HK7x2XIALx9dDHyxbxeNa0euz14EzAdaO/pL0mGDoeWxKegdHgAhxundXfuj26LcVuC08qFopmkjNI9lGI6bAwI+PzjbrqQdhy0ARif78AzwYHealBlwSZ3jbgnQ9KijDWZCu8DTugEIgLn6yeWGaZrfIKYstH1zYL8Y7Yq4Z8/62ppzN2NbgDdc6pc05zO2SZvP/hvfuNK21XKZAYfRTDuijINpL/zagVAZy5M2YDAwmKyjnb10Q7ps3gtbqjQEzumP9Kn5+F2UvLS5fZzQoEEHZvV2U2bAMRgjZyINNwcmOIOYhtx2jDLbzdEfZ7PWQbq2TfPTlPNpDqNpZNBZvV5v9PnB670y9v6oTP1djdGgTx86sYzGG1IbBbRN6vf2XzNGeC2KmUi+Zy8cvvVNBrYhfvJqZRpv/iD+MsEflwz4mcU4du7Lrx+5Ip9ePeZk6xnpFNgkHpwcCbEz5bX15pDLbb40RibjZI6TvIsGjz56a1BwSccy1ect1xOT60awE1Rom0sHeEyw3dd3W2YcYpPrrY0GhHJzpRkISfh5jFEMEbxOsQX5rCOP/irwXqPAx4bBsAG/cDDnqwn4TDsCLgSYAYS9ZJQz8DMO6QdPbgB21/izJpTQDq84ehAQg5EAKgdj27sqzlyuk39/cb9zJwsZ+7Lxbn0+Gb2ebO38sA/gwV/ealqecWjIEdAOYyQQn/YV3kn8F0m3e1nLeGhlvNP+ooyvJeBcoBEwTmEuBdcyNif30mzsKgVZ14GXRwM6EAL54O8jTcsLOmHvTkKGbqvBgx2pn87xGGhv/66gyT989RO37TAfNbljhWTttrrOp/Ph3w41gaZlEAc5qKDTPi1jlxkzaR/5euL8D33vjPQs54XcAAAAAElFTkSuQmCC;fontSize=21;fontFamily=Comic Sans MS;" parent="1" vertex="1">
          <mxGeometry x="616" y="100" width="78" height="26" as="geometry" />
        </mxCell>
        <mxCell id="eHuPorcQUrtKR36Gp4NA-52" value="" style="shape=image;verticalLabelPosition=bottom;labelBackgroundColor=default;verticalAlign=top;aspect=fixed;imageAspect=0;image=data:image/png,iVBORw0KGgoAAAANSUhEUgAAAEwAAAAbCAYAAADWHGlkAAAKr2lDQ1BJQ0MgUHJvZmlsZQAASImVlwdUk9kSgO//p4eEkoQISAm9CdIJICX0AArSwUZIQhIIMSSEJnYWV3AtqIhgWdFFEQXXAshaAAu2RbH3BREBZV0sYEHl/cAhuPvOe++8OWcy35nMnZl7z705EwDIuhypVAyrA5AuyZRFBvky4hMSGbh+gAE0QAU44MLhyqWsiIgwgMik/bsM3wXQmL1lM5br37//r6LB48u5AEARCCfz5Nx0hI8jOsyVyjIBQB1C/MbZmdIxvoEwTYY0iPDzMRZM8McxTh5nNGk8JjrSD2EGAHgShyMTAECagfgZWVwBkoc0tgc7CU8kQTgfYa/09MU8hE8hbIHESBEey89M/i6P4G85k5U5ORyBkif2Mi54f5FcKubk/p/H8b8lXayYrGGOKEkoC45ELAU5s+dpi0OVLEmeEz7JIt54/DgLFcExk8yV+yVOslwcxZ5kHsc/VJlHPCdsklNEgcoYUSY7epL58oCoSZYtjlTWTZH5sSaZI5vqQZEWo/QL+Wxl/jxhdNwkZ4li5yh7S4sKnYrxU/plikjlXviSIN+puoHKc0iXf7d3EVu5NlMYHaw8B85U/3wJayqnPF7ZG4/vHzAVE6OMl2b6KmtJxRHKeL44SOmXZ0Up12Yil3NqbYTyDFM5IRGTDIJBBGCAAOAAXBEbBJwAyOTnZI5txG+xNFcmEggzGSzktfEZbAnXdgbDwc7BGYCxtztxNd7dH3+TEB0/5Us+BoDDZQT+nPKlJwHQgkbKDk35zM4h18oBgLMhXIUsa8KHHvvAACJQQ34XtIE+MAYWwAbpzwV4AB+k0xAQDqJBAlgIuEAI0oEMZIN8sBIUgmKwEWwF5WA32AsOgMPgKGgAp0ALuAiughvgDngEOkEPeAUGwTAYgSAIB5EhKqQNGUCmkDXkADEhLygACoMioQQoCRJAEkgB5UOroWKoBCqH9kDV0K/QSagFugx1QA+gLqgfegt9hlEwCabBerAZPBNmwiw4FI6GF8ACOAPOgwvg9XAZXAkfguvhFvgqfAfuhF/BQyiAUkHRUYYoGxQT5YcKRyWiUlAy1DJUEaoUVYmqRTWh2lC3UJ2oAdQnNBZNRTPQNmgPdDA6Bs1FZ6CXodehy9EH0PXo8+hb6C70IPobhozRxVhj3DFsTDxGgMnGFGJKMVWYE5gLmDuYHswwFoulY82xrthgbAI2FbsEuw67E1uHbcZ2YLuxQzgcThtnjfPEheM4uExcIW477hDuLO4mrgf3Ea+CN8A74APxiXgJfhW+FH8QfwZ/E9+LHyGoE0wJ7oRwAo+QS9hA2EdoIlwn9BBGiBpEc6InMZqYSlxJLCPWEi8QHxPfqaioGKm4qcxVEamsUClTOaJySaVL5ROJQrIi+ZHmkxSk9aT9pGbSA9I7MplsRvYhJ5IzyevJ1eRz5Kfkj6pUVVtVtipPdblqhWq96k3V12oENVM1ltpCtTy1UrVjatfVBtQJ6mbqfuoc9WXqFeon1e+pD2lQNew1wjXSNdZpHNS4rNFHwVHMKAEUHqWAspdyjtJNRVGNqX5ULnU1dR/1ArWHhqWZ09i0VFox7TCtnTaoSdF00ozVzNGs0Dyt2UlH0c3obLqYvoF+lH6X/nma3jTWNP60tdNqp92c9kFrupaPFl+rSKtO647WZ22GdoB2mvYm7QbtJzpoHSuduTrZOrt0LugMTKdN95jOnV40/ej0h7qwrpVupO4S3b2613SH9PT1gvSketv1zukN6NP1ffRT9bfon9HvN6AaeBmIDLYYnDV4ydBksBhiRhnjPGPQUNcw2FBhuMew3XDEyNwoxmiVUZ3RE2OiMdM4xXiLcavxoImByWyTfJMak4emBFOmqdB0m2mb6Qczc7M4szVmDWZ95lrmbPM88xrzxxZkC2+LDItKi9uWWEumZZrlTssbVrCVs5XQqsLqujVs7WItst5p3TEDM8NthmRG5Yx7NiQblk2WTY1Nly3dNsx2lW2D7euZJjMTZ26a2Tbzm52zndhun90je4p9iP0q+yb7tw5WDlyHCofbjmTHQMfljo2Ob5ysnfhOu5zuO1OdZzuvcW51/uri6iJzqXXpdzVxTXLd4XqPSWNGMNcxL7lh3Hzdlrudcvvk7uKe6X7U/S8PG480j4MefbPMZ/Fn7ZvV7WnkyfHc49npxfBK8vrZq9Pb0JvjXen9zMfYh+dT5dPLsmSlsg6xXvva+cp8T/h+8HP3W+rX7I/yD/Iv8m8PoATEBJQHPA00ChQE1gQOBjkHLQlqDsYEhwZvCr7H1mNz2dXswRDXkKUh50NJoVGh5aHPwqzCZGFNs+HZIbM3z348x3SOZE5DOAhnh28OfxJhHpER8dtc7NyIuRVzX0TaR+ZHtkVRoxZFHYwajvaN3hD9KMYiRhHTGqsWOz+2OvZDnH9cSVxn/Mz4pfFXE3QSRAmNibjE2MSqxKF5AfO2zuuZ7zy/cP7dBeYLchZcXqizULzw9CK1RZxFx5IwSXFJB5O+cMI5lZyhZHbyjuRBrh93G/cVz4e3hdfP9+SX8HtTPFNKUvoEnoLNgn6ht7BUOCDyE5WL3qQGp+5O/ZAWnrY/bVQcJ65Lx6cnpZ+UUCRpkvOL9RfnLO6QWksLpZ0Z7hlbMwZlobIqOSRfIG/MpCFD0jWFheIHRVeWV1ZF1sfs2OxjORo5kpxruVa5a3N78wLzflmCXsJd0ppvmL8yv2spa+meZdCy5GWty42XFyzvWRG04sBK4sq0lb+vsltVsur96rjVTQV6BSsKun8I+qGmULVQVnhvjcea3T+ifxT92L7Wce32td+KeEVXiu2KS4u/rOOuu/KT/U9lP42uT1nfvsFlw66N2I2SjXc3eW86UKJRklfSvXn25votjC1FW95vXbT1cqlT6e5txG2KbZ1lYWWN2022b9z+pVxYfqfCt6Juh+6OtTs+7OTtvLnLZ1ftbr3dxbs//yz6+f6eoD31lWaVpXuxe7P2vtgXu6/tF+Yv1VU6VcVVX/dL9nceiDxwvtq1uvqg7sENNXCNoqb/0PxDNw77H26standU0evKz4CjiiOvPw16de7R0OPth5jHqs9bnp8xwnqiaJ6qD63frBB2NDZmNDYcTLkZGuTR9OJ32x/23/K8FTFac3TG84QzxScGT2bd3aoWdo80CJo6W5d1ProXPy52+fnnm+/EHrh0sXAi+faWG1nL3leOnXZ/fLJK8wrDVddrtZfc7524nfn30+0u7TXX3e93njD7UZTx6yOMze9b7bc8r918Tb79tU7c+503I25e//e/Hud93n3+x6IH7x5mPVw5NGKx5jHRU/Un5Q+1X1a+YflH3WdLp2nu/y7rj2Levaom9v96rn8+ZeeghfkF6W9Br3VfQ59p/oD+2+8nPey55X01chA4Z8af+54bfH6+F8+f10bjB/seSN7M/p23Tvtd/vfO71vHYoYejqcPjzyoeij9scDn5if2j7Hfe4dyf6C+1L21fJr07fQb49H00dHpRwZZ3wUQCEKp6QA8HY/AOQEAKjIXE6cNzFbjws08X9gnMB/4on5e1xcAKhqBiAW0UgfACpWIKMtYkmIRiAa7QNgR0elTs7B4zP7mBipIik2I5MD9OghVgr+IRPz/Hd9/9MCZda/2X8BfBYIBbXtyksAAABWZVhJZk1NACoAAAAIAAGHaQAEAAAAAQAAABoAAAAAAAOShgAHAAAAEgAAAESgAgAEAAAAAQAAAEygAwAEAAAAAQAAABsAAAAAQVNDSUkAAABTY3JlZW5zaG90qOiLewAAAdRpVFh0WE1MOmNvbS5hZG9iZS54bXAAAAAAADx4OnhtcG1ldGEgeG1sbnM6eD0iYWRvYmU6bnM6bWV0YS8iIHg6eG1wdGs9IlhNUCBDb3JlIDYuMC4wIj4KICAgPHJkZjpSREYgeG1sbnM6cmRmPSJodHRwOi8vd3d3LnczLm9yZy8xOTk5LzAyLzIyLXJkZi1zeW50YXgtbnMjIj4KICAgICAgPHJkZjpEZXNjcmlwdGlvbiByZGY6YWJvdXQ9IiIKICAgICAgICAgICAgeG1sbnM6ZXhpZj0iaHR0cDovL25zLmFkb2JlLmNvbS9leGlmLzEuMC8iPgogICAgICAgICA8ZXhpZjpQaXhlbFlEaW1lbnNpb24+Mjc8L2V4aWY6UGl4ZWxZRGltZW5zaW9uPgogICAgICAgICA8ZXhpZjpQaXhlbFhEaW1lbnNpb24+NzY8L2V4aWY6UGl4ZWxYRGltZW5zaW9uPgogICAgICAgICA8ZXhpZjpVc2VyQ29tbWVudD5TY3JlZW5zaG90PC9leGlmOlVzZXJDb21tZW50PgogICAgICA8L3JkZjpEZXNjcmlwdGlvbj4KICAgPC9yZGY6UkRGPgo8L3g6eG1wbWV0YT4KEk25BQAABW9JREFUaAXlmU1oXFUUx+8kk6wGZhuhKdiVO12oNImkKVhc12qgexfixq+AYClN0SzEttZdF666UIzoXiN2krZJFQXdK360wrgMJCD5qu93Z/5vzrtz78xzmn7RA2/Oveeer3fuuee+e6dyOwOXwfb2NsiNjIx4zM/Rz150jb9W874ak2NPu4Wj77qZg5OeZPnOPDfn5qfmovokb3HMbuWDsZzl9jtN3xbfwg8fu7PXznka9q+c/CrnVaPZbLqxsY4O0S1G33trF7LnI0v2bb0DHdlVXKpd3Blh/vq53Ck7joNnsmA8MXqor0NW7kFtn554yw0ND3v3NAl0aPMQuFPPvl5wvytgsWApUMooZhAg+85mwbVZuJzRGuOrbuqxZwqG4Gnc7M7Wvd1dzyfHC0JB59gXs2755lpORSf+ktGDgpW1QUMf/caf193Sy4u5+opdksu31tyxxdl8kIZNTw0o5e3S0Zjw0uyiO3JgIl/ivXglE8NakjOfHi8Ey/KyLDWZ0OWf5Qnb4VLTeCxheJfnH5/2LENijGGctTNgeVBswToM/X1TG2wGWpmybWzZzAptkeX7BbyvJimms6pI7+zsuN328hCjxtQXZp+w6Xt64k1HPbAZCg86gZ3dFpY8/IK9vT3fHBrqzJ0txPjAshDEbDEh3/6+4jMaPmynfJce+aZ+L0xcpK+rhvUSTI1Nj0/4oRVTX1Zu3Uix++BqUI5Xqx1XbMDEF2KW+/2AqrZLjA+3dww5YsdEA1cqFV8ztNSoe9S6q39/n7MdyYJIENBRHe4EA4aY3hhNvNgTEEw2CDYXC6ox0OBP6bMytMvwERfxddZBqKlPn88LC35HMS8xfeCwHb6jdj9bTNa9guLU/w+rFF4ctbVM4tDD7xeNDYKxRe2KLVXGYhsT2d9rM6DOATZ7y/g2cMBQjqP+MbvUzPikX64qkmWcKMPDpsLDl75AttS3mNPH3YA7Cpgcis2wxvYb30tbMd/3JWAxxQ8SLVbj+p0wYqWGd3okAhbLSpUM7X7hBKcCNvAuGRp4VPr3JWDhsephCnZVNw9ss+vr6wXfNVYgZp3NzU1/wA3ptq9te+2fn9yJr1+xQ/5TZOnXhvvyhU/8MYbB1PYuH6y+879ccqvNH93bT73q9c492cIygn8WpMPSpC9l1/ISF+mo6qKNNV3/t275kndeCEuuIGA6qhEnLheDJRZe+OSV19w3L33uSalaIjvoCy/8zv98ycvWarXCt5heTrakQ32w/EvZtbz1ej1/37ta9HlBC9qtVFD5uOTAXuZcGAbL6pU+0TY2NtQcCPcqGT0Dxh2WXtJaxqHabzVLKrRjuxJ6RPeXjOYYVRBOdOxh3p8yso9mLiQVLOGEeCkygYrpsRNaCBgDOKNDNVZiCvpZ5ws8vHH1h+Wp1i2t1d9Pl8btfRhnS/zkGcQ/6RTWMSr0C/2nDr8hNo8LAYPC7WUq0gXJHh1mnoD5a5/2RSLOxG5d7ez1UOm4/VDQOCPOHGz5aWV4QWBra8uNjo76dnhw98T2D+Vg4cbFQoJoXCtCtU70roAxwNLxTyJF4QmXamyZxTIWWUGoQ/QY5vZDAYsFXy+IbL9NCfn5ax/m+qw9gq4MtnS1C3f6EGO7Rirj7FVu+FebbivQF5PXPbxm0Nq1mSgb8IV/guglwOKj3S9g1lf4gVSgQv+iGdZS0flNFWtmSsugw93dUsbCD5SR6dbi/L839n9J6eq17EI9+CA/rHxZnwp3+qFy2ydjeOwsf/fH1by460MQGQ62unq2OrQRaNYYi/FZGfGKT35YHtrio40vtg9NEP6/oO/AJH/7fwnJl8owMT9MmILOP1e6+eUubT/gP2Uf1DIOtpOCAAAAAElFTkSuQmCC;fontSize=21;fontFamily=Comic Sans MS;" parent="1" vertex="1">
          <mxGeometry x="740" y="99" width="76" height="27" as="geometry" />
        </mxCell>
        <mxCell id="eHuPorcQUrtKR36Gp4NA-53" value="" style="shape=image;verticalLabelPosition=bottom;labelBackgroundColor=default;verticalAlign=top;aspect=fixed;imageAspect=0;image=data:image/png,iVBORw0KGgoAAAANSUhEUgAAAE8AAAAXCAYAAABK6RIcAAAKr2lDQ1BJQ0MgUHJvZmlsZQAASImVlwdUk9kSgO//p4eEkoQISAm9CdIJICX0AArSwUZIQhIIMSSEJnYWV3AtqIhgWdFFEQXXAshaAAu2RbH3BREBZV0sYEHl/cAhuPvOe++8OWcy35nMnZl7z705EwDIuhypVAyrA5AuyZRFBvky4hMSGbh+gAE0QAU44MLhyqWsiIgwgMik/bsM3wXQmL1lM5br37//r6LB48u5AEARCCfz5Nx0hI8jOsyVyjIBQB1C/MbZmdIxvoEwTYY0iPDzMRZM8McxTh5nNGk8JjrSD2EGAHgShyMTAECagfgZWVwBkoc0tgc7CU8kQTgfYa/09MU8hE8hbIHESBEey89M/i6P4G85k5U5ORyBkif2Mi54f5FcKubk/p/H8b8lXayYrGGOKEkoC45ELAU5s+dpi0OVLEmeEz7JIt54/DgLFcExk8yV+yVOslwcxZ5kHsc/VJlHPCdsklNEgcoYUSY7epL58oCoSZYtjlTWTZH5sSaZI5vqQZEWo/QL+Wxl/jxhdNwkZ4li5yh7S4sKnYrxU/plikjlXviSIN+puoHKc0iXf7d3EVu5NlMYHaw8B85U/3wJayqnPF7ZG4/vHzAVE6OMl2b6KmtJxRHKeL44SOmXZ0Up12Yil3NqbYTyDFM5IRGTDIJBBGCAAOAAXBEbBJwAyOTnZI5txG+xNFcmEggzGSzktfEZbAnXdgbDwc7BGYCxtztxNd7dH3+TEB0/5Us+BoDDZQT+nPKlJwHQgkbKDk35zM4h18oBgLMhXIUsa8KHHvvAACJQQ34XtIE+MAYWwAbpzwV4AB+k0xAQDqJBAlgIuEAI0oEMZIN8sBIUgmKwEWwF5WA32AsOgMPgKGgAp0ALuAiughvgDngEOkEPeAUGwTAYgSAIB5EhKqQNGUCmkDXkADEhLygACoMioQQoCRJAEkgB5UOroWKoBCqH9kDV0K/QSagFugx1QA+gLqgfegt9hlEwCabBerAZPBNmwiw4FI6GF8ACOAPOgwvg9XAZXAkfguvhFvgqfAfuhF/BQyiAUkHRUYYoGxQT5YcKRyWiUlAy1DJUEaoUVYmqRTWh2lC3UJ2oAdQnNBZNRTPQNmgPdDA6Bs1FZ6CXodehy9EH0PXo8+hb6C70IPobhozRxVhj3DFsTDxGgMnGFGJKMVWYE5gLmDuYHswwFoulY82xrthgbAI2FbsEuw67E1uHbcZ2YLuxQzgcThtnjfPEheM4uExcIW477hDuLO4mrgf3Ea+CN8A74APxiXgJfhW+FH8QfwZ/E9+LHyGoE0wJ7oRwAo+QS9hA2EdoIlwn9BBGiBpEc6InMZqYSlxJLCPWEi8QHxPfqaioGKm4qcxVEamsUClTOaJySaVL5ROJQrIi+ZHmkxSk9aT9pGbSA9I7MplsRvYhJ5IzyevJ1eRz5Kfkj6pUVVtVtipPdblqhWq96k3V12oENVM1ltpCtTy1UrVjatfVBtQJ6mbqfuoc9WXqFeon1e+pD2lQNew1wjXSNdZpHNS4rNFHwVHMKAEUHqWAspdyjtJNRVGNqX5ULnU1dR/1ArWHhqWZ09i0VFox7TCtnTaoSdF00ozVzNGs0Dyt2UlH0c3obLqYvoF+lH6X/nma3jTWNP60tdNqp92c9kFrupaPFl+rSKtO647WZ22GdoB2mvYm7QbtJzpoHSuduTrZOrt0LugMTKdN95jOnV40/ej0h7qwrpVupO4S3b2613SH9PT1gvSketv1zukN6NP1ffRT9bfon9HvN6AaeBmIDLYYnDV4ydBksBhiRhnjPGPQUNcw2FBhuMew3XDEyNwoxmiVUZ3RE2OiMdM4xXiLcavxoImByWyTfJMak4emBFOmqdB0m2mb6Qczc7M4szVmDWZ95lrmbPM88xrzxxZkC2+LDItKi9uWWEumZZrlTssbVrCVs5XQqsLqujVs7WItst5p3TEDM8NthmRG5Yx7NiQblk2WTY1Nly3dNsx2lW2D7euZJjMTZ26a2Tbzm52zndhun90je4p9iP0q+yb7tw5WDlyHCofbjmTHQMfljo2Ob5ysnfhOu5zuO1OdZzuvcW51/uri6iJzqXXpdzVxTXLd4XqPSWNGMNcxL7lh3Hzdlrudcvvk7uKe6X7U/S8PG480j4MefbPMZ/Fn7ZvV7WnkyfHc49npxfBK8vrZq9Pb0JvjXen9zMfYh+dT5dPLsmSlsg6xXvva+cp8T/h+8HP3W+rX7I/yD/Iv8m8PoATEBJQHPA00ChQE1gQOBjkHLQlqDsYEhwZvCr7H1mNz2dXswRDXkKUh50NJoVGh5aHPwqzCZGFNs+HZIbM3z348x3SOZE5DOAhnh28OfxJhHpER8dtc7NyIuRVzX0TaR+ZHtkVRoxZFHYwajvaN3hD9KMYiRhHTGqsWOz+2OvZDnH9cSVxn/Mz4pfFXE3QSRAmNibjE2MSqxKF5AfO2zuuZ7zy/cP7dBeYLchZcXqizULzw9CK1RZxFx5IwSXFJB5O+cMI5lZyhZHbyjuRBrh93G/cVz4e3hdfP9+SX8HtTPFNKUvoEnoLNgn6ht7BUOCDyE5WL3qQGp+5O/ZAWnrY/bVQcJ65Lx6cnpZ+UUCRpkvOL9RfnLO6QWksLpZ0Z7hlbMwZlobIqOSRfIG/MpCFD0jWFheIHRVeWV1ZF1sfs2OxjORo5kpxruVa5a3N78wLzflmCXsJd0ppvmL8yv2spa+meZdCy5GWty42XFyzvWRG04sBK4sq0lb+vsltVsur96rjVTQV6BSsKun8I+qGmULVQVnhvjcea3T+ifxT92L7Wce32td+KeEVXiu2KS4u/rOOuu/KT/U9lP42uT1nfvsFlw66N2I2SjXc3eW86UKJRklfSvXn25votjC1FW95vXbT1cqlT6e5txG2KbZ1lYWWN2022b9z+pVxYfqfCt6Juh+6OtTs+7OTtvLnLZ1ftbr3dxbs//yz6+f6eoD31lWaVpXuxe7P2vtgXu6/tF+Yv1VU6VcVVX/dL9nceiDxwvtq1uvqg7sENNXCNoqb/0PxDNw77H26standU0evKz4CjiiOvPw16de7R0OPth5jHqs9bnp8xwnqiaJ6qD63frBB2NDZmNDYcTLkZGuTR9OJ32x/23/K8FTFac3TG84QzxScGT2bd3aoWdo80CJo6W5d1ProXPy52+fnnm+/EHrh0sXAi+faWG1nL3leOnXZ/fLJK8wrDVddrtZfc7524nfn30+0u7TXX3e93njD7UZTx6yOMze9b7bc8r918Tb79tU7c+503I25e//e/Hud93n3+x6IH7x5mPVw5NGKx5jHRU/Un5Q+1X1a+YflH3WdLp2nu/y7rj2Levaom9v96rn8+ZeeghfkF6W9Br3VfQ59p/oD+2+8nPey55X01chA4Z8af+54bfH6+F8+f10bjB/seSN7M/p23Tvtd/vfO71vHYoYejqcPjzyoeij9scDn5if2j7Hfe4dyf6C+1L21fJr07fQb49H00dHpRwZZ3wUQCEKp6QA8HY/AOQEAKjIXE6cNzFbjws08X9gnMB/4on5e1xcAKhqBiAW0UgfACpWIKMtYkmIRiAa7QNgR0elTs7B4zP7mBipIik2I5MD9OghVgr+IRPz/Hd9/9MCZda/2X8BfBYIBbXtyksAAABWZVhJZk1NACoAAAAIAAGHaQAEAAAAAQAAABoAAAAAAAOShgAHAAAAEgAAAESgAgAEAAAAAQAAAE+gAwAEAAAAAQAAABcAAAAAQVNDSUkAAABTY3JlZW5zaG90I95X1wAAAdRpVFh0WE1MOmNvbS5hZG9iZS54bXAAAAAAADx4OnhtcG1ldGEgeG1sbnM6eD0iYWRvYmU6bnM6bWV0YS8iIHg6eG1wdGs9IlhNUCBDb3JlIDYuMC4wIj4KICAgPHJkZjpSREYgeG1sbnM6cmRmPSJodHRwOi8vd3d3LnczLm9yZy8xOTk5LzAyLzIyLXJkZi1zeW50YXgtbnMjIj4KICAgICAgPHJkZjpEZXNjcmlwdGlvbiByZGY6YWJvdXQ9IiIKICAgICAgICAgICAgeG1sbnM6ZXhpZj0iaHR0cDovL25zLmFkb2JlLmNvbS9leGlmLzEuMC8iPgogICAgICAgICA8ZXhpZjpQaXhlbFlEaW1lbnNpb24+MjM8L2V4aWY6UGl4ZWxZRGltZW5zaW9uPgogICAgICAgICA8ZXhpZjpQaXhlbFhEaW1lbnNpb24+Nzk8L2V4aWY6UGl4ZWxYRGltZW5zaW9uPgogICAgICAgICA8ZXhpZjpVc2VyQ29tbWVudD5TY3JlZW5zaG90PC9leGlmOlVzZXJDb21tZW50PgogICAgICA8L3JkZjpEZXNjcmlwdGlvbj4KICAgPC9yZGY6UkRGPgo8L3g6eG1wbWV0YT4K7NGCYgAABG1JREFUWAnVWU9PE0EUn9riSW4cWgokfgHjBbCAFIx8AU1IvDcxXkQRQ0xDAKsxJoJ6MfoJSDDxbjxYVGhIPehHkGrsgSPhUMC6vym/9e10d7ttt02cZDszb96/+c2bmTcQOTw8rCqrxGIxVJ5l5u2s2ioV9PhS6q5aSs3rtkl/MHxb0xvpOz4+ruM7uz6oafipzJd0243PZjIa+/v7qq+vz6DWuls/C2pmc9Yeo36bYDSC2PVHzFD4P3QB0qPCczU5cEm7y0XuhO9WgNTw6+np8dUfiUTs8TPRqCK/SQ+qj8qoh33WJt3sk491fm9HTW9cY9feJZ9/7arl8QUVizrjpJE+KvLjO0OmbtSYYKeKBE7agM3V7WeSFFrbuRyhqXUqwsQkcMsTCyo7MudkaqIndUEsX3IuytTQmEpb3+qXGmjgTw85eZow58nacfBM4OAJJoXvw+ymunp+0tM5t4EVK4oIits4FmbF2qYoWxZoJtBuMq3SOrptMVE/53GwN1sAiF+R49K2pPvJNzMWauQhIvI/trV9XCTSeUaEjBymPs04LHmxPVloC3XkaZxku8alkd/7d6HYA200Qo88AIKPk6FvU4O1iXJLkd5OjXPt4413+sPieBW/MS+ZIPSWIo9nDoDABEyg3AzjxsuXxvQ55DbeLg2+HBwcqLVvrx2qABwWrhM3boyZtMOiS+dyctQBEgD8c3KiXxoT/SO2xIlFQ4laueAnKwJzp+caADZBzo7OqaOjI1tWNkg3/atW9YNIs8I++UC4d+GmenIlq5Aoo6QHUgovIC62Jlo/fnbJY9olXdaBIw+ZuvWUU2vf39jyAAaffK7RKJJlOI9CAG1Bq4EXQHb0jiSF1obdXGHd8Ryj8jDtBn5hwPjCxVvqXG9vXQpAELFFmL8xM384uajwIkFBBOCQx+E9nhjWNPLpjvgx6eybLxrSIYqx7d9FvUXNKA9qV7igm1K/ORY48iioD/xxpeStyTG5lUlDzUuCNWhyu6EfRrn+PqN2yl/rVGFRaTtMuy3ftnCmulhW5k2GKMRfRwBuM6VZfqkbskhPTOAQbbiNCZyUCaMdqVQq+gT2C08aKpfLKh6vz6H0ZWA9kcyDGXJy1akHNSMA28zrXep2DMgXC/M8ry3KcTe7jeZL//z4mt620hG24SQdNQFkH+kCeSDHPx35Jco8BsCPs9MsJmgY91osUzaMfiiRJx3BiuGmc7thOTG38xI6MI5CwHXn9IeyMvLkOBZmY/qV686QfEEiCvxB+DoCHowj3L1AwrgsmDhuYBmZrch6HSvSVhBQwB+EL5RtK52TbR7UbpEEvvRgSq1M3HeARvlGsuDDZSABp2y36kjQ/2HAIb//EdBhmSSThtrcysjykSTzL8+SV7ah7/HuC+t7aZNlUm4TrUY7/kk9aHvNQ/J1DTwa5dNpPF5Lkk3wcrmcymQyKpFIaBE5Ccry5UKdrLsOXhipCp1HHeSs8ONLJpOqWCyq/v5+rTaoPjB3+8z7CwmFNo0kguYrAAAAAElFTkSuQmCC;fontSize=21;fontFamily=Comic Sans MS;" parent="1" vertex="1">
          <mxGeometry x="850" y="102.5" width="79" height="23" as="geometry" />
        </mxCell>
        <mxCell id="eHuPorcQUrtKR36Gp4NA-55" value="" style="group;fontSize=21;fontFamily=Comic Sans MS;" parent="1" vertex="1" connectable="0">
          <mxGeometry x="630" y="180" width="50" height="69" as="geometry" />
        </mxCell>
        <mxCell id="eHuPorcQUrtKR36Gp4NA-56" value="" style="shape=cylinder3;whiteSpace=wrap;html=1;boundedLbl=1;backgroundOutline=1;size=15;fillColor=#6a00ff;fontColor=#ffffff;strokeColor=#3700CC;fontSize=21;fontFamily=Comic Sans MS;" parent="eHuPorcQUrtKR36Gp4NA-55" vertex="1">
          <mxGeometry y="25" width="50" height="44" as="geometry" />
        </mxCell>
        <mxCell id="eHuPorcQUrtKR36Gp4NA-57" value="" style="shape=cylinder3;whiteSpace=wrap;html=1;boundedLbl=1;backgroundOutline=1;size=15;fillColor=#d80073;fontColor=#ffffff;strokeColor=#A50040;fontSize=21;fontFamily=Comic Sans MS;" parent="eHuPorcQUrtKR36Gp4NA-55" vertex="1">
          <mxGeometry y="11.5" width="50" height="44" as="geometry" />
        </mxCell>
        <mxCell id="eHuPorcQUrtKR36Gp4NA-58" value="" style="shape=cylinder3;whiteSpace=wrap;html=1;boundedLbl=1;backgroundOutline=1;size=15;fillColor=#60a917;fontColor=#ffffff;strokeColor=#2D7600;fontSize=21;fontFamily=Comic Sans MS;" parent="eHuPorcQUrtKR36Gp4NA-55" vertex="1">
          <mxGeometry width="50" height="44" as="geometry" />
        </mxCell>
        <mxCell id="eHuPorcQUrtKR36Gp4NA-59" style="edgeStyle=orthogonalEdgeStyle;rounded=0;orthogonalLoop=1;jettySize=auto;html=1;entryX=0.5;entryY=0;entryDx=0;entryDy=0;entryPerimeter=0;fontSize=21;fontFamily=Comic Sans MS;" parent="1" source="eHuPorcQUrtKR36Gp4NA-51" target="eHuPorcQUrtKR36Gp4NA-58" edge="1">
          <mxGeometry relative="1" as="geometry" />
        </mxCell>
        <mxCell id="eHuPorcQUrtKR36Gp4NA-64" style="edgeStyle=orthogonalEdgeStyle;rounded=0;orthogonalLoop=1;jettySize=auto;html=1;entryX=1;entryY=0;entryDx=0;entryDy=15;entryPerimeter=0;fontSize=21;fontFamily=Comic Sans MS;" parent="1" source="eHuPorcQUrtKR36Gp4NA-52" target="eHuPorcQUrtKR36Gp4NA-57" edge="1">
          <mxGeometry relative="1" as="geometry" />
        </mxCell>
        <mxCell id="eHuPorcQUrtKR36Gp4NA-65" style="edgeStyle=orthogonalEdgeStyle;rounded=0;orthogonalLoop=1;jettySize=auto;html=1;entryX=1;entryY=1;entryDx=0;entryDy=-15;entryPerimeter=0;fontSize=21;fontFamily=Comic Sans MS;" parent="1" source="eHuPorcQUrtKR36Gp4NA-53" target="eHuPorcQUrtKR36Gp4NA-56" edge="1">
          <mxGeometry relative="1" as="geometry">
            <Array as="points">
              <mxPoint x="890" y="160" />
              <mxPoint x="765" y="160" />
              <mxPoint x="765" y="234" />
            </Array>
          </mxGeometry>
        </mxCell>
        <mxCell id="eHuPorcQUrtKR36Gp4NA-66" value="" style="editableCssRules=.*;html=1;shape=image;verticalLabelPosition=bottom;labelBackgroundColor=#ffffff;verticalAlign=top;aspect=fixed;imageAspect=0;image=data:image/svg+xml,PHN2ZyB4bWxucz0iaHR0cDovL3d3dy53My5vcmcvMjAwMC9zdmciIHhtbG5zOnY9Imh0dHBzOi8vdmVjdGEuaW8vbmFubyIgd2lkdGg9IjIwIiBoZWlnaHQ9IjIwIiB2aWV3Qm94PSIwIDAgMjAgMjAiPiYjeGE7CTxzdHlsZSB0eXBlPSJ0ZXh0L2NzcyI+JiN4YTsJLnN0MHtmaWxsOiM0Mjg1ZjQ7fSYjeGE7CTwvc3R5bGU+JiN4YTsJPHBhdGggY2xhc3M9InN0MCIgZD0iTTEzLjMzIDB2Mi4zOGgtMi4xNlYwSDguODN2Mi4zOEg2LjY3VjBINC4yOXYyLjM4YTIgMiAwIDAgMC0xLjkxIDEuOTFIMHYyLjM4aDIuMzh2Mi4xNEgwdjIuMzhoMi4zOHYyLjE0SDB2Mi4zOGgyLjM4YTIgMiAwIDAgMCAxLjkxIDEuOTFWMjBoMi4zOHYtMi4zOGgyLjE2VjIwaDIuMzR2LTIuMzhoMi4xNlYyMGgyLjM4di0yLjM4YTIgMiAwIDAgMCAxLjkxLTEuOTFIMjB2LTIuMzhoLTIuMzh2LTIuMTRIMjBWOC44MWgtMi4zOFY2LjY3SDIwVjQuMjloLTIuMzhhMiAyIDAgMCAwLTEuOTEtMS45MVYwem0xLjUzIDE1LjI0SDUuMTRhLjM4LjM4IDAgMCAxLS4zOC0uMzhWNS4xNGEuMzguMzggMCAwIDEgLjM4LS4zOGg5LjcyYS4zOC4zOCAwIDAgMSAuMzguMzh2OS43MmEuMzguMzggMCAwIDEtLjM4LjM4em0tMi4wNy02LjEybC0zLjUgNC44NnYtMy42M0g3LjIybDMuNjEtNC44MXYzLjU4eiIvPiYjeGE7PC9zdmc+;fontSize=21;fontFamily=Comic Sans MS;" parent="1" vertex="1">
          <mxGeometry x="638.25" y="310" width="60" height="60" as="geometry" />
        </mxCell>
        <mxCell id="eHuPorcQUrtKR36Gp4NA-67" value="" style="editableCssRules=.*;html=1;shape=image;verticalLabelPosition=bottom;labelBackgroundColor=#ffffff;verticalAlign=top;aspect=fixed;imageAspect=0;image=data:image/svg+xml,PHN2ZyB4bWxucz0iaHR0cDovL3d3dy53My5vcmcvMjAwMC9zdmciIHhtbG5zOnY9Imh0dHBzOi8vdmVjdGEuaW8vbmFubyIgd2lkdGg9IjIwIiBoZWlnaHQ9IjIwIiB2aWV3Qm94PSIwIDAgMjAgMjAiPiYjeGE7CTxzdHlsZSB0eXBlPSJ0ZXh0L2NzcyI+JiN4YTsJLnN0MHtmaWxsOiM0Mjg1ZjQ7fSYjeGE7CTwvc3R5bGU+JiN4YTsJPHBhdGggY2xhc3M9InN0MCIgZD0iTTEzLjMzIDB2Mi4zOGgtMi4xNlYwSDguODN2Mi4zOEg2LjY3VjBINC4yOXYyLjM4YTIgMiAwIDAgMC0xLjkxIDEuOTFIMHYyLjM4aDIuMzh2Mi4xNEgwdjIuMzhoMi4zOHYyLjE0SDB2Mi4zOGgyLjM4YTIgMiAwIDAgMCAxLjkxIDEuOTFWMjBoMi4zOHYtMi4zOGgyLjE2VjIwaDIuMzR2LTIuMzhoMi4xNlYyMGgyLjM4di0yLjM4YTIgMiAwIDAgMCAxLjkxLTEuOTFIMjB2LTIuMzhoLTIuMzh2LTIuMTRIMjBWOC44MWgtMi4zOFY2LjY3SDIwVjQuMjloLTIuMzhhMiAyIDAgMCAwLTEuOTEtMS45MVYwem0xLjUzIDE1LjI0SDUuMTRhLjM4LjM4IDAgMCAxLS4zOC0uMzhWNS4xNGEuMzguMzggMCAwIDEgLjM4LS4zOGg5LjcyYS4zOC4zOCAwIDAgMSAuMzguMzh2OS43MmEuMzguMzggMCAwIDEtLjM4LjM4em0tMi4wNy02LjEybC0zLjUgNC44NnYtMy42M0g3LjIybDMuNjEtNC44MXYzLjU4eiIvPiYjeGE7PC9zdmc+;fontSize=21;fontFamily=Comic Sans MS;" parent="1" vertex="1">
          <mxGeometry x="746.25" y="310" width="60" height="60" as="geometry" />
        </mxCell>
        <mxCell id="eHuPorcQUrtKR36Gp4NA-68" value="" style="editableCssRules=.*;html=1;shape=image;verticalLabelPosition=bottom;labelBackgroundColor=#ffffff;verticalAlign=top;aspect=fixed;imageAspect=0;image=data:image/svg+xml,PHN2ZyB4bWxucz0iaHR0cDovL3d3dy53My5vcmcvMjAwMC9zdmciIHhtbG5zOnY9Imh0dHBzOi8vdmVjdGEuaW8vbmFubyIgd2lkdGg9IjIwIiBoZWlnaHQ9IjIwIiB2aWV3Qm94PSIwIDAgMjAgMjAiPiYjeGE7CTxzdHlsZSB0eXBlPSJ0ZXh0L2NzcyI+JiN4YTsJLnN0MHtmaWxsOiM0Mjg1ZjQ7fSYjeGE7CTwvc3R5bGU+JiN4YTsJPHBhdGggY2xhc3M9InN0MCIgZD0iTTEzLjMzIDB2Mi4zOGgtMi4xNlYwSDguODN2Mi4zOEg2LjY3VjBINC4yOXYyLjM4YTIgMiAwIDAgMC0xLjkxIDEuOTFIMHYyLjM4aDIuMzh2Mi4xNEgwdjIuMzhoMi4zOHYyLjE0SDB2Mi4zOGgyLjM4YTIgMiAwIDAgMCAxLjkxIDEuOTFWMjBoMi4zOHYtMi4zOGgyLjE2VjIwaDIuMzR2LTIuMzhoMi4xNlYyMGgyLjM4di0yLjM4YTIgMiAwIDAgMCAxLjkxLTEuOTFIMjB2LTIuMzhoLTIuMzh2LTIuMTRIMjBWOC44MWgtMi4zOFY2LjY3SDIwVjQuMjloLTIuMzhhMiAyIDAgMCAwLTEuOTEtMS45MVYwem0xLjUzIDE1LjI0SDUuMTRhLjM4LjM4IDAgMCAxLS4zOC0uMzhWNS4xNGEuMzguMzggMCAwIDEgLjM4LS4zOGg5LjcyYS4zOC4zOCAwIDAgMSAuMzguMzh2OS43MmEuMzguMzggMCAwIDEtLjM4LjM4em0tMi4wNy02LjEybC0zLjUgNC44NnYtMy42M0g3LjIybDMuNjEtNC44MXYzLjU4eiIvPiYjeGE7PC9zdmc+;fontSize=21;fontFamily=Comic Sans MS;" parent="1" vertex="1">
          <mxGeometry x="857.75" y="310" width="60" height="60" as="geometry" />
        </mxCell>
        <mxCell id="eHuPorcQUrtKR36Gp4NA-69" value="Data" style="text;html=1;align=center;verticalAlign=middle;whiteSpace=wrap;rounded=0;rotation=0;fontSize=21;fontFamily=Comic Sans MS;" parent="1" vertex="1">
          <mxGeometry x="120" y="30" width="100" height="30" as="geometry" />
        </mxCell>
        <mxCell id="eHuPorcQUrtKR36Gp4NA-70" value="Tensor" style="text;html=1;align=center;verticalAlign=middle;whiteSpace=wrap;rounded=0;rotation=0;fontSize=21;fontFamily=Comic Sans MS;" parent="1" vertex="1">
          <mxGeometry x="415" y="30" width="100" height="30" as="geometry" />
        </mxCell>
        <mxCell id="eHuPorcQUrtKR36Gp4NA-71" value="Pipeline" style="text;html=1;align=center;verticalAlign=middle;whiteSpace=wrap;rounded=0;rotation=0;fontSize=21;fontFamily=Comic Sans MS;" parent="1" vertex="1">
          <mxGeometry x="728" y="30" width="100" height="30" as="geometry" />
        </mxCell>
        <mxCell id="eHuPorcQUrtKR36Gp4NA-72" value="GPUs" style="text;html=1;align=center;verticalAlign=middle;whiteSpace=wrap;rounded=0;rotation=0;fontSize=21;fontFamily=Comic Sans MS;" parent="1" vertex="1">
          <mxGeometry x="940" y="330" width="100" height="30" as="geometry" />
        </mxCell>
      </root>
    </mxGraphModel>
  </diagram>
  <diagram name="multicloud" id="Brj0B3-5idpqIqi8chWN">
    <mxGraphModel dx="1606" dy="335" grid="1" gridSize="10" guides="1" tooltips="1" connect="1" arrows="1" fold="1" page="1" pageScale="1" pageWidth="594" pageHeight="394" math="0" shadow="0">
      <root>
        <mxCell id="5gauVRRzIYTT4nY7AP6M-0" />
        <mxCell id="5gauVRRzIYTT4nY7AP6M-1" parent="5gauVRRzIYTT4nY7AP6M-0" />
        <mxCell id="TmMBZuxTu47_mYQe27gN-0" value="Single Cloud Provider" style="rounded=0;whiteSpace=wrap;html=1;fontSize=20;fillColor=#fad7ac;strokeColor=#b46504;" parent="5gauVRRzIYTT4nY7AP6M-1" vertex="1">
          <mxGeometry x="-560" y="442.34" width="260" height="60" as="geometry" />
        </mxCell>
        <mxCell id="TmMBZuxTu47_mYQe27gN-3" value="" style="edgeStyle=orthogonalEdgeStyle;rounded=0;orthogonalLoop=1;jettySize=auto;html=1;fontSize=20;" parent="5gauVRRzIYTT4nY7AP6M-1" source="TmMBZuxTu47_mYQe27gN-1" target="TmMBZuxTu47_mYQe27gN-2" edge="1">
          <mxGeometry relative="1" as="geometry" />
        </mxCell>
        <mxCell id="TmMBZuxTu47_mYQe27gN-5" style="edgeStyle=orthogonalEdgeStyle;rounded=0;orthogonalLoop=1;jettySize=auto;html=1;entryX=0.5;entryY=0;entryDx=0;entryDy=0;fontSize=20;" parent="5gauVRRzIYTT4nY7AP6M-1" source="TmMBZuxTu47_mYQe27gN-1" target="TmMBZuxTu47_mYQe27gN-4" edge="1">
          <mxGeometry relative="1" as="geometry" />
        </mxCell>
        <mxCell id="TmMBZuxTu47_mYQe27gN-8" value="" style="edgeStyle=orthogonalEdgeStyle;rounded=0;orthogonalLoop=1;jettySize=auto;html=1;fontSize=20;" parent="5gauVRRzIYTT4nY7AP6M-1" source="TmMBZuxTu47_mYQe27gN-1" target="TmMBZuxTu47_mYQe27gN-7" edge="1">
          <mxGeometry relative="1" as="geometry" />
        </mxCell>
        <mxCell id="TmMBZuxTu47_mYQe27gN-1" value="Multi Cloud" style="rounded=0;whiteSpace=wrap;html=1;fontSize=20;fillColor=#b0e3e6;strokeColor=#0e8088;" parent="5gauVRRzIYTT4nY7AP6M-1" vertex="1">
          <mxGeometry x="-70" y="442.34" width="150" height="60" as="geometry" />
        </mxCell>
        <mxCell id="TmMBZuxTu47_mYQe27gN-17" style="edgeStyle=orthogonalEdgeStyle;rounded=0;orthogonalLoop=1;jettySize=auto;html=1;entryX=0.5;entryY=0;entryDx=0;entryDy=0;fontSize=20;" parent="5gauVRRzIYTT4nY7AP6M-1" source="TmMBZuxTu47_mYQe27gN-2" target="TmMBZuxTu47_mYQe27gN-13" edge="1">
          <mxGeometry relative="1" as="geometry" />
        </mxCell>
        <mxCell id="TmMBZuxTu47_mYQe27gN-2" value="AWS" style="rounded=0;whiteSpace=wrap;html=1;fontSize=20;fillColor=#fa6800;fontColor=#000000;strokeColor=#C73500;" parent="5gauVRRzIYTT4nY7AP6M-1" vertex="1">
          <mxGeometry x="-230" y="542.34" width="70" height="30" as="geometry" />
        </mxCell>
        <mxCell id="TmMBZuxTu47_mYQe27gN-19" style="edgeStyle=orthogonalEdgeStyle;rounded=0;orthogonalLoop=1;jettySize=auto;html=1;entryX=0.5;entryY=0;entryDx=0;entryDy=0;fontSize=20;" parent="5gauVRRzIYTT4nY7AP6M-1" source="TmMBZuxTu47_mYQe27gN-4" target="TmMBZuxTu47_mYQe27gN-14" edge="1">
          <mxGeometry relative="1" as="geometry" />
        </mxCell>
        <mxCell id="TmMBZuxTu47_mYQe27gN-20" style="edgeStyle=orthogonalEdgeStyle;rounded=0;orthogonalLoop=1;jettySize=auto;html=1;entryX=0.5;entryY=0;entryDx=0;entryDy=0;fontSize=20;" parent="5gauVRRzIYTT4nY7AP6M-1" source="TmMBZuxTu47_mYQe27gN-4" target="TmMBZuxTu47_mYQe27gN-15" edge="1">
          <mxGeometry relative="1" as="geometry" />
        </mxCell>
        <mxCell id="TmMBZuxTu47_mYQe27gN-4" value="Goolge Cloud" style="rounded=0;whiteSpace=wrap;html=1;fontSize=20;fillColor=#f0a30a;fontColor=#000000;strokeColor=#BD7000;" parent="5gauVRRzIYTT4nY7AP6M-1" vertex="1">
          <mxGeometry x="-70" y="542.34" width="150" height="30" as="geometry" />
        </mxCell>
        <mxCell id="TmMBZuxTu47_mYQe27gN-18" style="edgeStyle=orthogonalEdgeStyle;rounded=0;orthogonalLoop=1;jettySize=auto;html=1;entryX=0.5;entryY=0;entryDx=0;entryDy=0;fontSize=20;" parent="5gauVRRzIYTT4nY7AP6M-1" source="TmMBZuxTu47_mYQe27gN-7" target="TmMBZuxTu47_mYQe27gN-16" edge="1">
          <mxGeometry relative="1" as="geometry" />
        </mxCell>
        <mxCell id="TmMBZuxTu47_mYQe27gN-7" value="Azure" style="rounded=0;whiteSpace=wrap;html=1;fontSize=20;fillColor=#e3c800;fontColor=#000000;strokeColor=#B09500;" parent="5gauVRRzIYTT4nY7AP6M-1" vertex="1">
          <mxGeometry x="160" y="542.34" width="70" height="30" as="geometry" />
        </mxCell>
        <mxCell id="TmMBZuxTu47_mYQe27gN-9" value="Service 1" style="rounded=0;whiteSpace=wrap;html=1;fontSize=20;fillColor=#dae8fc;strokeColor=#6c8ebf;" parent="5gauVRRzIYTT4nY7AP6M-1" vertex="1">
          <mxGeometry x="-560" y="520" width="120" height="30" as="geometry" />
        </mxCell>
        <mxCell id="TmMBZuxTu47_mYQe27gN-10" value="Service 2" style="rounded=0;whiteSpace=wrap;html=1;fontSize=20;fillColor=#d5e8d4;strokeColor=#82b366;" parent="5gauVRRzIYTT4nY7AP6M-1" vertex="1">
          <mxGeometry x="-420" y="520" width="123" height="30" as="geometry" />
        </mxCell>
        <mxCell id="TmMBZuxTu47_mYQe27gN-11" value="Service 3" style="rounded=0;whiteSpace=wrap;html=1;fontSize=20;fillColor=#fff2cc;strokeColor=#d6b656;" parent="5gauVRRzIYTT4nY7AP6M-1" vertex="1">
          <mxGeometry x="-560" y="561" width="120" height="30" as="geometry" />
        </mxCell>
        <mxCell id="TmMBZuxTu47_mYQe27gN-12" value="Service 4" style="rounded=0;whiteSpace=wrap;html=1;fontSize=20;fillColor=#f8cecc;strokeColor=#b85450;" parent="5gauVRRzIYTT4nY7AP6M-1" vertex="1">
          <mxGeometry x="-420" y="561" width="120" height="30" as="geometry" />
        </mxCell>
        <mxCell id="TmMBZuxTu47_mYQe27gN-13" value="Service 1" style="rounded=0;whiteSpace=wrap;html=1;fontSize=20;fillColor=#dae8fc;strokeColor=#6c8ebf;" parent="5gauVRRzIYTT4nY7AP6M-1" vertex="1">
          <mxGeometry x="-250" y="621" width="110" height="30" as="geometry" />
        </mxCell>
        <mxCell id="TmMBZuxTu47_mYQe27gN-14" value="Service 2" style="rounded=0;whiteSpace=wrap;html=1;fontSize=20;fillColor=#d5e8d4;strokeColor=#82b366;" parent="5gauVRRzIYTT4nY7AP6M-1" vertex="1">
          <mxGeometry x="-100" y="621" width="90" height="30" as="geometry" />
        </mxCell>
        <mxCell id="TmMBZuxTu47_mYQe27gN-15" value="Service 4" style="rounded=0;whiteSpace=wrap;html=1;fontSize=20;fillColor=#f8cecc;strokeColor=#b85450;" parent="5gauVRRzIYTT4nY7AP6M-1" vertex="1">
          <mxGeometry x="20" y="621" width="100" height="30" as="geometry" />
        </mxCell>
        <mxCell id="TmMBZuxTu47_mYQe27gN-16" value="Service 3" style="rounded=0;whiteSpace=wrap;html=1;fontSize=20;fillColor=#fff2cc;strokeColor=#d6b656;" parent="5gauVRRzIYTT4nY7AP6M-1" vertex="1">
          <mxGeometry x="145" y="621" width="100" height="30" as="geometry" />
        </mxCell>
        <mxCell id="TmMBZuxTu47_mYQe27gN-26" style="edgeStyle=orthogonalEdgeStyle;rounded=0;orthogonalLoop=1;jettySize=auto;html=1;entryX=0.5;entryY=1;entryDx=0;entryDy=0;fontSize=20;" parent="5gauVRRzIYTT4nY7AP6M-1" source="TmMBZuxTu47_mYQe27gN-22" target="TmMBZuxTu47_mYQe27gN-25" edge="1">
          <mxGeometry relative="1" as="geometry">
            <Array as="points">
              <mxPoint x="-430" y="680" />
              <mxPoint x="-430" y="680" />
            </Array>
          </mxGeometry>
        </mxCell>
        <mxCell id="TmMBZuxTu47_mYQe27gN-28" style="edgeStyle=orthogonalEdgeStyle;rounded=0;orthogonalLoop=1;jettySize=auto;html=1;entryX=0.5;entryY=1;entryDx=0;entryDy=0;fontSize=20;" parent="5gauVRRzIYTT4nY7AP6M-1" source="TmMBZuxTu47_mYQe27gN-22" target="TmMBZuxTu47_mYQe27gN-24" edge="1">
          <mxGeometry relative="1" as="geometry">
            <Array as="points">
              <mxPoint y="880" />
              <mxPoint y="880" />
            </Array>
          </mxGeometry>
        </mxCell>
        <mxCell id="TmMBZuxTu47_mYQe27gN-22" value="Workload" style="rounded=0;whiteSpace=wrap;html=1;fontSize=20;fillColor=#d0cee2;strokeColor=#56517e;" parent="5gauVRRzIYTT4nY7AP6M-1" vertex="1">
          <mxGeometry x="-555" y="850" width="800" height="34" as="geometry" />
        </mxCell>
        <mxCell id="TmMBZuxTu47_mYQe27gN-32" style="edgeStyle=orthogonalEdgeStyle;rounded=0;orthogonalLoop=1;jettySize=auto;html=1;" parent="5gauVRRzIYTT4nY7AP6M-1" source="TmMBZuxTu47_mYQe27gN-24" target="TmMBZuxTu47_mYQe27gN-29" edge="1">
          <mxGeometry relative="1" as="geometry" />
        </mxCell>
        <mxCell id="TmMBZuxTu47_mYQe27gN-34" style="edgeStyle=orthogonalEdgeStyle;rounded=0;orthogonalLoop=1;jettySize=auto;html=1;entryX=0.5;entryY=1;entryDx=0;entryDy=0;" parent="5gauVRRzIYTT4nY7AP6M-1" source="TmMBZuxTu47_mYQe27gN-24" target="TmMBZuxTu47_mYQe27gN-31" edge="1">
          <mxGeometry relative="1" as="geometry" />
        </mxCell>
        <mxCell id="TmMBZuxTu47_mYQe27gN-24" value="Coordinator Framework" style="rounded=0;whiteSpace=wrap;html=1;fontSize=20;fillColor=#b0e3e6;strokeColor=#0e8088;" parent="5gauVRRzIYTT4nY7AP6M-1" vertex="1">
          <mxGeometry x="-250" y="770" width="500" height="40" as="geometry" />
        </mxCell>
        <mxCell id="TmMBZuxTu47_mYQe27gN-25" value="Single Cloud Framework" style="rounded=0;whiteSpace=wrap;html=1;fontSize=20;fillColor=#fad7ac;strokeColor=#b46504;" parent="5gauVRRzIYTT4nY7AP6M-1" vertex="1">
          <mxGeometry x="-560" y="600" width="260" height="50" as="geometry" />
        </mxCell>
        <mxCell id="TmMBZuxTu47_mYQe27gN-29" value="AWS Framework" style="rounded=0;whiteSpace=wrap;html=1;fontSize=20;fillColor=#fa6800;fontColor=#000000;strokeColor=#C73500;" parent="5gauVRRzIYTT4nY7AP6M-1" vertex="1">
          <mxGeometry x="-250" y="670" width="110" height="50" as="geometry" />
        </mxCell>
        <mxCell id="TmMBZuxTu47_mYQe27gN-30" value="Google Cloud Framework" style="rounded=0;whiteSpace=wrap;html=1;fontSize=20;fillColor=#f0a30a;fontColor=#000000;strokeColor=#BD7000;" parent="5gauVRRzIYTT4nY7AP6M-1" vertex="1">
          <mxGeometry x="-100" y="670" width="220" height="50" as="geometry" />
        </mxCell>
        <mxCell id="TmMBZuxTu47_mYQe27gN-31" value="Azure Framework" style="rounded=0;whiteSpace=wrap;html=1;fontSize=20;fillColor=#e3c800;fontColor=#000000;strokeColor=#B09500;" parent="5gauVRRzIYTT4nY7AP6M-1" vertex="1">
          <mxGeometry x="145" y="670" width="105" height="50" as="geometry" />
        </mxCell>
        <mxCell id="TmMBZuxTu47_mYQe27gN-33" style="edgeStyle=orthogonalEdgeStyle;rounded=0;orthogonalLoop=1;jettySize=auto;html=1;entryX=0.455;entryY=1;entryDx=0;entryDy=0;entryPerimeter=0;" parent="5gauVRRzIYTT4nY7AP6M-1" source="TmMBZuxTu47_mYQe27gN-24" target="TmMBZuxTu47_mYQe27gN-30" edge="1">
          <mxGeometry relative="1" as="geometry" />
        </mxCell>
      </root>
    </mxGraphModel>
  </diagram>
  <diagram id="4LflJff7rZ7qxW-J_lJa" name="data-par">
    <mxGraphModel dx="1012" dy="729" grid="1" gridSize="10" guides="1" tooltips="1" connect="1" arrows="1" fold="1" page="1" pageScale="1" pageWidth="594" pageHeight="394" math="0" shadow="0">
      <root>
        <mxCell id="0" />
        <mxCell id="1" parent="0" />
        <mxCell id="9cSRHs0N1sBd8yE8GZ8z-1" value="" style="sketch=0;outlineConnect=0;fontColor=#ffffff;fillColor=#008a00;strokeColor=#005700;dashed=0;verticalLabelPosition=bottom;verticalAlign=top;align=center;html=1;fontSize=21;fontStyle=0;aspect=fixed;pointerEvents=1;shape=mxgraph.aws4.sagemaker_model;fontFamily=Comic Sans MS;" parent="1" vertex="1">
          <mxGeometry x="187.5" y="70" width="70" height="70" as="geometry" />
        </mxCell>
        <mxCell id="9cSRHs0N1sBd8yE8GZ8z-2" value="" style="sketch=0;outlineConnect=0;fontColor=#ffffff;fillColor=#008a00;strokeColor=#005700;dashed=0;verticalLabelPosition=bottom;verticalAlign=top;align=center;html=1;fontSize=21;fontStyle=0;aspect=fixed;pointerEvents=1;shape=mxgraph.aws4.sagemaker_model;fontFamily=Comic Sans MS;" parent="1" vertex="1">
          <mxGeometry x="267.5" y="70" width="70" height="70" as="geometry" />
        </mxCell>
        <mxCell id="9cSRHs0N1sBd8yE8GZ8z-3" value="" style="sketch=0;outlineConnect=0;fontColor=#ffffff;fillColor=#008a00;strokeColor=#005700;dashed=0;verticalLabelPosition=bottom;verticalAlign=top;align=center;html=1;fontSize=21;fontStyle=0;aspect=fixed;pointerEvents=1;shape=mxgraph.aws4.sagemaker_model;fontFamily=Comic Sans MS;" parent="1" vertex="1">
          <mxGeometry x="347.5" y="70" width="70" height="70" as="geometry" />
        </mxCell>
        <mxCell id="9cSRHs0N1sBd8yE8GZ8z-4" value="" style="shape=cylinder3;whiteSpace=wrap;html=1;boundedLbl=1;backgroundOutline=1;size=15;fillColor=#60a917;fontColor=#ffffff;strokeColor=#2D7600;fontSize=21;fontFamily=Comic Sans MS;" parent="1" vertex="1">
          <mxGeometry x="197.5" y="165" width="50" height="44" as="geometry" />
        </mxCell>
        <mxCell id="9cSRHs0N1sBd8yE8GZ8z-5" value="" style="shape=cylinder3;whiteSpace=wrap;html=1;boundedLbl=1;backgroundOutline=1;size=15;fillColor=#d80073;fontColor=#ffffff;strokeColor=#A50040;fontSize=21;fontFamily=Comic Sans MS;" parent="1" vertex="1">
          <mxGeometry x="277.5" y="204" width="50" height="44" as="geometry" />
        </mxCell>
        <mxCell id="9cSRHs0N1sBd8yE8GZ8z-6" value="" style="shape=cylinder3;whiteSpace=wrap;html=1;boundedLbl=1;backgroundOutline=1;size=15;fillColor=#6a00ff;fontColor=#ffffff;strokeColor=#3700CC;fontSize=21;fontFamily=Comic Sans MS;" parent="1" vertex="1">
          <mxGeometry x="357.5" y="238" width="50" height="44" as="geometry" />
        </mxCell>
        <mxCell id="9cSRHs0N1sBd8yE8GZ8z-7" value="" style="editableCssRules=.*;html=1;shape=image;verticalLabelPosition=bottom;labelBackgroundColor=#ffffff;verticalAlign=top;aspect=fixed;imageAspect=0;image=data:image/svg+xml,PHN2ZyB4bWxucz0iaHR0cDovL3d3dy53My5vcmcvMjAwMC9zdmciIHhtbG5zOnY9Imh0dHBzOi8vdmVjdGEuaW8vbmFubyIgd2lkdGg9IjIwIiBoZWlnaHQ9IjIwIiB2aWV3Qm94PSIwIDAgMjAgMjAiPiYjeGE7CTxzdHlsZSB0eXBlPSJ0ZXh0L2NzcyI+JiN4YTsJLnN0MHtmaWxsOiM0Mjg1ZjQ7fSYjeGE7CTwvc3R5bGU+JiN4YTsJPHBhdGggY2xhc3M9InN0MCIgZD0iTTEzLjMzIDB2Mi4zOGgtMi4xNlYwSDguODN2Mi4zOEg2LjY3VjBINC4yOXYyLjM4YTIgMiAwIDAgMC0xLjkxIDEuOTFIMHYyLjM4aDIuMzh2Mi4xNEgwdjIuMzhoMi4zOHYyLjE0SDB2Mi4zOGgyLjM4YTIgMiAwIDAgMCAxLjkxIDEuOTFWMjBoMi4zOHYtMi4zOGgyLjE2VjIwaDIuMzR2LTIuMzhoMi4xNlYyMGgyLjM4di0yLjM4YTIgMiAwIDAgMCAxLjkxLTEuOTFIMjB2LTIuMzhoLTIuMzh2LTIuMTRIMjBWOC44MWgtMi4zOFY2LjY3SDIwVjQuMjloLTIuMzhhMiAyIDAgMCAwLTEuOTEtMS45MVYwem0xLjUzIDE1LjI0SDUuMTRhLjM4LjM4IDAgMCAxLS4zOC0uMzhWNS4xNGEuMzguMzggMCAwIDEgLjM4LS4zOGg5LjcyYS4zOC4zOCAwIDAgMSAuMzguMzh2OS43MmEuMzguMzggMCAwIDEtLjM4LjM4em0tMi4wNy02LjEybC0zLjUgNC44NnYtMy42M0g3LjIybDMuNjEtNC44MXYzLjU4eiIvPiYjeGE7PC9zdmc+;fontSize=21;fontFamily=Comic Sans MS;" parent="1" vertex="1">
          <mxGeometry x="192.5" y="300" width="60" height="60" as="geometry" />
        </mxCell>
        <mxCell id="9cSRHs0N1sBd8yE8GZ8z-8" value="" style="editableCssRules=.*;html=1;shape=image;verticalLabelPosition=bottom;labelBackgroundColor=#ffffff;verticalAlign=top;aspect=fixed;imageAspect=0;image=data:image/svg+xml,PHN2ZyB4bWxucz0iaHR0cDovL3d3dy53My5vcmcvMjAwMC9zdmciIHhtbG5zOnY9Imh0dHBzOi8vdmVjdGEuaW8vbmFubyIgd2lkdGg9IjIwIiBoZWlnaHQ9IjIwIiB2aWV3Qm94PSIwIDAgMjAgMjAiPiYjeGE7CTxzdHlsZSB0eXBlPSJ0ZXh0L2NzcyI+JiN4YTsJLnN0MHtmaWxsOiM0Mjg1ZjQ7fSYjeGE7CTwvc3R5bGU+JiN4YTsJPHBhdGggY2xhc3M9InN0MCIgZD0iTTEzLjMzIDB2Mi4zOGgtMi4xNlYwSDguODN2Mi4zOEg2LjY3VjBINC4yOXYyLjM4YTIgMiAwIDAgMC0xLjkxIDEuOTFIMHYyLjM4aDIuMzh2Mi4xNEgwdjIuMzhoMi4zOHYyLjE0SDB2Mi4zOGgyLjM4YTIgMiAwIDAgMCAxLjkxIDEuOTFWMjBoMi4zOHYtMi4zOGgyLjE2VjIwaDIuMzR2LTIuMzhoMi4xNlYyMGgyLjM4di0yLjM4YTIgMiAwIDAgMCAxLjkxLTEuOTFIMjB2LTIuMzhoLTIuMzh2LTIuMTRIMjBWOC44MWgtMi4zOFY2LjY3SDIwVjQuMjloLTIuMzhhMiAyIDAgMCAwLTEuOTEtMS45MVYwem0xLjUzIDE1LjI0SDUuMTRhLjM4LjM4IDAgMCAxLS4zOC0uMzhWNS4xNGEuMzguMzggMCAwIDEgLjM4LS4zOGg5LjcyYS4zOC4zOCAwIDAgMSAuMzguMzh2OS43MmEuMzguMzggMCAwIDEtLjM4LjM4em0tMi4wNy02LjEybC0zLjUgNC44NnYtMy42M0g3LjIybDMuNjEtNC44MXYzLjU4eiIvPiYjeGE7PC9zdmc+;fontSize=21;fontFamily=Comic Sans MS;" parent="1" vertex="1">
          <mxGeometry x="272.5" y="300" width="60" height="60" as="geometry" />
        </mxCell>
        <mxCell id="9cSRHs0N1sBd8yE8GZ8z-9" value="" style="editableCssRules=.*;html=1;shape=image;verticalLabelPosition=bottom;labelBackgroundColor=#ffffff;verticalAlign=top;aspect=fixed;imageAspect=0;image=data:image/svg+xml,PHN2ZyB4bWxucz0iaHR0cDovL3d3dy53My5vcmcvMjAwMC9zdmciIHhtbG5zOnY9Imh0dHBzOi8vdmVjdGEuaW8vbmFubyIgd2lkdGg9IjIwIiBoZWlnaHQ9IjIwIiB2aWV3Qm94PSIwIDAgMjAgMjAiPiYjeGE7CTxzdHlsZSB0eXBlPSJ0ZXh0L2NzcyI+JiN4YTsJLnN0MHtmaWxsOiM0Mjg1ZjQ7fSYjeGE7CTwvc3R5bGU+JiN4YTsJPHBhdGggY2xhc3M9InN0MCIgZD0iTTEzLjMzIDB2Mi4zOGgtMi4xNlYwSDguODN2Mi4zOEg2LjY3VjBINC4yOXYyLjM4YTIgMiAwIDAgMC0xLjkxIDEuOTFIMHYyLjM4aDIuMzh2Mi4xNEgwdjIuMzhoMi4zOHYyLjE0SDB2Mi4zOGgyLjM4YTIgMiAwIDAgMCAxLjkxIDEuOTFWMjBoMi4zOHYtMi4zOGgyLjE2VjIwaDIuMzR2LTIuMzhoMi4xNlYyMGgyLjM4di0yLjM4YTIgMiAwIDAgMCAxLjkxLTEuOTFIMjB2LTIuMzhoLTIuMzh2LTIuMTRIMjBWOC44MWgtMi4zOFY2LjY3SDIwVjQuMjloLTIuMzhhMiAyIDAgMCAwLTEuOTEtMS45MVYwem0xLjUzIDE1LjI0SDUuMTRhLjM4LjM4IDAgMCAxLS4zOC0uMzhWNS4xNGEuMzguMzggMCAwIDEgLjM4LS4zOGg5LjcyYS4zOC4zOCAwIDAgMSAuMzguMzh2OS43MmEuMzguMzggMCAwIDEtLjM4LjM4em0tMi4wNy02LjEybC0zLjUgNC44NnYtMy42M0g3LjIybDMuNjEtNC44MXYzLjU4eiIvPiYjeGE7PC9zdmc+;fontSize=21;fontFamily=Comic Sans MS;" parent="1" vertex="1">
          <mxGeometry x="352.5" y="300" width="60" height="60" as="geometry" />
        </mxCell>
        <mxCell id="9cSRHs0N1sBd8yE8GZ8z-10" value="Model" style="text;html=1;align=center;verticalAlign=middle;whiteSpace=wrap;rounded=0;rotation=-90;fontSize=21;fontFamily=Comic Sans MS;" parent="1" vertex="1">
          <mxGeometry x="107.5" y="90" width="100" height="30" as="geometry" />
        </mxCell>
        <mxCell id="9cSRHs0N1sBd8yE8GZ8z-11" value="Dataset" style="text;html=1;align=center;verticalAlign=middle;whiteSpace=wrap;rounded=0;rotation=-90;fontSize=21;fontFamily=Comic Sans MS;" parent="1" vertex="1">
          <mxGeometry x="90" y="205.5" width="135" height="30" as="geometry" />
        </mxCell>
        <mxCell id="9cSRHs0N1sBd8yE8GZ8z-12" style="edgeStyle=orthogonalEdgeStyle;rounded=0;orthogonalLoop=1;jettySize=auto;html=1;entryX=0.5;entryY=0;entryDx=0;entryDy=0;entryPerimeter=0;fontSize=21;fontFamily=Comic Sans MS;strokeWidth=3.1496;" parent="1" source="9cSRHs0N1sBd8yE8GZ8z-1" target="9cSRHs0N1sBd8yE8GZ8z-4" edge="1">
          <mxGeometry relative="1" as="geometry" />
        </mxCell>
        <mxCell id="9cSRHs0N1sBd8yE8GZ8z-13" style="edgeStyle=orthogonalEdgeStyle;rounded=0;orthogonalLoop=1;jettySize=auto;html=1;entryX=0.5;entryY=0;entryDx=0;entryDy=0;entryPerimeter=0;fontSize=21;fontFamily=Comic Sans MS;strokeWidth=3.1496;" parent="1" source="9cSRHs0N1sBd8yE8GZ8z-3" target="9cSRHs0N1sBd8yE8GZ8z-6" edge="1">
          <mxGeometry relative="1" as="geometry" />
        </mxCell>
        <mxCell id="9cSRHs0N1sBd8yE8GZ8z-14" style="edgeStyle=orthogonalEdgeStyle;rounded=0;orthogonalLoop=1;jettySize=auto;html=1;entryX=0.5;entryY=0;entryDx=0;entryDy=0;entryPerimeter=0;fontSize=21;fontFamily=Comic Sans MS;strokeWidth=3.1496;" parent="1" source="9cSRHs0N1sBd8yE8GZ8z-2" target="9cSRHs0N1sBd8yE8GZ8z-5" edge="1">
          <mxGeometry relative="1" as="geometry" />
        </mxCell>
        <mxCell id="9cSRHs0N1sBd8yE8GZ8z-16" value="GPUs" style="text;html=1;align=center;verticalAlign=middle;whiteSpace=wrap;rounded=0;rotation=0;fontSize=21;fontFamily=Comic Sans MS;" parent="1" vertex="1">
          <mxGeometry x="70" y="315" width="100" height="30" as="geometry" />
        </mxCell>
      </root>
    </mxGraphModel>
  </diagram>
  <diagram id="a1p848FEn6wiRVCv_Hai" name="pipeline-par">
    <mxGraphModel dx="1012" dy="729" grid="1" gridSize="10" guides="1" tooltips="1" connect="1" arrows="1" fold="1" page="1" pageScale="1" pageWidth="594" pageHeight="394" math="0" shadow="0">
      <root>
        <mxCell id="0" />
        <mxCell id="1" parent="0" />
        <mxCell id="0WmYDVEKU2jnYgXgAKy6-13" value="" style="editableCssRules=.*;html=1;shape=image;verticalLabelPosition=bottom;labelBackgroundColor=#ffffff;verticalAlign=top;aspect=fixed;imageAspect=0;image=data:image/svg+xml,PHN2ZyB4bWxucz0iaHR0cDovL3d3dy53My5vcmcvMjAwMC9zdmciIHhtbG5zOnY9Imh0dHBzOi8vdmVjdGEuaW8vbmFubyIgd2lkdGg9IjIwIiBoZWlnaHQ9IjIwIiB2aWV3Qm94PSIwIDAgMjAgMjAiPiYjeGE7CTxzdHlsZSB0eXBlPSJ0ZXh0L2NzcyI+JiN4YTsJLnN0MHtmaWxsOiM0Mjg1ZjQ7fSYjeGE7CTwvc3R5bGU+JiN4YTsJPHBhdGggY2xhc3M9InN0MCIgZD0iTTEzLjMzIDB2Mi4zOGgtMi4xNlYwSDguODN2Mi4zOEg2LjY3VjBINC4yOXYyLjM4YTIgMiAwIDAgMC0xLjkxIDEuOTFIMHYyLjM4aDIuMzh2Mi4xNEgwdjIuMzhoMi4zOHYyLjE0SDB2Mi4zOGgyLjM4YTIgMiAwIDAgMCAxLjkxIDEuOTFWMjBoMi4zOHYtMi4zOGgyLjE2VjIwaDIuMzR2LTIuMzhoMi4xNlYyMGgyLjM4di0yLjM4YTIgMiAwIDAgMCAxLjkxLTEuOTFIMjB2LTIuMzhoLTIuMzh2LTIuMTRIMjBWOC44MWgtMi4zOFY2LjY3SDIwVjQuMjloLTIuMzhhMiAyIDAgMCAwLTEuOTEtMS45MVYwem0xLjUzIDE1LjI0SDUuMTRhLjM4LjM4IDAgMCAxLS4zOC0uMzhWNS4xNGEuMzguMzggMCAwIDEgLjM4LS4zOGg5LjcyYS4zOC4zOCAwIDAgMSAuMzguMzh2OS43MmEuMzguMzggMCAwIDEtLjM4LjM4em0tMi4wNy02LjEybC0zLjUgNC44NnYtMy42M0g3LjIybDMuNjEtNC44MXYzLjU4eiIvPiYjeGE7PC9zdmc+;fontSize=21;fontFamily=Comic Sans MS;" parent="1" vertex="1">
          <mxGeometry x="115" y="270" width="60" height="60" as="geometry" />
        </mxCell>
        <mxCell id="0WmYDVEKU2jnYgXgAKy6-14" value="" style="editableCssRules=.*;html=1;shape=image;verticalLabelPosition=bottom;labelBackgroundColor=#ffffff;verticalAlign=top;aspect=fixed;imageAspect=0;image=data:image/svg+xml,PHN2ZyB4bWxucz0iaHR0cDovL3d3dy53My5vcmcvMjAwMC9zdmciIHhtbG5zOnY9Imh0dHBzOi8vdmVjdGEuaW8vbmFubyIgd2lkdGg9IjIwIiBoZWlnaHQ9IjIwIiB2aWV3Qm94PSIwIDAgMjAgMjAiPiYjeGE7CTxzdHlsZSB0eXBlPSJ0ZXh0L2NzcyI+JiN4YTsJLnN0MHtmaWxsOiM0Mjg1ZjQ7fSYjeGE7CTwvc3R5bGU+JiN4YTsJPHBhdGggY2xhc3M9InN0MCIgZD0iTTEzLjMzIDB2Mi4zOGgtMi4xNlYwSDguODN2Mi4zOEg2LjY3VjBINC4yOXYyLjM4YTIgMiAwIDAgMC0xLjkxIDEuOTFIMHYyLjM4aDIuMzh2Mi4xNEgwdjIuMzhoMi4zOHYyLjE0SDB2Mi4zOGgyLjM4YTIgMiAwIDAgMCAxLjkxIDEuOTFWMjBoMi4zOHYtMi4zOGgyLjE2VjIwaDIuMzR2LTIuMzhoMi4xNlYyMGgyLjM4di0yLjM4YTIgMiAwIDAgMCAxLjkxLTEuOTFIMjB2LTIuMzhoLTIuMzh2LTIuMTRIMjBWOC44MWgtMi4zOFY2LjY3SDIwVjQuMjloLTIuMzhhMiAyIDAgMCAwLTEuOTEtMS45MVYwem0xLjUzIDE1LjI0SDUuMTRhLjM4LjM4IDAgMCAxLS4zOC0uMzhWNS4xNGEuMzguMzggMCAwIDEgLjM4LS4zOGg5LjcyYS4zOC4zOCAwIDAgMSAuMzguMzh2OS43MmEuMzguMzggMCAwIDEtLjM4LjM4em0tMi4wNy02LjEybC0zLjUgNC44NnYtMy42M0g3LjIybDMuNjEtNC44MXYzLjU4eiIvPiYjeGE7PC9zdmc+;fontSize=21;fontFamily=Comic Sans MS;" parent="1" vertex="1">
          <mxGeometry x="180" y="270" width="60" height="60" as="geometry" />
        </mxCell>
        <mxCell id="0WmYDVEKU2jnYgXgAKy6-15" value="" style="editableCssRules=.*;html=1;shape=image;verticalLabelPosition=bottom;labelBackgroundColor=#ffffff;verticalAlign=top;aspect=fixed;imageAspect=0;image=data:image/svg+xml,PHN2ZyB4bWxucz0iaHR0cDovL3d3dy53My5vcmcvMjAwMC9zdmciIHhtbG5zOnY9Imh0dHBzOi8vdmVjdGEuaW8vbmFubyIgd2lkdGg9IjIwIiBoZWlnaHQ9IjIwIiB2aWV3Qm94PSIwIDAgMjAgMjAiPiYjeGE7CTxzdHlsZSB0eXBlPSJ0ZXh0L2NzcyI+JiN4YTsJLnN0MHtmaWxsOiM0Mjg1ZjQ7fSYjeGE7CTwvc3R5bGU+JiN4YTsJPHBhdGggY2xhc3M9InN0MCIgZD0iTTEzLjMzIDB2Mi4zOGgtMi4xNlYwSDguODN2Mi4zOEg2LjY3VjBINC4yOXYyLjM4YTIgMiAwIDAgMC0xLjkxIDEuOTFIMHYyLjM4aDIuMzh2Mi4xNEgwdjIuMzhoMi4zOHYyLjE0SDB2Mi4zOGgyLjM4YTIgMiAwIDAgMCAxLjkxIDEuOTFWMjBoMi4zOHYtMi4zOGgyLjE2VjIwaDIuMzR2LTIuMzhoMi4xNlYyMGgyLjM4di0yLjM4YTIgMiAwIDAgMCAxLjkxLTEuOTFIMjB2LTIuMzhoLTIuMzh2LTIuMTRIMjBWOC44MWgtMi4zOFY2LjY3SDIwVjQuMjloLTIuMzhhMiAyIDAgMCAwLTEuOTEtMS45MVYwem0xLjUzIDE1LjI0SDUuMTRhLjM4LjM4IDAgMCAxLS4zOC0uMzhWNS4xNGEuMzguMzggMCAwIDEgLjM4LS4zOGg5LjcyYS4zOC4zOCAwIDAgMSAuMzguMzh2OS43MmEuMzguMzggMCAwIDEtLjM4LjM4em0tMi4wNy02LjEybC0zLjUgNC44NnYtMy42M0g3LjIybDMuNjEtNC44MXYzLjU4eiIvPiYjeGE7PC9zdmc+;fontSize=21;fontFamily=Comic Sans MS;" parent="1" vertex="1">
          <mxGeometry x="248" y="270" width="60" height="60" as="geometry" />
        </mxCell>
        <mxCell id="y4Sot-vwYikgqpv3T3Ur-1" value="Model" style="text;html=1;align=center;verticalAlign=middle;whiteSpace=wrap;rounded=0;rotation=-90;fontSize=21;fontFamily=Comic Sans MS;" parent="1" vertex="1">
          <mxGeometry x="20" y="80" width="100" height="30" as="geometry" />
        </mxCell>
        <mxCell id="y4Sot-vwYikgqpv3T3Ur-2" value="Dataset" style="text;html=1;align=center;verticalAlign=middle;whiteSpace=wrap;rounded=0;rotation=-90;fontSize=21;fontFamily=Comic Sans MS;" parent="1" vertex="1">
          <mxGeometry x="2.5" y="200" width="135" height="30" as="geometry" />
        </mxCell>
        <mxCell id="y4Sot-vwYikgqpv3T3Ur-3" value="GPUs" style="text;html=1;align=center;verticalAlign=middle;whiteSpace=wrap;rounded=0;rotation=0;fontSize=21;fontFamily=Comic Sans MS;" parent="1" vertex="1">
          <mxGeometry x="160" y="330" width="100" height="30" as="geometry" />
        </mxCell>
        <mxCell id="y4Sot-vwYikgqpv3T3Ur-4" value="Layer 0" style="rounded=0;whiteSpace=wrap;html=1;fontSize=18;fontFamily=Comic Sans MS;" parent="1" vertex="1">
          <mxGeometry x="330" y="40" width="70" height="60" as="geometry" />
        </mxCell>
        <mxCell id="y4Sot-vwYikgqpv3T3Ur-6" value="Layer 5" style="rounded=0;whiteSpace=wrap;html=1;fontSize=18;fontFamily=Comic Sans MS;" parent="1" vertex="1">
          <mxGeometry x="410" y="40" width="70" height="59" as="geometry" />
        </mxCell>
        <mxCell id="y4Sot-vwYikgqpv3T3Ur-7" value="Layer 10" style="rounded=0;whiteSpace=wrap;html=1;fontSize=18;fontFamily=Comic Sans MS;" parent="1" vertex="1">
          <mxGeometry x="490" y="40" width="80" height="60" as="geometry" />
        </mxCell>
        <mxCell id="y4Sot-vwYikgqpv3T3Ur-8" value="Layer 4" style="rounded=0;whiteSpace=wrap;html=1;fontSize=18;fontFamily=Comic Sans MS;" parent="1" vertex="1">
          <mxGeometry x="330" y="130" width="70" height="60" as="geometry" />
        </mxCell>
        <mxCell id="y4Sot-vwYikgqpv3T3Ur-9" value="Layer 9" style="rounded=0;whiteSpace=wrap;html=1;fontSize=18;fontFamily=Comic Sans MS;" parent="1" vertex="1">
          <mxGeometry x="410" y="132" width="70" height="58" as="geometry" />
        </mxCell>
        <mxCell id="y4Sot-vwYikgqpv3T3Ur-10" value="Layer 14" style="rounded=0;whiteSpace=wrap;html=1;fontSize=18;fontFamily=Comic Sans MS;" parent="1" vertex="1">
          <mxGeometry x="490" y="132" width="80" height="58" as="geometry" />
        </mxCell>
        <mxCell id="y4Sot-vwYikgqpv3T3Ur-11" style="edgeStyle=orthogonalEdgeStyle;rounded=0;orthogonalLoop=1;jettySize=auto;html=1;fontSize=18;fontFamily=Comic Sans MS;strokeWidth=3.1496;exitX=0.5;exitY=1;exitDx=0;exitDy=0;dashed=1;endArrow=none;endFill=0;dashPattern=1 1;entryX=0.5;entryY=0;entryDx=0;entryDy=0;" parent="1" source="y4Sot-vwYikgqpv3T3Ur-4" target="y4Sot-vwYikgqpv3T3Ur-8" edge="1">
          <mxGeometry relative="1" as="geometry">
            <mxPoint x="190" y="161" as="sourcePoint" />
            <mxPoint x="395" y="120" as="targetPoint" />
          </mxGeometry>
        </mxCell>
        <mxCell id="y4Sot-vwYikgqpv3T3Ur-12" style="edgeStyle=orthogonalEdgeStyle;rounded=0;orthogonalLoop=1;jettySize=auto;html=1;fontSize=18;fontFamily=Comic Sans MS;strokeWidth=3.1496;exitX=0.5;exitY=1;exitDx=0;exitDy=0;dashed=1;endArrow=none;endFill=0;dashPattern=1 1;entryX=0.5;entryY=0;entryDx=0;entryDy=0;" parent="1" source="y4Sot-vwYikgqpv3T3Ur-6" target="y4Sot-vwYikgqpv3T3Ur-9" edge="1">
          <mxGeometry relative="1" as="geometry">
            <mxPoint x="405" y="110" as="sourcePoint" />
            <mxPoint x="455" y="120" as="targetPoint" />
          </mxGeometry>
        </mxCell>
        <mxCell id="y4Sot-vwYikgqpv3T3Ur-13" style="edgeStyle=orthogonalEdgeStyle;rounded=0;orthogonalLoop=1;jettySize=auto;html=1;fontSize=18;fontFamily=Comic Sans MS;strokeWidth=3.1496;exitX=0.5;exitY=1;exitDx=0;exitDy=0;dashed=1;endArrow=none;endFill=0;dashPattern=1 1;entryX=0.5;entryY=0;entryDx=0;entryDy=0;" parent="1" source="y4Sot-vwYikgqpv3T3Ur-7" target="y4Sot-vwYikgqpv3T3Ur-10" edge="1">
          <mxGeometry relative="1" as="geometry">
            <mxPoint x="415" y="120" as="sourcePoint" />
            <mxPoint x="515" y="120" as="targetPoint" />
          </mxGeometry>
        </mxCell>
        <mxCell id="r0tr0quYn_k1Nb-VesR2-1" value="" style="shape=image;verticalLabelPosition=bottom;labelBackgroundColor=default;verticalAlign=top;aspect=fixed;imageAspect=0;image=data:image/png,iVBORw0KGgoAAAANSUhEUgAAAEwAAAAbCAYAAADWHGlkAAAKr2lDQ1BJQ0MgUHJvZmlsZQAASImVlwdUk9kSgO//p4eEkoQISAm9CdIJICX0AArSwUZIQhIIMSSEJnYWV3AtqIhgWdFFEQXXAshaAAu2RbH3BREBZV0sYEHl/cAhuPvOe++8OWcy35nMnZl7z705EwDIuhypVAyrA5AuyZRFBvky4hMSGbh+gAE0QAU44MLhyqWsiIgwgMik/bsM3wXQmL1lM5br37//r6LB48u5AEARCCfz5Nx0hI8jOsyVyjIBQB1C/MbZmdIxvoEwTYY0iPDzMRZM8McxTh5nNGk8JjrSD2EGAHgShyMTAECagfgZWVwBkoc0tgc7CU8kQTgfYa/09MU8hE8hbIHESBEey89M/i6P4G85k5U5ORyBkif2Mi54f5FcKubk/p/H8b8lXayYrGGOKEkoC45ELAU5s+dpi0OVLEmeEz7JIt54/DgLFcExk8yV+yVOslwcxZ5kHsc/VJlHPCdsklNEgcoYUSY7epL58oCoSZYtjlTWTZH5sSaZI5vqQZEWo/QL+Wxl/jxhdNwkZ4li5yh7S4sKnYrxU/plikjlXviSIN+puoHKc0iXf7d3EVu5NlMYHaw8B85U/3wJayqnPF7ZG4/vHzAVE6OMl2b6KmtJxRHKeL44SOmXZ0Up12Yil3NqbYTyDFM5IRGTDIJBBGCAAOAAXBEbBJwAyOTnZI5txG+xNFcmEggzGSzktfEZbAnXdgbDwc7BGYCxtztxNd7dH3+TEB0/5Us+BoDDZQT+nPKlJwHQgkbKDk35zM4h18oBgLMhXIUsa8KHHvvAACJQQ34XtIE+MAYWwAbpzwV4AB+k0xAQDqJBAlgIuEAI0oEMZIN8sBIUgmKwEWwF5WA32AsOgMPgKGgAp0ALuAiughvgDngEOkEPeAUGwTAYgSAIB5EhKqQNGUCmkDXkADEhLygACoMioQQoCRJAEkgB5UOroWKoBCqH9kDV0K/QSagFugx1QA+gLqgfegt9hlEwCabBerAZPBNmwiw4FI6GF8ACOAPOgwvg9XAZXAkfguvhFvgqfAfuhF/BQyiAUkHRUYYoGxQT5YcKRyWiUlAy1DJUEaoUVYmqRTWh2lC3UJ2oAdQnNBZNRTPQNmgPdDA6Bs1FZ6CXodehy9EH0PXo8+hb6C70IPobhozRxVhj3DFsTDxGgMnGFGJKMVWYE5gLmDuYHswwFoulY82xrthgbAI2FbsEuw67E1uHbcZ2YLuxQzgcThtnjfPEheM4uExcIW477hDuLO4mrgf3Ea+CN8A74APxiXgJfhW+FH8QfwZ/E9+LHyGoE0wJ7oRwAo+QS9hA2EdoIlwn9BBGiBpEc6InMZqYSlxJLCPWEi8QHxPfqaioGKm4qcxVEamsUClTOaJySaVL5ROJQrIi+ZHmkxSk9aT9pGbSA9I7MplsRvYhJ5IzyevJ1eRz5Kfkj6pUVVtVtipPdblqhWq96k3V12oENVM1ltpCtTy1UrVjatfVBtQJ6mbqfuoc9WXqFeon1e+pD2lQNew1wjXSNdZpHNS4rNFHwVHMKAEUHqWAspdyjtJNRVGNqX5ULnU1dR/1ArWHhqWZ09i0VFox7TCtnTaoSdF00ozVzNGs0Dyt2UlH0c3obLqYvoF+lH6X/nma3jTWNP60tdNqp92c9kFrupaPFl+rSKtO647WZ22GdoB2mvYm7QbtJzpoHSuduTrZOrt0LugMTKdN95jOnV40/ej0h7qwrpVupO4S3b2613SH9PT1gvSketv1zukN6NP1ffRT9bfon9HvN6AaeBmIDLYYnDV4ydBksBhiRhnjPGPQUNcw2FBhuMew3XDEyNwoxmiVUZ3RE2OiMdM4xXiLcavxoImByWyTfJMak4emBFOmqdB0m2mb6Qczc7M4szVmDWZ95lrmbPM88xrzxxZkC2+LDItKi9uWWEumZZrlTssbVrCVs5XQqsLqujVs7WItst5p3TEDM8NthmRG5Yx7NiQblk2WTY1Nly3dNsx2lW2D7euZJjMTZ26a2Tbzm52zndhun90je4p9iP0q+yb7tw5WDlyHCofbjmTHQMfljo2Ob5ysnfhOu5zuO1OdZzuvcW51/uri6iJzqXXpdzVxTXLd4XqPSWNGMNcxL7lh3Hzdlrudcvvk7uKe6X7U/S8PG480j4MefbPMZ/Fn7ZvV7WnkyfHc49npxfBK8vrZq9Pb0JvjXen9zMfYh+dT5dPLsmSlsg6xXvva+cp8T/h+8HP3W+rX7I/yD/Iv8m8PoATEBJQHPA00ChQE1gQOBjkHLQlqDsYEhwZvCr7H1mNz2dXswRDXkKUh50NJoVGh5aHPwqzCZGFNs+HZIbM3z348x3SOZE5DOAhnh28OfxJhHpER8dtc7NyIuRVzX0TaR+ZHtkVRoxZFHYwajvaN3hD9KMYiRhHTGqsWOz+2OvZDnH9cSVxn/Mz4pfFXE3QSRAmNibjE2MSqxKF5AfO2zuuZ7zy/cP7dBeYLchZcXqizULzw9CK1RZxFx5IwSXFJB5O+cMI5lZyhZHbyjuRBrh93G/cVz4e3hdfP9+SX8HtTPFNKUvoEnoLNgn6ht7BUOCDyE5WL3qQGp+5O/ZAWnrY/bVQcJ65Lx6cnpZ+UUCRpkvOL9RfnLO6QWksLpZ0Z7hlbMwZlobIqOSRfIG/MpCFD0jWFheIHRVeWV1ZF1sfs2OxjORo5kpxruVa5a3N78wLzflmCXsJd0ppvmL8yv2spa+meZdCy5GWty42XFyzvWRG04sBK4sq0lb+vsltVsur96rjVTQV6BSsKun8I+qGmULVQVnhvjcea3T+ifxT92L7Wce32td+KeEVXiu2KS4u/rOOuu/KT/U9lP42uT1nfvsFlw66N2I2SjXc3eW86UKJRklfSvXn25votjC1FW95vXbT1cqlT6e5txG2KbZ1lYWWN2022b9z+pVxYfqfCt6Juh+6OtTs+7OTtvLnLZ1ftbr3dxbs//yz6+f6eoD31lWaVpXuxe7P2vtgXu6/tF+Yv1VU6VcVVX/dL9nceiDxwvtq1uvqg7sENNXCNoqb/0PxDNw77H26standU0evKz4CjiiOvPw16de7R0OPth5jHqs9bnp8xwnqiaJ6qD63frBB2NDZmNDYcTLkZGuTR9OJ32x/23/K8FTFac3TG84QzxScGT2bd3aoWdo80CJo6W5d1ProXPy52+fnnm+/EHrh0sXAi+faWG1nL3leOnXZ/fLJK8wrDVddrtZfc7524nfn30+0u7TXX3e93njD7UZTx6yOMze9b7bc8r918Tb79tU7c+503I25e//e/Hud93n3+x6IH7x5mPVw5NGKx5jHRU/Un5Q+1X1a+YflH3WdLp2nu/y7rj2Levaom9v96rn8+ZeeghfkF6W9Br3VfQ59p/oD+2+8nPey55X01chA4Z8af+54bfH6+F8+f10bjB/seSN7M/p23Tvtd/vfO71vHYoYejqcPjzyoeij9scDn5if2j7Hfe4dyf6C+1L21fJr07fQb49H00dHpRwZZ3wUQCEKp6QA8HY/AOQEAKjIXE6cNzFbjws08X9gnMB/4on5e1xcAKhqBiAW0UgfACpWIKMtYkmIRiAa7QNgR0elTs7B4zP7mBipIik2I5MD9OghVgr+IRPz/Hd9/9MCZda/2X8BfBYIBbXtyksAAABWZVhJZk1NACoAAAAIAAGHaQAEAAAAAQAAABoAAAAAAAOShgAHAAAAEgAAAESgAgAEAAAAAQAAAEygAwAEAAAAAQAAABsAAAAAQVNDSUkAAABTY3JlZW5zaG90qOiLewAAAdRpVFh0WE1MOmNvbS5hZG9iZS54bXAAAAAAADx4OnhtcG1ldGEgeG1sbnM6eD0iYWRvYmU6bnM6bWV0YS8iIHg6eG1wdGs9IlhNUCBDb3JlIDYuMC4wIj4KICAgPHJkZjpSREYgeG1sbnM6cmRmPSJodHRwOi8vd3d3LnczLm9yZy8xOTk5LzAyLzIyLXJkZi1zeW50YXgtbnMjIj4KICAgICAgPHJkZjpEZXNjcmlwdGlvbiByZGY6YWJvdXQ9IiIKICAgICAgICAgICAgeG1sbnM6ZXhpZj0iaHR0cDovL25zLmFkb2JlLmNvbS9leGlmLzEuMC8iPgogICAgICAgICA8ZXhpZjpQaXhlbFlEaW1lbnNpb24+Mjc8L2V4aWY6UGl4ZWxZRGltZW5zaW9uPgogICAgICAgICA8ZXhpZjpQaXhlbFhEaW1lbnNpb24+NzY8L2V4aWY6UGl4ZWxYRGltZW5zaW9uPgogICAgICAgICA8ZXhpZjpVc2VyQ29tbWVudD5TY3JlZW5zaG90PC9leGlmOlVzZXJDb21tZW50PgogICAgICA8L3JkZjpEZXNjcmlwdGlvbj4KICAgPC9yZGY6UkRGPgo8L3g6eG1wbWV0YT4KEk25BQAABW9JREFUaAXlmU1oXFUUx+8kk6wGZhuhKdiVO12oNImkKVhc12qgexfixq+AYClN0SzEttZdF666UIzoXiN2krZJFQXdK360wrgMJCD5qu93Z/5vzrtz78xzmn7RA2/Oveeer3fuuee+e6dyOwOXwfb2NsiNjIx4zM/Rz150jb9W874ak2NPu4Wj77qZg5OeZPnOPDfn5qfmovokb3HMbuWDsZzl9jtN3xbfwg8fu7PXznka9q+c/CrnVaPZbLqxsY4O0S1G33trF7LnI0v2bb0DHdlVXKpd3Blh/vq53Ck7joNnsmA8MXqor0NW7kFtn554yw0ND3v3NAl0aPMQuFPPvl5wvytgsWApUMooZhAg+85mwbVZuJzRGuOrbuqxZwqG4Gnc7M7Wvd1dzyfHC0JB59gXs2755lpORSf+ktGDgpW1QUMf/caf193Sy4u5+opdksu31tyxxdl8kIZNTw0o5e3S0Zjw0uyiO3JgIl/ivXglE8NakjOfHi8Ey/KyLDWZ0OWf5Qnb4VLTeCxheJfnH5/2LENijGGctTNgeVBswToM/X1TG2wGWpmybWzZzAptkeX7BbyvJimms6pI7+zsuN328hCjxtQXZp+w6Xt64k1HPbAZCg86gZ3dFpY8/IK9vT3fHBrqzJ0txPjAshDEbDEh3/6+4jMaPmynfJce+aZ+L0xcpK+rhvUSTI1Nj0/4oRVTX1Zu3Uix++BqUI5Xqx1XbMDEF2KW+/2AqrZLjA+3dww5YsdEA1cqFV8ztNSoe9S6q39/n7MdyYJIENBRHe4EA4aY3hhNvNgTEEw2CDYXC6ox0OBP6bMytMvwERfxddZBqKlPn88LC35HMS8xfeCwHb6jdj9bTNa9guLU/w+rFF4ctbVM4tDD7xeNDYKxRe2KLVXGYhsT2d9rM6DOATZ7y/g2cMBQjqP+MbvUzPikX64qkmWcKMPDpsLDl75AttS3mNPH3YA7Cpgcis2wxvYb30tbMd/3JWAxxQ8SLVbj+p0wYqWGd3okAhbLSpUM7X7hBKcCNvAuGRp4VPr3JWDhsephCnZVNw9ss+vr6wXfNVYgZp3NzU1/wA3ptq9te+2fn9yJr1+xQ/5TZOnXhvvyhU/8MYbB1PYuH6y+879ccqvNH93bT73q9c492cIygn8WpMPSpC9l1/ISF+mo6qKNNV3/t275kndeCEuuIGA6qhEnLheDJRZe+OSV19w3L33uSalaIjvoCy/8zv98ycvWarXCt5heTrakQ32w/EvZtbz1ej1/37ta9HlBC9qtVFD5uOTAXuZcGAbL6pU+0TY2NtQcCPcqGT0Dxh2WXtJaxqHabzVLKrRjuxJ6RPeXjOYYVRBOdOxh3p8yso9mLiQVLOGEeCkygYrpsRNaCBgDOKNDNVZiCvpZ5ws8vHH1h+Wp1i2t1d9Pl8btfRhnS/zkGcQ/6RTWMSr0C/2nDr8hNo8LAYPC7WUq0gXJHh1mnoD5a5/2RSLOxG5d7ez1UOm4/VDQOCPOHGz5aWV4QWBra8uNjo76dnhw98T2D+Vg4cbFQoJoXCtCtU70roAxwNLxTyJF4QmXamyZxTIWWUGoQ/QY5vZDAYsFXy+IbL9NCfn5ax/m+qw9gq4MtnS1C3f6EGO7Rirj7FVu+FebbivQF5PXPbxm0Nq1mSgb8IV/guglwOKj3S9g1lf4gVSgQv+iGdZS0flNFWtmSsugw93dUsbCD5SR6dbi/L839n9J6eq17EI9+CA/rHxZnwp3+qFy2ydjeOwsf/fH1by460MQGQ62unq2OrQRaNYYi/FZGfGKT35YHtrio40vtg9NEP6/oO/AJH/7fwnJl8owMT9MmILOP1e6+eUubT/gP2Uf1DIOtpOCAAAAAElFTkSuQmCC;fontSize=21;fontFamily=Comic Sans MS;" parent="1" vertex="1">
          <mxGeometry x="180" y="80" width="76" height="27" as="geometry" />
        </mxCell>
        <mxCell id="X7pckCP10k56cVXEB46l-12" style="edgeStyle=orthogonalEdgeStyle;rounded=0;orthogonalLoop=1;jettySize=auto;html=1;strokeWidth=3.1496;" parent="1" source="r0tr0quYn_k1Nb-VesR2-2" target="X7pckCP10k56cVXEB46l-9" edge="1">
          <mxGeometry relative="1" as="geometry">
            <Array as="points">
              <mxPoint x="270" y="160" />
              <mxPoint x="272" y="160" />
            </Array>
          </mxGeometry>
        </mxCell>
        <mxCell id="r0tr0quYn_k1Nb-VesR2-2" value="" style="shape=image;verticalLabelPosition=bottom;labelBackgroundColor=default;verticalAlign=top;aspect=fixed;imageAspect=0;image=data:image/png,iVBORw0KGgoAAAANSUhEUgAAAE8AAAAXCAYAAABK6RIcAAAKr2lDQ1BJQ0MgUHJvZmlsZQAASImVlwdUk9kSgO//p4eEkoQISAm9CdIJICX0AArSwUZIQhIIMSSEJnYWV3AtqIhgWdFFEQXXAshaAAu2RbH3BREBZV0sYEHl/cAhuPvOe++8OWcy35nMnZl7z705EwDIuhypVAyrA5AuyZRFBvky4hMSGbh+gAE0QAU44MLhyqWsiIgwgMik/bsM3wXQmL1lM5br37//r6LB48u5AEARCCfz5Nx0hI8jOsyVyjIBQB1C/MbZmdIxvoEwTYY0iPDzMRZM8McxTh5nNGk8JjrSD2EGAHgShyMTAECagfgZWVwBkoc0tgc7CU8kQTgfYa/09MU8hE8hbIHESBEey89M/i6P4G85k5U5ORyBkif2Mi54f5FcKubk/p/H8b8lXayYrGGOKEkoC45ELAU5s+dpi0OVLEmeEz7JIt54/DgLFcExk8yV+yVOslwcxZ5kHsc/VJlHPCdsklNEgcoYUSY7epL58oCoSZYtjlTWTZH5sSaZI5vqQZEWo/QL+Wxl/jxhdNwkZ4li5yh7S4sKnYrxU/plikjlXviSIN+puoHKc0iXf7d3EVu5NlMYHaw8B85U/3wJayqnPF7ZG4/vHzAVE6OMl2b6KmtJxRHKeL44SOmXZ0Up12Yil3NqbYTyDFM5IRGTDIJBBGCAAOAAXBEbBJwAyOTnZI5txG+xNFcmEggzGSzktfEZbAnXdgbDwc7BGYCxtztxNd7dH3+TEB0/5Us+BoDDZQT+nPKlJwHQgkbKDk35zM4h18oBgLMhXIUsa8KHHvvAACJQQ34XtIE+MAYWwAbpzwV4AB+k0xAQDqJBAlgIuEAI0oEMZIN8sBIUgmKwEWwF5WA32AsOgMPgKGgAp0ALuAiughvgDngEOkEPeAUGwTAYgSAIB5EhKqQNGUCmkDXkADEhLygACoMioQQoCRJAEkgB5UOroWKoBCqH9kDV0K/QSagFugx1QA+gLqgfegt9hlEwCabBerAZPBNmwiw4FI6GF8ACOAPOgwvg9XAZXAkfguvhFvgqfAfuhF/BQyiAUkHRUYYoGxQT5YcKRyWiUlAy1DJUEaoUVYmqRTWh2lC3UJ2oAdQnNBZNRTPQNmgPdDA6Bs1FZ6CXodehy9EH0PXo8+hb6C70IPobhozRxVhj3DFsTDxGgMnGFGJKMVWYE5gLmDuYHswwFoulY82xrthgbAI2FbsEuw67E1uHbcZ2YLuxQzgcThtnjfPEheM4uExcIW477hDuLO4mrgf3Ea+CN8A74APxiXgJfhW+FH8QfwZ/E9+LHyGoE0wJ7oRwAo+QS9hA2EdoIlwn9BBGiBpEc6InMZqYSlxJLCPWEi8QHxPfqaioGKm4qcxVEamsUClTOaJySaVL5ROJQrIi+ZHmkxSk9aT9pGbSA9I7MplsRvYhJ5IzyevJ1eRz5Kfkj6pUVVtVtipPdblqhWq96k3V12oENVM1ltpCtTy1UrVjatfVBtQJ6mbqfuoc9WXqFeon1e+pD2lQNew1wjXSNdZpHNS4rNFHwVHMKAEUHqWAspdyjtJNRVGNqX5ULnU1dR/1ArWHhqWZ09i0VFox7TCtnTaoSdF00ozVzNGs0Dyt2UlH0c3obLqYvoF+lH6X/nma3jTWNP60tdNqp92c9kFrupaPFl+rSKtO647WZ22GdoB2mvYm7QbtJzpoHSuduTrZOrt0LugMTKdN95jOnV40/ej0h7qwrpVupO4S3b2613SH9PT1gvSketv1zukN6NP1ffRT9bfon9HvN6AaeBmIDLYYnDV4ydBksBhiRhnjPGPQUNcw2FBhuMew3XDEyNwoxmiVUZ3RE2OiMdM4xXiLcavxoImByWyTfJMak4emBFOmqdB0m2mb6Qczc7M4szVmDWZ95lrmbPM88xrzxxZkC2+LDItKi9uWWEumZZrlTssbVrCVs5XQqsLqujVs7WItst5p3TEDM8NthmRG5Yx7NiQblk2WTY1Nly3dNsx2lW2D7euZJjMTZ26a2Tbzm52zndhun90je4p9iP0q+yb7tw5WDlyHCofbjmTHQMfljo2Ob5ysnfhOu5zuO1OdZzuvcW51/uri6iJzqXXpdzVxTXLd4XqPSWNGMNcxL7lh3Hzdlrudcvvk7uKe6X7U/S8PG480j4MefbPMZ/Fn7ZvV7WnkyfHc49npxfBK8vrZq9Pb0JvjXen9zMfYh+dT5dPLsmSlsg6xXvva+cp8T/h+8HP3W+rX7I/yD/Iv8m8PoATEBJQHPA00ChQE1gQOBjkHLQlqDsYEhwZvCr7H1mNz2dXswRDXkKUh50NJoVGh5aHPwqzCZGFNs+HZIbM3z348x3SOZE5DOAhnh28OfxJhHpER8dtc7NyIuRVzX0TaR+ZHtkVRoxZFHYwajvaN3hD9KMYiRhHTGqsWOz+2OvZDnH9cSVxn/Mz4pfFXE3QSRAmNibjE2MSqxKF5AfO2zuuZ7zy/cP7dBeYLchZcXqizULzw9CK1RZxFx5IwSXFJB5O+cMI5lZyhZHbyjuRBrh93G/cVz4e3hdfP9+SX8HtTPFNKUvoEnoLNgn6ht7BUOCDyE5WL3qQGp+5O/ZAWnrY/bVQcJ65Lx6cnpZ+UUCRpkvOL9RfnLO6QWksLpZ0Z7hlbMwZlobIqOSRfIG/MpCFD0jWFheIHRVeWV1ZF1sfs2OxjORo5kpxruVa5a3N78wLzflmCXsJd0ppvmL8yv2spa+meZdCy5GWty42XFyzvWRG04sBK4sq0lb+vsltVsur96rjVTQV6BSsKun8I+qGmULVQVnhvjcea3T+ifxT92L7Wce32td+KeEVXiu2KS4u/rOOuu/KT/U9lP42uT1nfvsFlw66N2I2SjXc3eW86UKJRklfSvXn25votjC1FW95vXbT1cqlT6e5txG2KbZ1lYWWN2022b9z+pVxYfqfCt6Juh+6OtTs+7OTtvLnLZ1ftbr3dxbs//yz6+f6eoD31lWaVpXuxe7P2vtgXu6/tF+Yv1VU6VcVVX/dL9nceiDxwvtq1uvqg7sENNXCNoqb/0PxDNw77H26standU0evKz4CjiiOvPw16de7R0OPth5jHqs9bnp8xwnqiaJ6qD63frBB2NDZmNDYcTLkZGuTR9OJ32x/23/K8FTFac3TG84QzxScGT2bd3aoWdo80CJo6W5d1ProXPy52+fnnm+/EHrh0sXAi+faWG1nL3leOnXZ/fLJK8wrDVddrtZfc7524nfn30+0u7TXX3e93njD7UZTx6yOMze9b7bc8r918Tb79tU7c+503I25e//e/Hud93n3+x6IH7x5mPVw5NGKx5jHRU/Un5Q+1X1a+YflH3WdLp2nu/y7rj2Levaom9v96rn8+ZeeghfkF6W9Br3VfQ59p/oD+2+8nPey55X01chA4Z8af+54bfH6+F8+f10bjB/seSN7M/p23Tvtd/vfO71vHYoYejqcPjzyoeij9scDn5if2j7Hfe4dyf6C+1L21fJr07fQb49H00dHpRwZZ3wUQCEKp6QA8HY/AOQEAKjIXE6cNzFbjws08X9gnMB/4on5e1xcAKhqBiAW0UgfACpWIKMtYkmIRiAa7QNgR0elTs7B4zP7mBipIik2I5MD9OghVgr+IRPz/Hd9/9MCZda/2X8BfBYIBbXtyksAAABWZVhJZk1NACoAAAAIAAGHaQAEAAAAAQAAABoAAAAAAAOShgAHAAAAEgAAAESgAgAEAAAAAQAAAE+gAwAEAAAAAQAAABcAAAAAQVNDSUkAAABTY3JlZW5zaG90I95X1wAAAdRpVFh0WE1MOmNvbS5hZG9iZS54bXAAAAAAADx4OnhtcG1ldGEgeG1sbnM6eD0iYWRvYmU6bnM6bWV0YS8iIHg6eG1wdGs9IlhNUCBDb3JlIDYuMC4wIj4KICAgPHJkZjpSREYgeG1sbnM6cmRmPSJodHRwOi8vd3d3LnczLm9yZy8xOTk5LzAyLzIyLXJkZi1zeW50YXgtbnMjIj4KICAgICAgPHJkZjpEZXNjcmlwdGlvbiByZGY6YWJvdXQ9IiIKICAgICAgICAgICAgeG1sbnM6ZXhpZj0iaHR0cDovL25zLmFkb2JlLmNvbS9leGlmLzEuMC8iPgogICAgICAgICA8ZXhpZjpQaXhlbFlEaW1lbnNpb24+MjM8L2V4aWY6UGl4ZWxZRGltZW5zaW9uPgogICAgICAgICA8ZXhpZjpQaXhlbFhEaW1lbnNpb24+Nzk8L2V4aWY6UGl4ZWxYRGltZW5zaW9uPgogICAgICAgICA8ZXhpZjpVc2VyQ29tbWVudD5TY3JlZW5zaG90PC9leGlmOlVzZXJDb21tZW50PgogICAgICA8L3JkZjpEZXNjcmlwdGlvbj4KICAgPC9yZGY6UkRGPgo8L3g6eG1wbWV0YT4K7NGCYgAABG1JREFUWAnVWU9PE0EUn9riSW4cWgokfgHjBbCAFIx8AU1IvDcxXkQRQ0xDAKsxJoJ6MfoJSDDxbjxYVGhIPehHkGrsgSPhUMC6vym/9e10d7ttt02cZDszb96/+c2bmTcQOTw8rCqrxGIxVJ5l5u2s2ioV9PhS6q5aSs3rtkl/MHxb0xvpOz4+ruM7uz6oafipzJd0243PZjIa+/v7qq+vz6DWuls/C2pmc9Yeo36bYDSC2PVHzFD4P3QB0qPCczU5cEm7y0XuhO9WgNTw6+np8dUfiUTs8TPRqCK/SQ+qj8qoh33WJt3sk491fm9HTW9cY9feJZ9/7arl8QUVizrjpJE+KvLjO0OmbtSYYKeKBE7agM3V7WeSFFrbuRyhqXUqwsQkcMsTCyo7MudkaqIndUEsX3IuytTQmEpb3+qXGmjgTw85eZow58nacfBM4OAJJoXvw+ymunp+0tM5t4EVK4oIits4FmbF2qYoWxZoJtBuMq3SOrptMVE/53GwN1sAiF+R49K2pPvJNzMWauQhIvI/trV9XCTSeUaEjBymPs04LHmxPVloC3XkaZxku8alkd/7d6HYA200Qo88AIKPk6FvU4O1iXJLkd5OjXPt4413+sPieBW/MS+ZIPSWIo9nDoDABEyg3AzjxsuXxvQ55DbeLg2+HBwcqLVvrx2qABwWrhM3boyZtMOiS+dyctQBEgD8c3KiXxoT/SO2xIlFQ4laueAnKwJzp+caADZBzo7OqaOjI1tWNkg3/atW9YNIs8I++UC4d+GmenIlq5Aoo6QHUgovIC62Jlo/fnbJY9olXdaBIw+ZuvWUU2vf39jyAAaffK7RKJJlOI9CAG1Bq4EXQHb0jiSF1obdXGHd8Ryj8jDtBn5hwPjCxVvqXG9vXQpAELFFmL8xM384uajwIkFBBOCQx+E9nhjWNPLpjvgx6eybLxrSIYqx7d9FvUXNKA9qV7igm1K/ORY48iioD/xxpeStyTG5lUlDzUuCNWhyu6EfRrn+PqN2yl/rVGFRaTtMuy3ftnCmulhW5k2GKMRfRwBuM6VZfqkbskhPTOAQbbiNCZyUCaMdqVQq+gT2C08aKpfLKh6vz6H0ZWA9kcyDGXJy1akHNSMA28zrXep2DMgXC/M8ry3KcTe7jeZL//z4mt620hG24SQdNQFkH+kCeSDHPx35Jco8BsCPs9MsJmgY91osUzaMfiiRJx3BiuGmc7thOTG38xI6MI5CwHXn9IeyMvLkOBZmY/qV686QfEEiCvxB+DoCHowj3L1AwrgsmDhuYBmZrch6HSvSVhBQwB+EL5RtK52TbR7UbpEEvvRgSq1M3HeARvlGsuDDZSABp2y36kjQ/2HAIb//EdBhmSSThtrcysjykSTzL8+SV7ah7/HuC+t7aZNlUm4TrUY7/kk9aHvNQ/J1DTwa5dNpPF5Lkk3wcrmcymQyKpFIaBE5Ccry5UKdrLsOXhipCp1HHeSs8ONLJpOqWCyq/v5+rTaoPjB3+8z7CwmFNo0kguYrAAAAAElFTkSuQmCC;fontSize=21;fontFamily=Comic Sans MS;" parent="1" vertex="1">
          <mxGeometry x="238.5" y="120" width="79" height="23" as="geometry" />
        </mxCell>
        <mxCell id="r0tr0quYn_k1Nb-VesR2-3" value="" style="group;fontSize=21;fontFamily=Comic Sans MS;" parent="1" vertex="1" connectable="0">
          <mxGeometry x="120" y="180" width="50" height="69" as="geometry" />
        </mxCell>
        <mxCell id="r0tr0quYn_k1Nb-VesR2-4" value="" style="shape=cylinder3;whiteSpace=wrap;html=1;boundedLbl=1;backgroundOutline=1;size=15;fillColor=#6a00ff;fontColor=#ffffff;strokeColor=#3700CC;fontSize=21;fontFamily=Comic Sans MS;" parent="r0tr0quYn_k1Nb-VesR2-3" vertex="1">
          <mxGeometry y="25" width="50" height="44" as="geometry" />
        </mxCell>
        <mxCell id="r0tr0quYn_k1Nb-VesR2-5" value="" style="shape=cylinder3;whiteSpace=wrap;html=1;boundedLbl=1;backgroundOutline=1;size=15;fillColor=#d80073;fontColor=#ffffff;strokeColor=#A50040;fontSize=21;fontFamily=Comic Sans MS;" parent="r0tr0quYn_k1Nb-VesR2-3" vertex="1">
          <mxGeometry y="11.5" width="50" height="44" as="geometry" />
        </mxCell>
        <mxCell id="r0tr0quYn_k1Nb-VesR2-6" value="" style="shape=cylinder3;whiteSpace=wrap;html=1;boundedLbl=1;backgroundOutline=1;size=15;fillColor=#60a917;fontColor=#ffffff;strokeColor=#2D7600;fontSize=21;fontFamily=Comic Sans MS;" parent="r0tr0quYn_k1Nb-VesR2-3" vertex="1">
          <mxGeometry width="50" height="44" as="geometry" />
        </mxCell>
        <mxCell id="X7pckCP10k56cVXEB46l-1" value="" style="shape=image;verticalLabelPosition=bottom;labelBackgroundColor=default;verticalAlign=top;aspect=fixed;imageAspect=0;image=data:image/png,iVBORw0KGgoAAAANSUhEUgAAAE4AAAAaCAYAAAAZtWr8AAAKr2lDQ1BJQ0MgUHJvZmlsZQAASImVlwdUk9kSgO//p4eEkoQISAm9CdIJICX0AArSwUZIQhIIMSSEJnYWV3AtqIhgWdFFEQXXAshaAAu2RbH3BREBZV0sYEHl/cAhuPvOe++8OWcy35nMnZl7z705EwDIuhypVAyrA5AuyZRFBvky4hMSGbh+gAE0QAU44MLhyqWsiIgwgMik/bsM3wXQmL1lM5br37//r6LB48u5AEARCCfz5Nx0hI8jOsyVyjIBQB1C/MbZmdIxvoEwTYY0iPDzMRZM8McxTh5nNGk8JjrSD2EGAHgShyMTAECagfgZWVwBkoc0tgc7CU8kQTgfYa/09MU8hE8hbIHESBEey89M/i6P4G85k5U5ORyBkif2Mi54f5FcKubk/p/H8b8lXayYrGGOKEkoC45ELAU5s+dpi0OVLEmeEz7JIt54/DgLFcExk8yV+yVOslwcxZ5kHsc/VJlHPCdsklNEgcoYUSY7epL58oCoSZYtjlTWTZH5sSaZI5vqQZEWo/QL+Wxl/jxhdNwkZ4li5yh7S4sKnYrxU/plikjlXviSIN+puoHKc0iXf7d3EVu5NlMYHaw8B85U/3wJayqnPF7ZG4/vHzAVE6OMl2b6KmtJxRHKeL44SOmXZ0Up12Yil3NqbYTyDFM5IRGTDIJBBGCAAOAAXBEbBJwAyOTnZI5txG+xNFcmEggzGSzktfEZbAnXdgbDwc7BGYCxtztxNd7dH3+TEB0/5Us+BoDDZQT+nPKlJwHQgkbKDk35zM4h18oBgLMhXIUsa8KHHvvAACJQQ34XtIE+MAYWwAbpzwV4AB+k0xAQDqJBAlgIuEAI0oEMZIN8sBIUgmKwEWwF5WA32AsOgMPgKGgAp0ALuAiughvgDngEOkEPeAUGwTAYgSAIB5EhKqQNGUCmkDXkADEhLygACoMioQQoCRJAEkgB5UOroWKoBCqH9kDV0K/QSagFugx1QA+gLqgfegt9hlEwCabBerAZPBNmwiw4FI6GF8ACOAPOgwvg9XAZXAkfguvhFvgqfAfuhF/BQyiAUkHRUYYoGxQT5YcKRyWiUlAy1DJUEaoUVYmqRTWh2lC3UJ2oAdQnNBZNRTPQNmgPdDA6Bs1FZ6CXodehy9EH0PXo8+hb6C70IPobhozRxVhj3DFsTDxGgMnGFGJKMVWYE5gLmDuYHswwFoulY82xrthgbAI2FbsEuw67E1uHbcZ2YLuxQzgcThtnjfPEheM4uExcIW477hDuLO4mrgf3Ea+CN8A74APxiXgJfhW+FH8QfwZ/E9+LHyGoE0wJ7oRwAo+QS9hA2EdoIlwn9BBGiBpEc6InMZqYSlxJLCPWEi8QHxPfqaioGKm4qcxVEamsUClTOaJySaVL5ROJQrIi+ZHmkxSk9aT9pGbSA9I7MplsRvYhJ5IzyevJ1eRz5Kfkj6pUVVtVtipPdblqhWq96k3V12oENVM1ltpCtTy1UrVjatfVBtQJ6mbqfuoc9WXqFeon1e+pD2lQNew1wjXSNdZpHNS4rNFHwVHMKAEUHqWAspdyjtJNRVGNqX5ULnU1dR/1ArWHhqWZ09i0VFox7TCtnTaoSdF00ozVzNGs0Dyt2UlH0c3obLqYvoF+lH6X/nma3jTWNP60tdNqp92c9kFrupaPFl+rSKtO647WZ22GdoB2mvYm7QbtJzpoHSuduTrZOrt0LugMTKdN95jOnV40/ej0h7qwrpVupO4S3b2613SH9PT1gvSketv1zukN6NP1ffRT9bfon9HvN6AaeBmIDLYYnDV4ydBksBhiRhnjPGPQUNcw2FBhuMew3XDEyNwoxmiVUZ3RE2OiMdM4xXiLcavxoImByWyTfJMak4emBFOmqdB0m2mb6Qczc7M4szVmDWZ95lrmbPM88xrzxxZkC2+LDItKi9uWWEumZZrlTssbVrCVs5XQqsLqujVs7WItst5p3TEDM8NthmRG5Yx7NiQblk2WTY1Nly3dNsx2lW2D7euZJjMTZ26a2Tbzm52zndhun90je4p9iP0q+yb7tw5WDlyHCofbjmTHQMfljo2Ob5ysnfhOu5zuO1OdZzuvcW51/uri6iJzqXXpdzVxTXLd4XqPSWNGMNcxL7lh3Hzdlrudcvvk7uKe6X7U/S8PG480j4MefbPMZ/Fn7ZvV7WnkyfHc49npxfBK8vrZq9Pb0JvjXen9zMfYh+dT5dPLsmSlsg6xXvva+cp8T/h+8HP3W+rX7I/yD/Iv8m8PoATEBJQHPA00ChQE1gQOBjkHLQlqDsYEhwZvCr7H1mNz2dXswRDXkKUh50NJoVGh5aHPwqzCZGFNs+HZIbM3z348x3SOZE5DOAhnh28OfxJhHpER8dtc7NyIuRVzX0TaR+ZHtkVRoxZFHYwajvaN3hD9KMYiRhHTGqsWOz+2OvZDnH9cSVxn/Mz4pfFXE3QSRAmNibjE2MSqxKF5AfO2zuuZ7zy/cP7dBeYLchZcXqizULzw9CK1RZxFx5IwSXFJB5O+cMI5lZyhZHbyjuRBrh93G/cVz4e3hdfP9+SX8HtTPFNKUvoEnoLNgn6ht7BUOCDyE5WL3qQGp+5O/ZAWnrY/bVQcJ65Lx6cnpZ+UUCRpkvOL9RfnLO6QWksLpZ0Z7hlbMwZlobIqOSRfIG/MpCFD0jWFheIHRVeWV1ZF1sfs2OxjORo5kpxruVa5a3N78wLzflmCXsJd0ppvmL8yv2spa+meZdCy5GWty42XFyzvWRG04sBK4sq0lb+vsltVsur96rjVTQV6BSsKun8I+qGmULVQVnhvjcea3T+ifxT92L7Wce32td+KeEVXiu2KS4u/rOOuu/KT/U9lP42uT1nfvsFlw66N2I2SjXc3eW86UKJRklfSvXn25votjC1FW95vXbT1cqlT6e5txG2KbZ1lYWWN2022b9z+pVxYfqfCt6Juh+6OtTs+7OTtvLnLZ1ftbr3dxbs//yz6+f6eoD31lWaVpXuxe7P2vtgXu6/tF+Yv1VU6VcVVX/dL9nceiDxwvtq1uvqg7sENNXCNoqb/0PxDNw77H26standU0evKz4CjiiOvPw16de7R0OPth5jHqs9bnp8xwnqiaJ6qD63frBB2NDZmNDYcTLkZGuTR9OJ32x/23/K8FTFac3TG84QzxScGT2bd3aoWdo80CJo6W5d1ProXPy52+fnnm+/EHrh0sXAi+faWG1nL3leOnXZ/fLJK8wrDVddrtZfc7524nfn30+0u7TXX3e93njD7UZTx6yOMze9b7bc8r918Tb79tU7c+503I25e//e/Hud93n3+x6IH7x5mPVw5NGKx5jHRU/Un5Q+1X1a+YflH3WdLp2nu/y7rj2Levaom9v96rn8+ZeeghfkF6W9Br3VfQ59p/oD+2+8nPey55X01chA4Z8af+54bfH6+F8+f10bjB/seSN7M/p23Tvtd/vfO71vHYoYejqcPjzyoeij9scDn5if2j7Hfe4dyf6C+1L21fJr07fQb49H00dHpRwZZ3wUQCEKp6QA8HY/AOQEAKjIXE6cNzFbjws08X9gnMB/4on5e1xcAKhqBiAW0UgfACpWIKMtYkmIRiAa7QNgR0elTs7B4zP7mBipIik2I5MD9OghVgr+IRPz/Hd9/9MCZda/2X8BfBYIBbXtyksAAABWZVhJZk1NACoAAAAIAAGHaQAEAAAAAQAAABoAAAAAAAOShgAHAAAAEgAAAESgAgAEAAAAAQAAAE6gAwAEAAAAAQAAABoAAAAAQVNDSUkAAABTY3JlZW5zaG90d9ZIfgAAAdRpVFh0WE1MOmNvbS5hZG9iZS54bXAAAAAAADx4OnhtcG1ldGEgeG1sbnM6eD0iYWRvYmU6bnM6bWV0YS8iIHg6eG1wdGs9IlhNUCBDb3JlIDYuMC4wIj4KICAgPHJkZjpSREYgeG1sbnM6cmRmPSJodHRwOi8vd3d3LnczLm9yZy8xOTk5LzAyLzIyLXJkZi1zeW50YXgtbnMjIj4KICAgICAgPHJkZjpEZXNjcmlwdGlvbiByZGY6YWJvdXQ9IiIKICAgICAgICAgICAgeG1sbnM6ZXhpZj0iaHR0cDovL25zLmFkb2JlLmNvbS9leGlmLzEuMC8iPgogICAgICAgICA8ZXhpZjpQaXhlbFlEaW1lbnNpb24+MjY8L2V4aWY6UGl4ZWxZRGltZW5zaW9uPgogICAgICAgICA8ZXhpZjpQaXhlbFhEaW1lbnNpb24+Nzg8L2V4aWY6UGl4ZWxYRGltZW5zaW9uPgogICAgICAgICA8ZXhpZjpVc2VyQ29tbWVudD5TY3JlZW5zaG90PC9leGlmOlVzZXJDb21tZW50PgogICAgICA8L3JkZjpEZXNjcmlwdGlvbj4KICAgPC9yZGY6UkRGPgo8L3g6eG1wbWV0YT4KAVO2egAABQxJREFUWAnNWTtsXEUUvRuvt7AsgSIXi2AhkCYVVcDyh9ggIhBdPliKRJMiUjpDCEphlqyBFJFCkLsUkWgQkYxCGeUnxbZYO782VRQh4kgskkvLQv4t74x91nfnzcx7a+9LMtLbmbn3zp17z8zc+WxueXm53tnZKaG0srJi2ElyEKrValIsFkPqxNZXqV6Q8T8vONuU+76S7w+ccfJIhL4f5i5G388kNeVnB09LZeC0oW3HviZlm5XciwSu+s8D+fDKYZddMZp2XjOnns62pOPk3i9aHljdH8sd5XK50tHRwbozX19fN/QkOQgtLi5Kd3e3Uw+Jd55W5cSNr2W8+hNJJh9+s19++WxC9rxakukIEJ1MPbdB2fNKSQDY8WujkY7mmZpGR6FQEOjwpTT+PvcZ51uWrhn13cx55/IDOADOTi4drfRHfXYoIV3nzw04OIrZYTsMEM5G8Qe5nejAufsT3hiINkOlPvk2ioUfv33AVtGotwIg+w3F9HxDc0YFH2BwtjL4jRMw2xQGdnsDIegDr71nN4nVfTqok/xYQw8h0xnnG2XslOW+UxIaUdjrGvnc+a0du36mZtxyyXn8Nbv+pSe/Omcwl3oafbmlpaV6Ph+eeKurq8aOJDkILSwsyKP/HsuP0dFgen6uyX4uqYHixgxJ0ufqt3BxK6gvn5o3+l1yTR2rCuzr6emR6WdzMhPZ5zrCjPWOyljvlxKyL4yY6jBt8ejNEzJbexgTvzUyKUNv9Bk6HY0JZUQgSDPP7sr+3e9KV1eXmfG0xwbv3L0JYwliry9FoOYTlwwbJy0tLE0bNMShO8f+oIqmPEkfhX1yNt2uo70dLrgKdkVHMMQ1HK7x2XIALx9dDHyxbxeNa0euz14EzAdaO/pL0mGDoeWxKegdHgAhxundXfuj26LcVuC08qFopmkjNI9lGI6bAwI+PzjbrqQdhy0ARif78AzwYHealBlwSZ3jbgnQ9KijDWZCu8DTugEIgLn6yeWGaZrfIKYstH1zYL8Y7Yq4Z8/62ppzN2NbgDdc6pc05zO2SZvP/hvfuNK21XKZAYfRTDuijINpL/zagVAZy5M2YDAwmKyjnb10Q7ps3gtbqjQEzumP9Kn5+F2UvLS5fZzQoEEHZvV2U2bAMRgjZyINNwcmOIOYhtx2jDLbzdEfZ7PWQbq2TfPTlPNpDqNpZNBZvV5v9PnB670y9v6oTP1djdGgTx86sYzGG1IbBbRN6vf2XzNGeC2KmUi+Zy8cvvVNBrYhfvJqZRpv/iD+MsEflwz4mcU4du7Lrx+5Ip9ePeZk6xnpFNgkHpwcCbEz5bX15pDLbb40RibjZI6TvIsGjz56a1BwSccy1ect1xOT60awE1Rom0sHeEyw3dd3W2YcYpPrrY0GhHJzpRkISfh5jFEMEbxOsQX5rCOP/irwXqPAx4bBsAG/cDDnqwn4TDsCLgSYAYS9ZJQz8DMO6QdPbgB21/izJpTQDq84ehAQg5EAKgdj27sqzlyuk39/cb9zJwsZ+7Lxbn0+Gb2ebO38sA/gwV/ealqecWjIEdAOYyQQn/YV3kn8F0m3e1nLeGhlvNP+ooyvJeBcoBEwTmEuBdcyNif30mzsKgVZ14GXRwM6EAL54O8jTcsLOmHvTkKGbqvBgx2pn87xGGhv/66gyT989RO37TAfNbljhWTttrrOp/Ph3w41gaZlEAc5qKDTPi1jlxkzaR/5euL8D33vjPQs54XcAAAAAElFTkSuQmCC;fontSize=21;fontFamily=Comic Sans MS;" parent="1" vertex="1">
          <mxGeometry x="100" y="40" width="78" height="26" as="geometry" />
        </mxCell>
        <mxCell id="X7pckCP10k56cVXEB46l-2" value="" style="group;fontSize=21;fontFamily=Comic Sans MS;" parent="1" vertex="1" connectable="0">
          <mxGeometry x="180" y="180" width="50" height="69" as="geometry" />
        </mxCell>
        <mxCell id="X7pckCP10k56cVXEB46l-3" value="" style="shape=cylinder3;whiteSpace=wrap;html=1;boundedLbl=1;backgroundOutline=1;size=15;fillColor=#6a00ff;fontColor=#ffffff;strokeColor=#3700CC;fontSize=21;fontFamily=Comic Sans MS;" parent="X7pckCP10k56cVXEB46l-2" vertex="1">
          <mxGeometry y="25" width="50" height="44" as="geometry" />
        </mxCell>
        <mxCell id="X7pckCP10k56cVXEB46l-4" value="" style="shape=cylinder3;whiteSpace=wrap;html=1;boundedLbl=1;backgroundOutline=1;size=15;fillColor=#d80073;fontColor=#ffffff;strokeColor=#A50040;fontSize=21;fontFamily=Comic Sans MS;" parent="X7pckCP10k56cVXEB46l-2" vertex="1">
          <mxGeometry y="11.5" width="50" height="44" as="geometry" />
        </mxCell>
        <mxCell id="X7pckCP10k56cVXEB46l-5" value="" style="shape=cylinder3;whiteSpace=wrap;html=1;boundedLbl=1;backgroundOutline=1;size=15;fillColor=#60a917;fontColor=#ffffff;strokeColor=#2D7600;fontSize=21;fontFamily=Comic Sans MS;" parent="X7pckCP10k56cVXEB46l-2" vertex="1">
          <mxGeometry width="50" height="44" as="geometry" />
        </mxCell>
        <mxCell id="X7pckCP10k56cVXEB46l-6" value="" style="group;fontSize=21;fontFamily=Comic Sans MS;" parent="1" vertex="1" connectable="0">
          <mxGeometry x="247" y="180" width="50" height="69" as="geometry" />
        </mxCell>
        <mxCell id="X7pckCP10k56cVXEB46l-7" value="" style="shape=cylinder3;whiteSpace=wrap;html=1;boundedLbl=1;backgroundOutline=1;size=15;fillColor=#6a00ff;fontColor=#ffffff;strokeColor=#3700CC;fontSize=21;fontFamily=Comic Sans MS;" parent="X7pckCP10k56cVXEB46l-6" vertex="1">
          <mxGeometry y="25" width="50" height="44" as="geometry" />
        </mxCell>
        <mxCell id="X7pckCP10k56cVXEB46l-8" value="" style="shape=cylinder3;whiteSpace=wrap;html=1;boundedLbl=1;backgroundOutline=1;size=15;fillColor=#d80073;fontColor=#ffffff;strokeColor=#A50040;fontSize=21;fontFamily=Comic Sans MS;" parent="X7pckCP10k56cVXEB46l-6" vertex="1">
          <mxGeometry y="11.5" width="50" height="44" as="geometry" />
        </mxCell>
        <mxCell id="X7pckCP10k56cVXEB46l-9" value="" style="shape=cylinder3;whiteSpace=wrap;html=1;boundedLbl=1;backgroundOutline=1;size=15;fillColor=#60a917;fontColor=#ffffff;strokeColor=#2D7600;fontSize=21;fontFamily=Comic Sans MS;" parent="X7pckCP10k56cVXEB46l-6" vertex="1">
          <mxGeometry width="50" height="44" as="geometry" />
        </mxCell>
        <mxCell id="X7pckCP10k56cVXEB46l-10" style="edgeStyle=orthogonalEdgeStyle;rounded=0;orthogonalLoop=1;jettySize=auto;html=1;entryX=0.5;entryY=0;entryDx=0;entryDy=0;entryPerimeter=0;strokeWidth=3.1496;" parent="1" source="X7pckCP10k56cVXEB46l-1" target="r0tr0quYn_k1Nb-VesR2-6" edge="1">
          <mxGeometry relative="1" as="geometry">
            <Array as="points">
              <mxPoint x="145" y="90" />
              <mxPoint x="145" y="90" />
            </Array>
          </mxGeometry>
        </mxCell>
        <mxCell id="X7pckCP10k56cVXEB46l-11" style="edgeStyle=orthogonalEdgeStyle;rounded=0;orthogonalLoop=1;jettySize=auto;html=1;entryX=0.5;entryY=0;entryDx=0;entryDy=0;entryPerimeter=0;strokeWidth=3.1496;" parent="1" source="r0tr0quYn_k1Nb-VesR2-1" target="X7pckCP10k56cVXEB46l-5" edge="1">
          <mxGeometry relative="1" as="geometry">
            <Array as="points">
              <mxPoint x="205" y="120" />
              <mxPoint x="205" y="120" />
            </Array>
          </mxGeometry>
        </mxCell>
      </root>
    </mxGraphModel>
  </diagram>
  <diagram name="example-hybrid" id="A3_V4HQHn8IoW6lemRU_">
    <mxGraphModel dx="1012" dy="335" grid="1" gridSize="10" guides="1" tooltips="1" connect="1" arrows="1" fold="1" page="1" pageScale="1" pageWidth="594" pageHeight="394" math="0" shadow="0">
      <root>
        <mxCell id="E0SU5ZG9Q0p2GKEuyHbm-0" />
        <mxCell id="E0SU5ZG9Q0p2GKEuyHbm-1" parent="E0SU5ZG9Q0p2GKEuyHbm-0" />
        <mxCell id="E0SU5ZG9Q0p2GKEuyHbm-2" value="&lt;font style=&quot;font-size: 24px;&quot;&gt;Strategic Planning&lt;/font&gt;" style="rounded=0;whiteSpace=wrap;html=1;fontSize=20;fontFamily=Comic Sans MS;verticalAlign=top;fillColor=none;strokeColor=#6c8ebf;strokeWidth=3.1496;" parent="E0SU5ZG9Q0p2GKEuyHbm-1" vertex="1">
          <mxGeometry x="380" y="430" width="740" height="300" as="geometry" />
        </mxCell>
        <mxCell id="E0SU5ZG9Q0p2GKEuyHbm-3" value="&lt;b style=&quot;font-size: 20px;&quot;&gt;Dynamic State&lt;/b&gt;&lt;div style=&quot;font-size: 20px;&quot;&gt;&lt;i style=&quot;font-size: 20px;&quot;&gt;CPU, Ram, Network&lt;/i&gt;&lt;/div&gt;" style="rounded=1;whiteSpace=wrap;html=1;fillColor=#d5e8d4;strokeColor=#82b366;strokeWidth=3.1496;fontSize=20;fontFamily=Comic Sans MS;" parent="E0SU5ZG9Q0p2GKEuyHbm-1" vertex="1">
          <mxGeometry x="410" y="480" width="190" height="60" as="geometry" />
        </mxCell>
        <mxCell id="E0SU5ZG9Q0p2GKEuyHbm-4" value="&lt;div style=&quot;font-size: 20px;&quot;&gt;&lt;span style=&quot;background-color: initial;&quot;&gt;&lt;b&gt;Task Queue&lt;/b&gt;&lt;/span&gt;&lt;/div&gt;&lt;div style=&quot;font-size: 20px;&quot;&gt;&lt;span style=&quot;background-color: initial;&quot;&gt;&lt;i&gt;Demand&lt;/i&gt;&lt;/span&gt;&lt;br&gt;&lt;/div&gt;" style="rounded=1;whiteSpace=wrap;html=1;fillColor=#d5e8d4;strokeColor=#82b366;strokeWidth=3.1496;fontSize=20;fontFamily=Comic Sans MS;" parent="E0SU5ZG9Q0p2GKEuyHbm-1" vertex="1">
          <mxGeometry x="410" y="600" width="190" height="60" as="geometry" />
        </mxCell>
        <mxCell id="E0SU5ZG9Q0p2GKEuyHbm-5" style="edgeStyle=orthogonalEdgeStyle;rounded=0;orthogonalLoop=1;jettySize=auto;html=1;entryX=0;entryY=0.5;entryDx=0;entryDy=0;strokeWidth=3.1496;" parent="E0SU5ZG9Q0p2GKEuyHbm-1" source="E0SU5ZG9Q0p2GKEuyHbm-7" target="E0SU5ZG9Q0p2GKEuyHbm-22" edge="1">
          <mxGeometry relative="1" as="geometry" />
        </mxCell>
        <mxCell id="E0SU5ZG9Q0p2GKEuyHbm-6" style="edgeStyle=orthogonalEdgeStyle;rounded=0;orthogonalLoop=1;jettySize=auto;html=1;entryX=0.5;entryY=0;entryDx=0;entryDy=0;strokeWidth=3.1496;startArrow=classic;startFill=1;" parent="E0SU5ZG9Q0p2GKEuyHbm-1" target="E0SU5ZG9Q0p2GKEuyHbm-23" edge="1">
          <mxGeometry relative="1" as="geometry">
            <mxPoint x="750" y="640" as="sourcePoint" />
          </mxGeometry>
        </mxCell>
        <mxCell id="E0SU5ZG9Q0p2GKEuyHbm-7" value="DRL Agent" style="shape=mxgraph.signs.healthcare.brain;html=1;pointerEvents=1;fillColor=#fff2cc;strokeColor=#d6b656;verticalLabelPosition=bottom;verticalAlign=top;align=center;fontSize=20;fontFamily=Comic Sans MS;" parent="E0SU5ZG9Q0p2GKEuyHbm-1" vertex="1">
          <mxGeometry x="701" y="515" width="98" height="85" as="geometry" />
        </mxCell>
        <mxCell id="E0SU5ZG9Q0p2GKEuyHbm-8" style="edgeStyle=orthogonalEdgeStyle;rounded=0;orthogonalLoop=1;jettySize=auto;html=1;entryX=0.015;entryY=0.5;entryDx=0;entryDy=0;entryPerimeter=0;fontSize=20;fontFamily=Comic Sans MS;strokeWidth=3.1496;" parent="E0SU5ZG9Q0p2GKEuyHbm-1" source="E0SU5ZG9Q0p2GKEuyHbm-3" target="E0SU5ZG9Q0p2GKEuyHbm-7" edge="1">
          <mxGeometry relative="1" as="geometry" />
        </mxCell>
        <mxCell id="E0SU5ZG9Q0p2GKEuyHbm-9" style="edgeStyle=orthogonalEdgeStyle;rounded=0;orthogonalLoop=1;jettySize=auto;html=1;entryX=0.015;entryY=0.5;entryDx=0;entryDy=0;entryPerimeter=0;fontSize=20;fontFamily=Comic Sans MS;strokeWidth=3.1496;" parent="E0SU5ZG9Q0p2GKEuyHbm-1" source="E0SU5ZG9Q0p2GKEuyHbm-4" target="E0SU5ZG9Q0p2GKEuyHbm-7" edge="1">
          <mxGeometry relative="1" as="geometry" />
        </mxCell>
        <mxCell id="E0SU5ZG9Q0p2GKEuyHbm-10" value="&lt;font style=&quot;font-size: 24px;&quot;&gt;Tactical Planning&lt;/font&gt;" style="rounded=0;whiteSpace=wrap;html=1;fontSize=20;fontFamily=Comic Sans MS;verticalAlign=top;fillColor=none;strokeColor=#6c8ebf;strokeWidth=3.1496;" parent="E0SU5ZG9Q0p2GKEuyHbm-1" vertex="1">
          <mxGeometry x="1188" y="430" width="750" height="300" as="geometry" />
        </mxCell>
        <mxCell id="E0SU5ZG9Q0p2GKEuyHbm-11" style="edgeStyle=orthogonalEdgeStyle;rounded=0;orthogonalLoop=1;jettySize=auto;html=1;strokeWidth=3.1496;" parent="E0SU5ZG9Q0p2GKEuyHbm-1" source="E0SU5ZG9Q0p2GKEuyHbm-12" target="E0SU5ZG9Q0p2GKEuyHbm-20" edge="1">
          <mxGeometry relative="1" as="geometry" />
        </mxCell>
        <mxCell id="E0SU5ZG9Q0p2GKEuyHbm-12" value="" style="verticalLabelPosition=bottom;shadow=0;dashed=0;align=center;html=1;verticalAlign=top;strokeWidth=1;shape=mxgraph.mockup.misc.loading_circle_2;pointerEvents=1;fontSize=20;fontFamily=Comic Sans MS;fillColor=#dae8fc;strokeColor=#6c8ebf;" parent="E0SU5ZG9Q0p2GKEuyHbm-1" vertex="1">
          <mxGeometry x="1488" y="490" width="90" height="90" as="geometry" />
        </mxCell>
        <mxCell id="E0SU5ZG9Q0p2GKEuyHbm-13" value="&lt;div style=&quot;font-size: 20px;&quot;&gt;&lt;b style=&quot;font-size: 20px;&quot;&gt;MILP Solver&lt;/b&gt;&lt;/div&gt;&lt;div style=&quot;font-size: 20px;&quot;&gt;&lt;span style=&quot;font-size: 20px;&quot;&gt;&lt;i&gt;Short-term Efficiency&lt;/i&gt;&lt;/span&gt;&lt;/div&gt;" style="rounded=1;whiteSpace=wrap;html=1;fillColor=#fff2cc;strokeColor=#d6b656;strokeWidth=3.1496;fontSize=20;fontFamily=Comic Sans MS;" parent="E0SU5ZG9Q0p2GKEuyHbm-1" vertex="1">
          <mxGeometry x="1448" y="590" width="190" height="80" as="geometry" />
        </mxCell>
        <mxCell id="E0SU5ZG9Q0p2GKEuyHbm-14" value="&lt;div style=&quot;font-size: 20px;&quot;&gt;&lt;b style=&quot;font-size: 20px;&quot;&gt;Task Details&lt;/b&gt;&lt;/div&gt;&lt;div style=&quot;font-size: 20px;&quot;&gt;&lt;i style=&quot;font-size: 20px;&quot;&gt;Available Resources&lt;/i&gt;&lt;/div&gt;" style="rounded=1;whiteSpace=wrap;html=1;fillColor=#d5e8d4;strokeColor=#82b366;strokeWidth=3.1496;fontSize=20;fontFamily=Comic Sans MS;" parent="E0SU5ZG9Q0p2GKEuyHbm-1" vertex="1">
          <mxGeometry x="1208" y="450" width="220" height="60" as="geometry" />
        </mxCell>
        <mxCell id="E0SU5ZG9Q0p2GKEuyHbm-15" value="&lt;div style=&quot;font-size: 20px;&quot;&gt;&lt;b style=&quot;font-size: 20px;&quot;&gt;Resources Constraints&lt;/b&gt;&lt;/div&gt;" style="rounded=1;whiteSpace=wrap;html=1;fillColor=#d5e8d4;strokeColor=#82b366;strokeWidth=3.1496;fontSize=20;fontFamily=Comic Sans MS;" parent="E0SU5ZG9Q0p2GKEuyHbm-1" vertex="1">
          <mxGeometry x="1208" y="590" width="140" height="70" as="geometry" />
        </mxCell>
        <mxCell id="E0SU5ZG9Q0p2GKEuyHbm-16" style="edgeStyle=orthogonalEdgeStyle;rounded=0;orthogonalLoop=1;jettySize=auto;html=1;entryX=0;entryY=0.489;entryDx=0;entryDy=0;entryPerimeter=0;fontSize=20;fontFamily=Comic Sans MS;exitX=1;exitY=0.5;exitDx=0;exitDy=0;strokeWidth=3.1496;" parent="E0SU5ZG9Q0p2GKEuyHbm-1" source="E0SU5ZG9Q0p2GKEuyHbm-15" target="E0SU5ZG9Q0p2GKEuyHbm-12" edge="1">
          <mxGeometry relative="1" as="geometry">
            <mxPoint x="1318" y="610" as="sourcePoint" />
            <mxPoint x="1376.02" y="526.98" as="targetPoint" />
            <Array as="points">
              <mxPoint x="1348" y="630" />
              <mxPoint x="1378" y="630" />
              <mxPoint x="1378" y="580" />
              <mxPoint x="1458" y="580" />
              <mxPoint x="1458" y="534" />
            </Array>
          </mxGeometry>
        </mxCell>
        <mxCell id="E0SU5ZG9Q0p2GKEuyHbm-17" style="edgeStyle=orthogonalEdgeStyle;rounded=0;orthogonalLoop=1;jettySize=auto;html=1;entryX=-0.011;entryY=0.489;entryDx=0;entryDy=0;entryPerimeter=0;fontSize=20;fontFamily=Comic Sans MS;strokeWidth=3.1496;" parent="E0SU5ZG9Q0p2GKEuyHbm-1" source="E0SU5ZG9Q0p2GKEuyHbm-24" target="E0SU5ZG9Q0p2GKEuyHbm-12" edge="1">
          <mxGeometry relative="1" as="geometry" />
        </mxCell>
        <mxCell id="E0SU5ZG9Q0p2GKEuyHbm-18" style="edgeStyle=orthogonalEdgeStyle;rounded=0;orthogonalLoop=1;jettySize=auto;html=1;entryX=0.011;entryY=0.489;entryDx=0;entryDy=0;entryPerimeter=0;fontSize=20;fontFamily=Comic Sans MS;strokeWidth=3.1496;" parent="E0SU5ZG9Q0p2GKEuyHbm-1" source="E0SU5ZG9Q0p2GKEuyHbm-14" target="E0SU5ZG9Q0p2GKEuyHbm-12" edge="1">
          <mxGeometry relative="1" as="geometry" />
        </mxCell>
        <mxCell id="E0SU5ZG9Q0p2GKEuyHbm-19" style="edgeStyle=orthogonalEdgeStyle;rounded=0;orthogonalLoop=1;jettySize=auto;html=1;strokeWidth=3.1496;entryX=0.5;entryY=1;entryDx=0;entryDy=0;" parent="E0SU5ZG9Q0p2GKEuyHbm-1" source="E0SU5ZG9Q0p2GKEuyHbm-20" target="E0SU5ZG9Q0p2GKEuyHbm-27" edge="1">
          <mxGeometry relative="1" as="geometry">
            <mxPoint x="750" y="870" as="targetPoint" />
            <Array as="points">
              <mxPoint x="980" y="890" />
              <mxPoint x="751" y="890" />
              <mxPoint x="751" y="875" />
            </Array>
          </mxGeometry>
        </mxCell>
        <mxCell id="E0SU5ZG9Q0p2GKEuyHbm-20" value="&lt;div style=&quot;font-size: 20px;&quot;&gt;&lt;span style=&quot;background-color: initial;&quot;&gt;&lt;b&gt;Allocated Tasks&lt;/b&gt;&lt;/span&gt;&lt;/div&gt;&lt;div style=&quot;font-size: 20px;&quot;&gt;&lt;i style=&quot;background-color: initial;&quot;&gt;Real-Time Placement&lt;/i&gt;&lt;br&gt;&lt;/div&gt;" style="rounded=1;whiteSpace=wrap;html=1;fillColor=#dae8fc;strokeColor=#6c8ebf;strokeWidth=3.1496;fontSize=20;fontFamily=Comic Sans MS;" parent="E0SU5ZG9Q0p2GKEuyHbm-1" vertex="1">
          <mxGeometry x="1668" y="505" width="240" height="60" as="geometry" />
        </mxCell>
        <mxCell id="E0SU5ZG9Q0p2GKEuyHbm-21" style="edgeStyle=orthogonalEdgeStyle;rounded=0;orthogonalLoop=1;jettySize=auto;html=1;entryX=0.5;entryY=1;entryDx=0;entryDy=0;strokeWidth=3.1496;" parent="E0SU5ZG9Q0p2GKEuyHbm-1" source="E0SU5ZG9Q0p2GKEuyHbm-22" target="E0SU5ZG9Q0p2GKEuyHbm-13" edge="1">
          <mxGeometry relative="1" as="geometry">
            <Array as="points">
              <mxPoint x="980" y="640" />
              <mxPoint x="1110" y="640" />
              <mxPoint x="1110" y="700" />
              <mxPoint x="1543" y="700" />
            </Array>
          </mxGeometry>
        </mxCell>
        <mxCell id="E0SU5ZG9Q0p2GKEuyHbm-22" value="&lt;div style=&quot;font-size: 20px;&quot;&gt;&lt;b style=&quot;font-size: 20px;&quot;&gt;Strategic Allocation&lt;/b&gt;&lt;/div&gt;&lt;div style=&quot;font-size: 20px;&quot;&gt;&lt;i style=&quot;font-size: 20px;&quot;&gt;Rack/Servers Type&lt;/i&gt;&lt;/div&gt;" style="rounded=1;whiteSpace=wrap;html=1;fillColor=#dae8fc;strokeColor=#6c8ebf;strokeWidth=3.1496;fontSize=20;fontFamily=Comic Sans MS;" parent="E0SU5ZG9Q0p2GKEuyHbm-1" vertex="1">
          <mxGeometry x="870" y="527.5" width="230" height="60" as="geometry" />
        </mxCell>
        <mxCell id="E0SU5ZG9Q0p2GKEuyHbm-23" value="&lt;div style=&quot;font-size: 20px;&quot;&gt;&lt;b style=&quot;font-size: 20px;&quot;&gt;Server utilitzation&lt;/b&gt;&lt;/div&gt;&lt;div style=&quot;font-size: 20px;&quot;&gt;&lt;b style=&quot;font-size: 20px;&quot;&gt;Migration Cost&lt;/b&gt;&lt;/div&gt;&lt;div style=&quot;font-size: 20px;&quot;&gt;&lt;b style=&quot;font-size: 20px;&quot;&gt;SLA Violations&lt;/b&gt;&lt;/div&gt;" style="rounded=1;whiteSpace=wrap;html=1;fillColor=#e1d5e7;strokeColor=#9673a6;strokeWidth=3.1496;fontSize=20;fontFamily=Comic Sans MS;" parent="E0SU5ZG9Q0p2GKEuyHbm-1" vertex="1">
          <mxGeometry x="650" y="740" width="200" height="94" as="geometry" />
        </mxCell>
        <mxCell id="E0SU5ZG9Q0p2GKEuyHbm-24" value="&lt;div style=&quot;font-size: 20px;&quot;&gt;&lt;b style=&quot;font-size: 20px;&quot;&gt;Network Affinity&lt;/b&gt;&lt;/div&gt;" style="rounded=1;whiteSpace=wrap;html=1;fillColor=#d5e8d4;strokeColor=#82b366;strokeWidth=3.1496;fontSize=20;fontFamily=Comic Sans MS;" parent="E0SU5ZG9Q0p2GKEuyHbm-1" vertex="1">
          <mxGeometry x="1208" y="530" width="220" height="40" as="geometry" />
        </mxCell>
        <mxCell id="E0SU5ZG9Q0p2GKEuyHbm-25" value="&lt;div style=&quot;font-size: 20px;&quot;&gt;&lt;b&gt;GUIDE&lt;/b&gt;&lt;/div&gt;" style="rounded=1;whiteSpace=wrap;html=1;fillColor=#e1d5e7;strokeColor=#9673a6;strokeWidth=3.1496;fontSize=20;fontFamily=Comic Sans MS;" parent="E0SU5ZG9Q0p2GKEuyHbm-1" vertex="1">
          <mxGeometry x="990" y="624" width="100" height="25" as="geometry" />
        </mxCell>
        <mxCell id="E0SU5ZG9Q0p2GKEuyHbm-26" value="" style="edgeStyle=orthogonalEdgeStyle;rounded=0;orthogonalLoop=1;jettySize=auto;html=1;" parent="E0SU5ZG9Q0p2GKEuyHbm-1" source="E0SU5ZG9Q0p2GKEuyHbm-27" target="E0SU5ZG9Q0p2GKEuyHbm-23" edge="1">
          <mxGeometry relative="1" as="geometry" />
        </mxCell>
        <mxCell id="E0SU5ZG9Q0p2GKEuyHbm-27" value="&lt;div style=&quot;font-size: 20px;&quot;&gt;&lt;b&gt;LEADER REWARD&lt;/b&gt;&lt;/div&gt;" style="rounded=1;whiteSpace=wrap;html=1;fillColor=#e1d5e7;strokeColor=#9673a6;strokeWidth=3.1496;fontSize=20;fontFamily=Comic Sans MS;" parent="E0SU5ZG9Q0p2GKEuyHbm-1" vertex="1">
          <mxGeometry x="655" y="840" width="190" height="25" as="geometry" />
        </mxCell>
        <mxCell id="E0SU5ZG9Q0p2GKEuyHbm-28" value="&lt;div style=&quot;font-size: 20px;&quot;&gt;&lt;b&gt;LEARNING SIGNAL&lt;/b&gt;&lt;/div&gt;" style="rounded=1;whiteSpace=wrap;html=1;fillColor=#e1d5e7;strokeColor=#9673a6;strokeWidth=3.1496;fontSize=20;fontFamily=Comic Sans MS;" parent="E0SU5ZG9Q0p2GKEuyHbm-1" vertex="1">
          <mxGeometry x="760" y="680" width="230" height="25" as="geometry" />
        </mxCell>
        <mxCell id="E0SU5ZG9Q0p2GKEuyHbm-29" value="&lt;div style=&quot;font-size: 20px;&quot;&gt;&lt;b&gt;Allocation Policy&lt;/b&gt;&lt;/div&gt;" style="rounded=1;whiteSpace=wrap;html=1;fillColor=#ffe6cc;strokeColor=#d79b00;strokeWidth=3.1496;fontSize=20;fontFamily=Comic Sans MS;" parent="E0SU5ZG9Q0p2GKEuyHbm-1" vertex="1">
          <mxGeometry x="1707" y="612.5" width="201" height="35" as="geometry" />
        </mxCell>
        <mxCell id="E0SU5ZG9Q0p2GKEuyHbm-30" value="&lt;div style=&quot;font-size: 20px;&quot;&gt;&lt;b&gt;Allocation Policy&lt;/b&gt;&lt;/div&gt;" style="rounded=1;whiteSpace=wrap;html=1;fillColor=#ffe6cc;strokeColor=#d79b00;strokeWidth=3.1496;fontSize=20;fontFamily=Comic Sans MS;" parent="E0SU5ZG9Q0p2GKEuyHbm-1" vertex="1">
          <mxGeometry x="860" y="801" width="200" height="39" as="geometry" />
        </mxCell>
      </root>
    </mxGraphModel>
  </diagram>
</mxfile>
